<?xml version="1.0" encoding="us-ascii" standalone="no"?><svg xmlns="http://www.w3.org/2000/svg" xmlns:xlink="http://www.w3.org/1999/xlink" contentStyleType="text/css" height="1840px" preserveAspectRatio="none" style="width:538px;height:1840px;background:#FFFFFF;" version="1.1" viewBox="0 0 538 1840" width="538px" zoomAndPan="magnify"><defs/><g><!--cluster SWAGroup12--><g id="cluster_SWAGroup12"><path d="M8.5,6 L101.5,6 A3.75,3.75 0 0 1 104,8.5 L111,28.4883 L528.5,28.4883 A2.5,2.5 0 0 1 531,30.9883 L531,1831.31 A2.5,2.5 0 0 1 528.5,1833.81 L8.5,1833.81 A2.5,2.5 0 0 1 6,1831.31 L6,8.5 A2.5,2.5 0 0 1 8.5,6 " fill="none" style="stroke:#000000;stroke-width:1.5;"/><line style="stroke:#000000;stroke-width:1.5;" x1="6" x2="111" y1="28.4883" y2="28.4883"/><text fill="#000000" font-family="sans-serif" font-size="14" font-weight="bold" lengthAdjust="spacing" textLength="92" x="10" y="21.5352">SWAGroup12</text></g><!--class EP_Board--><g id="elem_EP_Board"><rect codeLine="5" fill="#F1F1F1" height="245.8594" id="EP_Board" rx="2.5" ry="2.5" style="stroke:#181818;stroke-width:0.5;" width="270" x="245" y="885.21"/><ellipse cx="344.25" cy="901.21" fill="#ADD1B2" rx="11" ry="11" style="stroke:#181818;stroke-width:1.0;"/><path d="M346.7231,907.3531 Q346.1421,907.6519 345.5029,907.8013 Q344.8638,907.9507 344.1582,907.9507 Q341.6514,907.9507 340.3315,906.2989 Q339.0117,904.647 339.0117,901.5259 Q339.0117,898.3965 340.3315,896.7447 Q341.6514,895.0928 344.1582,895.0928 Q344.8638,895.0928 345.5112,895.2422 Q346.1587,895.3916 346.7231,895.6905 L346.7231,898.4131 Q346.0923,897.8321 345.4988,897.5623 Q344.9053,897.2925 344.2744,897.2925 Q342.9297,897.2925 342.2449,898.3592 Q341.5601,899.4258 341.5601,901.5259 Q341.5601,903.6177 342.2449,904.6844 Q342.9297,905.751 344.2744,905.751 Q344.9053,905.751 345.4988,905.4812 Q346.0923,905.2115 346.7231,904.6304 Z " fill="#000000"/><text fill="#000000" font-family="sans-serif" font-size="14" lengthAdjust="spacing" textLength="63" x="364.75" y="906.501">EP_Board</text><line style="stroke:#181818;stroke-width:0.5;" x1="246" x2="514" y1="917.21" y2="917.21"/><rect fill="none" height="6" style="stroke:#C82930;stroke-width:1.0;" width="6" x="253" y="927.9541"/><text fill="#000000" font-family="sans-serif" font-size="14" lengthAdjust="spacing" textLength="84" x="265" y="934.7452">tiles : Matrix</text><rect fill="none" height="6" style="stroke:#C82930;stroke-width:1.0;" width="6" x="253" y="944.4424"/><text fill="#000000" font-family="sans-serif" font-size="14" lengthAdjust="spacing" textLength="116" x="265" y="951.2334">boardSize : Point</text><rect fill="none" height="6" style="stroke:#C82930;stroke-width:1.0;" width="6" x="253" y="960.9307"/><text fill="#000000" font-family="sans-serif" font-size="14" lengthAdjust="spacing" textLength="49" x="265" y="967.7217">tileSize</text><rect fill="none" height="6" style="stroke:#C82930;stroke-width:1.0;" width="6" x="253" y="977.419"/><text fill="#000000" font-family="sans-serif" font-size="14" lengthAdjust="spacing" textLength="26" x="265" y="984.21">way</text><rect fill="none" height="6" style="stroke:#C82930;stroke-width:1.0;" width="6" x="253" y="993.9073"/><text fill="#000000" font-family="sans-serif" font-size="14" lengthAdjust="spacing" textLength="61" x="265" y="1000.6983">manager</text><rect fill="none" height="6" style="stroke:#C82930;stroke-width:1.0;" width="6" x="253" y="1010.3955"/><text fill="#000000" font-family="sans-serif" font-size="14" lengthAdjust="spacing" textLength="154" x="265" y="1017.1866">towerPlacementPopUp</text><rect fill="none" height="6" style="stroke:#C82930;stroke-width:1.0;" width="6" x="253" y="1026.8838"/><text fill="#000000" font-family="sans-serif" font-size="14" lengthAdjust="spacing" textLength="182" x="265" y="1033.6748">towerPlacementPopUpSize</text><line style="stroke:#181818;stroke-width:0.5;" x1="246" x2="514" y1="1040.628" y2="1040.628"/><ellipse cx="256" cy="1054.3721" fill="#84BE84" rx="3" ry="3" style="stroke:#038048;stroke-width:1.0;"/><text fill="#000000" font-family="sans-serif" font-size="14" lengthAdjust="spacing" textLength="68" x="265" y="1058.1631">initialize()</text><ellipse cx="256" cy="1070.8604" fill="#84BE84" rx="3" ry="3" style="stroke:#038048;stroke-width:1.0;"/><text fill="#000000" font-family="sans-serif" font-size="14" lengthAdjust="spacing" textLength="203" x="265" y="1074.6514">backgroundImagePath(aPath)</text><ellipse cx="256" cy="1087.3487" fill="#84BE84" rx="3" ry="3" style="stroke:#038048;stroke-width:1.0;"/><text fill="#000000" font-family="sans-serif" font-size="14" lengthAdjust="spacing" textLength="244" x="265" y="1091.1397">redrawGridWithTileType(aTileClass)</text><ellipse cx="256" cy="1103.837" fill="#84BE84" rx="3" ry="3" style="stroke:#038048;stroke-width:1.0;"/><text fill="#000000" font-family="sans-serif" font-size="14" lengthAdjust="spacing" textLength="134" x="265" y="1107.628">setPixelSize(aPoint)</text><ellipse cx="256" cy="1120.3252" fill="#84BE84" rx="3" ry="3" style="stroke:#038048;stroke-width:1.0;"/><text fill="#000000" font-family="sans-serif" font-size="14" lengthAdjust="spacing" textLength="239" x="265" y="1124.1163">setTowerPlacementPopup(aPopup)</text></g><!--class EP_Tile--><g id="elem_EP_Tile"><rect codeLine="20" fill="#F1F1F1" height="163.418" id="EP_Tile" rx="2.5" ry="2.5" style="stroke:#181818;stroke-width:0.5;" width="170" x="166" y="1513.42"/><ellipse cx="222.75" cy="1529.42" fill="#ADD1B2" rx="11" ry="11" style="stroke:#181818;stroke-width:1.0;"/><path d="M225.2231,1535.5631 Q224.6421,1535.8619 224.0029,1536.0113 Q223.3638,1536.1607 222.6582,1536.1607 Q220.1514,1536.1607 218.8315,1534.5089 Q217.5117,1532.857 217.5117,1529.7359 Q217.5117,1526.6065 218.8315,1524.9547 Q220.1514,1523.3028 222.6582,1523.3028 Q223.3638,1523.3028 224.0112,1523.4522 Q224.6587,1523.6016 225.2231,1523.9005 L225.2231,1526.6231 Q224.5923,1526.0421 223.9988,1525.7723 Q223.4053,1525.5025 222.7744,1525.5025 Q221.4297,1525.5025 220.7449,1526.5692 Q220.0601,1527.6358 220.0601,1529.7359 Q220.0601,1531.8277 220.7449,1532.8944 Q221.4297,1533.961 222.7744,1533.961 Q223.4053,1533.961 223.9988,1533.6912 Q224.5923,1533.4215 225.2231,1532.8404 Z " fill="#000000"/><text fill="#000000" font-family="sans-serif" font-size="14" lengthAdjust="spacing" textLength="48" x="243.25" y="1534.711">EP_Tile</text><line style="stroke:#181818;stroke-width:0.5;" x1="167" x2="335" y1="1545.42" y2="1545.42"/><rect fill="none" height="6" style="stroke:#C82930;stroke-width:1.0;" width="6" x="174" y="1556.1641"/><text fill="#000000" font-family="sans-serif" font-size="14" lengthAdjust="spacing" textLength="41" x="186" y="1562.9552">board</text><rect fill="none" height="6" style="stroke:#C82930;stroke-width:1.0;" width="6" x="174" y="1572.6524"/><text fill="#000000" font-family="sans-serif" font-size="14" lengthAdjust="spacing" textLength="103" x="186" y="1579.4434">matrixLocation</text><rect fill="none" height="6" style="stroke:#C82930;stroke-width:1.0;" width="6" x="174" y="1589.1407"/><text fill="#000000" font-family="sans-serif" font-size="14" lengthAdjust="spacing" textLength="62" x="186" y="1595.9317">occupied</text><rect fill="none" height="6" style="stroke:#C82930;stroke-width:1.0;" width="6" x="174" y="1605.629"/><text fill="#000000" font-family="sans-serif" font-size="14" lengthAdjust="spacing" textLength="45" x="186" y="1612.42">locked</text><line style="stroke:#181818;stroke-width:0.5;" x1="167" x2="335" y1="1619.3731" y2="1619.3731"/><ellipse cx="177" cy="1633.1173" fill="#84BE84" rx="3" ry="3" style="stroke:#038048;stroke-width:1.0;"/><text fill="#000000" font-family="sans-serif" font-size="14" lengthAdjust="spacing" textLength="68" x="186" y="1636.9083">initialize()</text><ellipse cx="177" cy="1649.6055" fill="#84BE84" rx="3" ry="3" style="stroke:#038048;stroke-width:1.0;"/><text fill="#000000" font-family="sans-serif" font-size="14" lengthAdjust="spacing" textLength="123" x="186" y="1653.3966">leftClicked() (SCR)</text><ellipse cx="177" cy="1666.0938" fill="#84BE84" rx="3" ry="3" style="stroke:#038048;stroke-width:1.0;"/><text fill="#000000" font-family="sans-serif" font-size="14" lengthAdjust="spacing" textLength="144" x="186" y="1669.8848">size(aPointOrLength)</text></g><!--class EP_EditorTile--><g id="elem_EP_EditorTile"><rect codeLine="30" fill="#F1F1F1" height="64.4883" id="EP_EditorTile" rx="2.5" ry="2.5" style="stroke:#181818;stroke-width:0.5;" width="121" x="106.5" y="1745.08"/><ellipse cx="121.5" cy="1761.08" fill="#ADD1B2" rx="11" ry="11" style="stroke:#181818;stroke-width:1.0;"/><path d="M123.9731,1767.2231 Q123.3921,1767.5219 122.7529,1767.6713 Q122.1138,1767.8207 121.4082,1767.8207 Q118.9014,1767.8207 117.5815,1766.1689 Q116.2617,1764.517 116.2617,1761.3959 Q116.2617,1758.2665 117.5815,1756.6147 Q118.9014,1754.9628 121.4082,1754.9628 Q122.1138,1754.9628 122.7612,1755.1122 Q123.4087,1755.2616 123.9731,1755.5605 L123.9731,1758.2831 Q123.3423,1757.7021 122.7488,1757.4323 Q122.1553,1757.1625 121.5244,1757.1625 Q120.1797,1757.1625 119.4949,1758.2292 Q118.8101,1759.2958 118.8101,1761.3959 Q118.8101,1763.4877 119.4949,1764.5544 Q120.1797,1765.621 121.5244,1765.621 Q122.1553,1765.621 122.7488,1765.3512 Q123.3423,1765.0815 123.9731,1764.5004 Z " fill="#000000"/><text fill="#000000" font-family="sans-serif" font-size="14" lengthAdjust="spacing" textLength="89" x="135.5" y="1766.371">EP_EditorTile</text><line style="stroke:#181818;stroke-width:0.5;" x1="107.5" x2="226.5" y1="1777.08" y2="1777.08"/><line style="stroke:#181818;stroke-width:0.5;" x1="107.5" x2="226.5" y1="1785.08" y2="1785.08"/><ellipse cx="117.5" cy="1798.8241" fill="#84BE84" rx="3" ry="3" style="stroke:#038048;stroke-width:1.0;"/><text fill="#000000" font-family="sans-serif" font-size="14" lengthAdjust="spacing" textLength="82" x="126.5" y="1802.6152">leftClicked()</text></g><!--class EP_PlayTile--><g id="elem_EP_PlayTile"><rect codeLine="33" fill="#F1F1F1" height="80.9766" id="EP_PlayTile" rx="2.5" ry="2.5" style="stroke:#181818;stroke-width:0.5;" width="166" x="263" y="1736.83"/><ellipse cx="304.55" cy="1752.83" fill="#ADD1B2" rx="11" ry="11" style="stroke:#181818;stroke-width:1.0;"/><path d="M307.0231,1758.9731 Q306.4421,1759.2719 305.8029,1759.4213 Q305.1638,1759.5707 304.4582,1759.5707 Q301.9514,1759.5707 300.6315,1757.9189 Q299.3117,1756.267 299.3117,1753.1459 Q299.3117,1750.0165 300.6315,1748.3647 Q301.9514,1746.7128 304.4582,1746.7128 Q305.1638,1746.7128 305.8112,1746.8622 Q306.4587,1747.0116 307.0231,1747.3105 L307.0231,1750.0331 Q306.3923,1749.4521 305.7988,1749.1823 Q305.2053,1748.9125 304.5744,1748.9125 Q303.2297,1748.9125 302.5449,1749.9792 Q301.8601,1751.0458 301.8601,1753.1459 Q301.8601,1755.2377 302.5449,1756.3044 Q303.2297,1757.371 304.5744,1757.371 Q305.2053,1757.371 305.7988,1757.1012 Q306.3923,1756.8315 307.0231,1756.2504 Z " fill="#000000"/><text fill="#000000" font-family="sans-serif" font-size="14" lengthAdjust="spacing" textLength="75" x="324.45" y="1758.121">EP_PlayTile</text><line style="stroke:#181818;stroke-width:0.5;" x1="264" x2="428" y1="1768.83" y2="1768.83"/><line style="stroke:#181818;stroke-width:0.5;" x1="264" x2="428" y1="1776.83" y2="1776.83"/><ellipse cx="274" cy="1790.5741" fill="#84BE84" rx="3" ry="3" style="stroke:#038048;stroke-width:1.0;"/><text fill="#000000" font-family="sans-serif" font-size="14" lengthAdjust="spacing" textLength="82" x="283" y="1794.3652">leftClicked()</text><ellipse cx="274" cy="1807.0624" fill="#84BE84" rx="3" ry="3" style="stroke:#038048;stroke-width:1.0;"/><text fill="#000000" font-family="sans-serif" font-size="14" lengthAdjust="spacing" textLength="140" x="283" y="1810.8534">placeTower(aTower)</text></g><!--class EP_Enemy--><g id="elem_EP_Enemy"><rect codeLine="38" fill="#F1F1F1" height="262.3477" id="EP_Enemy" rx="2.5" ry="2.5" style="stroke:#181818;stroke-width:0.5;" width="144" x="57" y="1191.07"/><ellipse cx="91.8" cy="1207.07" fill="#ADD1B2" rx="11" ry="11" style="stroke:#181818;stroke-width:1.0;"/><path d="M94.2731,1213.2131 Q93.6921,1213.5119 93.0529,1213.6613 Q92.4138,1213.8107 91.7082,1213.8107 Q89.2014,1213.8107 87.8815,1212.1589 Q86.5617,1210.507 86.5617,1207.3859 Q86.5617,1204.2565 87.8815,1202.6047 Q89.2014,1200.9528 91.7082,1200.9528 Q92.4138,1200.9528 93.0612,1201.1022 Q93.7087,1201.2516 94.2731,1201.5505 L94.2731,1204.2731 Q93.6423,1203.6921 93.0488,1203.4223 Q92.4553,1203.1525 91.8244,1203.1525 Q90.4797,1203.1525 89.7949,1204.2192 Q89.1101,1205.2858 89.1101,1207.3859 Q89.1101,1209.4777 89.7949,1210.5444 Q90.4797,1211.611 91.8244,1211.611 Q92.4553,1211.611 93.0488,1211.3412 Q93.6423,1211.0715 94.2731,1210.4904 Z " fill="#000000"/><text fill="#000000" font-family="sans-serif" font-size="14" lengthAdjust="spacing" textLength="68" x="110.2" y="1212.361">EP_Enemy</text><line style="stroke:#181818;stroke-width:0.5;" x1="58" x2="200" y1="1223.07" y2="1223.07"/><rect fill="none" height="6" style="stroke:#C82930;stroke-width:1.0;" width="6" x="65" y="1233.8141"/><text fill="#000000" font-family="sans-serif" font-size="14" lengthAdjust="spacing" textLength="55" x="77" y="1240.6052">damage</text><rect fill="none" height="6" style="stroke:#C82930;stroke-width:1.0;" width="6" x="65" y="1250.3024"/><text fill="#000000" font-family="sans-serif" font-size="14" lengthAdjust="spacing" textLength="43" x="77" y="1257.0934">health</text><rect fill="none" height="6" style="stroke:#C82930;stroke-width:1.0;" width="6" x="65" y="1266.7907"/><text fill="#000000" font-family="sans-serif" font-size="14" lengthAdjust="spacing" textLength="41" x="77" y="1273.5817">speed</text><rect fill="none" height="6" style="stroke:#C82930;stroke-width:1.0;" width="6" x="65" y="1283.279"/><text fill="#000000" font-family="sans-serif" font-size="14" lengthAdjust="spacing" textLength="26" x="77" y="1290.07">way</text><rect fill="none" height="6" style="stroke:#C82930;stroke-width:1.0;" width="6" x="65" y="1299.7673"/><text fill="#000000" font-family="sans-serif" font-size="14" lengthAdjust="spacing" textLength="56" x="77" y="1306.5583">position</text><rect fill="none" height="6" style="stroke:#C82930;stroke-width:1.0;" width="6" x="65" y="1316.2555"/><text fill="#000000" font-family="sans-serif" font-size="14" lengthAdjust="spacing" textLength="61" x="77" y="1323.0466">progress</text><rect fill="none" height="6" style="stroke:#C82930;stroke-width:1.0;" width="6" x="65" y="1332.7438"/><text fill="#000000" font-family="sans-serif" font-size="14" lengthAdjust="spacing" textLength="81" x="77" y="1339.5348">tileProgress</text><rect fill="none" height="6" style="stroke:#C82930;stroke-width:1.0;" width="6" x="65" y="1349.2321"/><text fill="#000000" font-family="sans-serif" font-size="14" lengthAdjust="spacing" textLength="109" x="77" y="1356.0231">distancePerStep</text><rect fill="none" height="6" style="stroke:#C82930;stroke-width:1.0;" width="6" x="65" y="1365.7204"/><text fill="#000000" font-family="sans-serif" font-size="14" lengthAdjust="spacing" textLength="83" x="77" y="1372.5114">stepsPerTile</text><rect fill="none" height="6" style="stroke:#C82930;stroke-width:1.0;" width="6" x="65" y="1382.2087"/><text fill="#000000" font-family="sans-serif" font-size="14" lengthAdjust="spacing" textLength="98" x="77" y="1388.9997">gameManager</text><line style="stroke:#181818;stroke-width:0.5;" x1="58" x2="200" y1="1395.9528" y2="1395.9528"/><ellipse cx="68" cy="1409.697" fill="#84BE84" rx="3" ry="3" style="stroke:#038048;stroke-width:1.0;"/><text fill="#000000" font-family="sans-serif" font-size="14" lengthAdjust="spacing" textLength="68" x="77" y="1413.488">initialize()</text><ellipse cx="68" cy="1426.1852" fill="#84BE84" rx="3" ry="3" style="stroke:#038048;stroke-width:1.0;"/><text fill="#000000" font-family="sans-serif" font-size="14" lengthAdjust="spacing" textLength="30" x="77" y="1429.9763">kill()</text><ellipse cx="68" cy="1442.6735" fill="#84BE84" rx="3" ry="3" style="stroke:#038048;stroke-width:1.0;"/><text fill="#000000" font-family="sans-serif" font-size="14" lengthAdjust="spacing" textLength="118" x="77" y="1446.4645">moveAlongPath()</text></g><!--class EP_TowerPlacementPopUp--><g id="elem_EP_TowerPlacementPopUp"><rect codeLine="54" fill="#F1F1F1" height="113.9531" id="EP_TowerPlacementPopUp" rx="2.5" ry="2.5" style="stroke:#181818;stroke-width:0.5;" width="227" x="287.5" y="1265.27"/><ellipse cx="308.8" cy="1281.27" fill="#ADD1B2" rx="11" ry="11" style="stroke:#181818;stroke-width:1.0;"/><path d="M311.2731,1287.4131 Q310.6921,1287.7119 310.0529,1287.8613 Q309.4138,1288.0107 308.7082,1288.0107 Q306.2014,1288.0107 304.8815,1286.3589 Q303.5617,1284.707 303.5617,1281.5859 Q303.5617,1278.4565 304.8815,1276.8047 Q306.2014,1275.1528 308.7082,1275.1528 Q309.4138,1275.1528 310.0612,1275.3022 Q310.7087,1275.4516 311.2731,1275.7505 L311.2731,1278.4731 Q310.6423,1277.8921 310.0488,1277.6223 Q309.4553,1277.3525 308.8244,1277.3525 Q307.4797,1277.3525 306.7949,1278.4192 Q306.1101,1279.4858 306.1101,1281.5859 Q306.1101,1283.6777 306.7949,1284.7444 Q307.4797,1285.811 308.8244,1285.811 Q309.4553,1285.811 310.0488,1285.5412 Q310.6423,1285.2715 311.2731,1284.6904 Z " fill="#000000"/><text fill="#000000" font-family="sans-serif" font-size="14" lengthAdjust="spacing" textLength="181" x="324.2" y="1286.561">EP_TowerPlacementPopUp</text><line style="stroke:#181818;stroke-width:0.5;" x1="288.5" x2="513.5" y1="1297.27" y2="1297.27"/><rect fill="none" height="6" style="stroke:#C82930;stroke-width:1.0;" width="6" x="295.5" y="1308.0141"/><text fill="#000000" font-family="sans-serif" font-size="14" lengthAdjust="spacing" textLength="21" x="307.5" y="1314.8052">tile</text><rect fill="none" height="6" style="stroke:#C82930;stroke-width:1.0;" width="6" x="295.5" y="1324.5024"/><text fill="#000000" font-family="sans-serif" font-size="14" lengthAdjust="spacing" textLength="41" x="307.5" y="1331.2934">board</text><line style="stroke:#181818;stroke-width:0.5;" x1="288.5" x2="513.5" y1="1338.2466" y2="1338.2466"/><ellipse cx="298.5" cy="1351.9907" fill="#84BE84" rx="3" ry="3" style="stroke:#038048;stroke-width:1.0;"/><text fill="#000000" font-family="sans-serif" font-size="14" lengthAdjust="spacing" textLength="187" x="307.5" y="1355.7817">initializeWith(aBoard, aTile)</text><ellipse cx="298.5" cy="1368.479" fill="#84BE84" rx="3" ry="3" style="stroke:#038048;stroke-width:1.0;"/><text fill="#000000" font-family="sans-serif" font-size="14" lengthAdjust="spacing" textLength="201" x="307.5" y="1372.27">placeTowerWithAsset(aAsset)</text></g><!--class EP_GameMode--><g id="elem_EP_GameMode"><rect codeLine="61" fill="#F1F1F1" height="113.9531" id="EP_GameMode" rx="2.5" ry="2.5" style="stroke:#181818;stroke-width:0.5;" width="264" x="124" y="330.37"/><ellipse cx="201.75" cy="346.37" fill="#ADD1B2" rx="11" ry="11" style="stroke:#181818;stroke-width:1.0;"/><path d="M204.2231,352.5131 Q203.6421,352.8119 203.0029,352.9613 Q202.3638,353.1107 201.6582,353.1107 Q199.1514,353.1107 197.8315,351.4589 Q196.5117,349.807 196.5117,346.6859 Q196.5117,343.5565 197.8315,341.9047 Q199.1514,340.2528 201.6582,340.2528 Q202.3638,340.2528 203.0112,340.4022 Q203.6587,340.5516 204.2231,340.8505 L204.2231,343.5731 Q203.5923,342.9921 202.9988,342.7223 Q202.4053,342.4525 201.7744,342.4525 Q200.4297,342.4525 199.7449,343.5192 Q199.0601,344.5858 199.0601,346.6859 Q199.0601,348.7777 199.7449,349.8444 Q200.4297,350.911 201.7744,350.911 Q202.4053,350.911 202.9988,350.6412 Q203.5923,350.3715 204.2231,349.7904 Z " fill="#000000"/><text fill="#000000" font-family="sans-serif" font-size="14" lengthAdjust="spacing" textLength="100" x="222.25" y="351.661">EP_GameMode</text><line style="stroke:#181818;stroke-width:0.5;" x1="125" x2="387" y1="362.37" y2="362.37"/><rect fill="none" height="6" style="stroke:#C82930;stroke-width:1.0;" width="6" x="132" y="373.1141"/><text fill="#000000" font-family="sans-serif" font-size="14" lengthAdjust="spacing" textLength="53" x="144" y="379.9052">window</text><line style="stroke:#181818;stroke-width:0.5;" x1="125" x2="387" y1="386.8583" y2="386.8583"/><ellipse cx="135" cy="400.6024" fill="#84BE84" rx="3" ry="3" style="stroke:#038048;stroke-width:1.0;"/><text fill="#000000" font-family="sans-serif" font-size="14" lengthAdjust="spacing" textLength="238" x="144" y="404.3934">_newWithWindow(aWindow) (class)</text><ellipse cx="135" cy="417.0907" fill="#84BE84" rx="3" ry="3" style="stroke:#038048;stroke-width:1.0;"/><text fill="#000000" font-family="sans-serif" font-size="14" lengthAdjust="spacing" textLength="195" x="144" y="420.8817">getMainView() : Morph (SCR)</text><ellipse cx="135" cy="433.579" fill="#84BE84" rx="3" ry="3" style="stroke:#038048;stroke-width:1.0;"/><text fill="#000000" font-family="sans-serif" font-size="14" lengthAdjust="spacing" textLength="191" x="144" y="437.37">getSideView() : Morph (SCR)</text></g><!--class EP_MenuMode--><g id="elem_EP_MenuMode"><rect codeLine="68" fill="#F1F1F1" height="97.4648" id="EP_MenuMode" rx="2.5" ry="2.5" style="stroke:#181818;stroke-width:0.5;" width="131" x="23.5" y="529.06"/><ellipse cx="38.5" cy="545.06" fill="#ADD1B2" rx="11" ry="11" style="stroke:#181818;stroke-width:1.0;"/><path d="M40.9731,551.2031 Q40.3921,551.5019 39.7529,551.6513 Q39.1138,551.8007 38.4082,551.8007 Q35.9014,551.8007 34.5815,550.1489 Q33.2617,548.497 33.2617,545.3759 Q33.2617,542.2465 34.5815,540.5947 Q35.9014,538.9428 38.4082,538.9428 Q39.1138,538.9428 39.7612,539.0922 Q40.4087,539.2416 40.9731,539.5405 L40.9731,542.2631 Q40.3423,541.6821 39.7488,541.4123 Q39.1553,541.1425 38.5244,541.1425 Q37.1797,541.1425 36.4949,542.2092 Q35.8101,543.2758 35.8101,545.3759 Q35.8101,547.4677 36.4949,548.5344 Q37.1797,549.601 38.5244,549.601 Q39.1553,549.601 39.7488,549.3312 Q40.3423,549.0615 40.9731,548.4804 Z " fill="#000000"/><text fill="#000000" font-family="sans-serif" font-size="14" lengthAdjust="spacing" textLength="99" x="52.5" y="550.351">EP_MenuMode</text><line style="stroke:#181818;stroke-width:0.5;" x1="24.5" x2="153.5" y1="561.06" y2="561.06"/><rect fill="none" height="6" style="stroke:#C82930;stroke-width:1.0;" width="6" x="31.5" y="571.8041"/><text fill="#000000" font-family="sans-serif" font-size="14" lengthAdjust="spacing" textLength="72" x="43.5" y="578.5952">menuPage</text><line style="stroke:#181818;stroke-width:0.5;" x1="24.5" x2="153.5" y1="585.5483" y2="585.5483"/><ellipse cx="34.5" cy="599.2924" fill="#84BE84" rx="3" ry="3" style="stroke:#038048;stroke-width:1.0;"/><text fill="#000000" font-family="sans-serif" font-size="14" lengthAdjust="spacing" textLength="68" x="43.5" y="603.0834">initialize()</text><ellipse cx="34.5" cy="615.7807" fill="#84BE84" rx="3" ry="3" style="stroke:#038048;stroke-width:1.0;"/><text fill="#000000" font-family="sans-serif" font-size="14" lengthAdjust="spacing" textLength="76" x="43.5" y="619.5717">quitGame()</text></g><!--class EP_PlayMode--><g id="elem_EP_PlayMode"><rect codeLine="74" fill="#F1F1F1" height="130.4414" id="EP_PlayMode" rx="2.5" ry="2.5" style="stroke:#181818;stroke-width:0.5;" width="134" x="189" y="512.57"/><ellipse cx="210.3" cy="528.57" fill="#ADD1B2" rx="11" ry="11" style="stroke:#181818;stroke-width:1.0;"/><path d="M212.7731,534.7131 Q212.1921,535.0119 211.5529,535.1613 Q210.9138,535.3107 210.2082,535.3107 Q207.7014,535.3107 206.3815,533.6589 Q205.0617,532.007 205.0617,528.8859 Q205.0617,525.7565 206.3815,524.1047 Q207.7014,522.4528 210.2082,522.4528 Q210.9138,522.4528 211.5612,522.6022 Q212.2087,522.7516 212.7731,523.0505 L212.7731,525.7731 Q212.1423,525.1921 211.5488,524.9223 Q210.9553,524.6525 210.3244,524.6525 Q208.9797,524.6525 208.2949,525.7192 Q207.6101,526.7858 207.6101,528.8859 Q207.6101,530.9777 208.2949,532.0444 Q208.9797,533.111 210.3244,533.111 Q210.9553,533.111 211.5488,532.8412 Q212.1423,532.5715 212.7731,531.9904 Z " fill="#000000"/><text fill="#000000" font-family="sans-serif" font-size="14" lengthAdjust="spacing" textLength="88" x="225.7" y="533.861">EP_PlayMode</text><line style="stroke:#181818;stroke-width:0.5;" x1="190" x2="322" y1="544.57" y2="544.57"/><rect fill="none" height="6" style="stroke:#C82930;stroke-width:1.0;" width="6" x="197" y="555.3141"/><text fill="#000000" font-family="sans-serif" font-size="14" lengthAdjust="spacing" textLength="31" x="209" y="562.1052">level</text><rect fill="none" height="6" style="stroke:#C82930;stroke-width:1.0;" width="6" x="197" y="571.8024"/><text fill="#000000" font-family="sans-serif" font-size="14" lengthAdjust="spacing" textLength="51" x="209" y="578.5934">sidebar</text><rect fill="none" height="6" style="stroke:#C82930;stroke-width:1.0;" width="6" x="197" y="588.2907"/><text fill="#000000" font-family="sans-serif" font-size="14" lengthAdjust="spacing" textLength="98" x="209" y="595.0817">gameManager</text><line style="stroke:#181818;stroke-width:0.5;" x1="190" x2="322" y1="602.0348" y2="602.0348"/><ellipse cx="200" cy="615.779" fill="#84BE84" rx="3" ry="3" style="stroke:#038048;stroke-width:1.0;"/><text fill="#000000" font-family="sans-serif" font-size="14" lengthAdjust="spacing" textLength="68" x="209" y="619.57">initialize()</text><ellipse cx="200" cy="632.2673" fill="#84BE84" rx="3" ry="3" style="stroke:#038048;stroke-width:1.0;"/><text fill="#000000" font-family="sans-serif" font-size="14" lengthAdjust="spacing" textLength="108" x="209" y="636.0583">initLevel(aLevel)</text></g><!--class EP_EditorMode--><g id="elem_EP_EditorMode"><rect codeLine="82" fill="#F1F1F1" height="146.9297" id="EP_EditorMode" rx="2.5" ry="2.5" style="stroke:#181818;stroke-width:0.5;" width="134" x="358" y="504.33"/><ellipse cx="373" cy="520.33" fill="#ADD1B2" rx="11" ry="11" style="stroke:#181818;stroke-width:1.0;"/><path d="M375.4731,526.4731 Q374.8921,526.7719 374.2529,526.9213 Q373.6138,527.0707 372.9082,527.0707 Q370.4014,527.0707 369.0815,525.4189 Q367.7617,523.767 367.7617,520.6459 Q367.7617,517.5165 369.0815,515.8647 Q370.4014,514.2128 372.9082,514.2128 Q373.6138,514.2128 374.2612,514.3622 Q374.9087,514.5116 375.4731,514.8105 L375.4731,517.5331 Q374.8423,516.9521 374.2488,516.6823 Q373.6553,516.4125 373.0244,516.4125 Q371.6797,516.4125 370.9949,517.4792 Q370.3101,518.5458 370.3101,520.6459 Q370.3101,522.7377 370.9949,523.8044 Q371.6797,524.871 373.0244,524.871 Q373.6553,524.871 374.2488,524.6012 Q374.8423,524.3315 375.4731,523.7504 Z " fill="#000000"/><text fill="#000000" font-family="sans-serif" font-size="14" lengthAdjust="spacing" textLength="102" x="387" y="525.621">EP_EditorMode</text><line style="stroke:#181818;stroke-width:0.5;" x1="359" x2="491" y1="536.33" y2="536.33"/><rect fill="none" height="6" style="stroke:#C82930;stroke-width:1.0;" width="6" x="366" y="547.0741"/><text fill="#000000" font-family="sans-serif" font-size="14" lengthAdjust="spacing" textLength="31" x="378" y="553.8652">level</text><rect fill="none" height="6" style="stroke:#C82930;stroke-width:1.0;" width="6" x="366" y="563.5624"/><text fill="#000000" font-family="sans-serif" font-size="14" lengthAdjust="spacing" textLength="51" x="378" y="570.3534">sidebar</text><rect fill="none" height="6" style="stroke:#C82930;stroke-width:1.0;" width="6" x="366" y="580.0507"/><text fill="#000000" font-family="sans-serif" font-size="14" lengthAdjust="spacing" textLength="41" x="378" y="586.8417">phase</text><line style="stroke:#181818;stroke-width:0.5;" x1="359" x2="491" y1="593.7948" y2="593.7948"/><ellipse cx="369" cy="607.539" fill="#84BE84" rx="3" ry="3" style="stroke:#038048;stroke-width:1.0;"/><text fill="#000000" font-family="sans-serif" font-size="14" lengthAdjust="spacing" textLength="68" x="378" y="611.33">initialize()</text><ellipse cx="369" cy="624.0273" fill="#84BE84" rx="3" ry="3" style="stroke:#038048;stroke-width:1.0;"/><text fill="#000000" font-family="sans-serif" font-size="14" lengthAdjust="spacing" textLength="108" x="378" y="627.8183">initLevel(aLevel)</text><ellipse cx="369" cy="640.5155" fill="#84BE84" rx="3" ry="3" style="stroke:#038048;stroke-width:1.0;"/><text fill="#000000" font-family="sans-serif" font-size="14" lengthAdjust="spacing" textLength="99" x="378" y="644.3066">phase(aPhase)</text></g><!--class EP_GameWindow--><g id="elem_EP_GameWindow"><rect codeLine="91" fill="#F1F1F1" height="229.3711" id="EP_GameWindow" rx="2.5" ry="2.5" style="stroke:#181818;stroke-width:0.5;" width="244" x="134" y="41"/><ellipse cx="193.75" cy="57" fill="#ADD1B2" rx="11" ry="11" style="stroke:#181818;stroke-width:1.0;"/><path d="M196.2231,63.1431 Q195.6421,63.4419 195.0029,63.5913 Q194.3638,63.7407 193.6582,63.7407 Q191.1514,63.7407 189.8315,62.0889 Q188.5117,60.437 188.5117,57.3159 Q188.5117,54.1865 189.8315,52.5347 Q191.1514,50.8828 193.6582,50.8828 Q194.3638,50.8828 195.0112,51.0322 Q195.6587,51.1816 196.2231,51.4805 L196.2231,54.2031 Q195.5923,53.6221 194.9988,53.3523 Q194.4053,53.0825 193.7744,53.0825 Q192.4297,53.0825 191.7449,54.1492 Q191.0601,55.2158 191.0601,57.3159 Q191.0601,59.4077 191.7449,60.4744 Q192.4297,61.541 193.7744,61.541 Q194.4053,61.541 194.9988,61.2712 Q195.5923,61.0015 196.2231,60.4204 Z " fill="#000000"/><text fill="#000000" font-family="sans-serif" font-size="14" lengthAdjust="spacing" textLength="116" x="214.25" y="62.291">EP_GameWindow</text><line style="stroke:#181818;stroke-width:0.5;" x1="135" x2="377" y1="73" y2="73"/><rect fill="none" height="6" style="stroke:#C82930;stroke-width:1.0;" width="6" x="142" y="83.7441"/><text fill="#000000" font-family="sans-serif" font-size="14" lengthAdjust="spacing" textLength="39" x="154" y="90.5352">mode</text><rect fill="none" height="6" style="stroke:#C82930;stroke-width:1.0;" width="6" x="142" y="100.2324"/><text fill="#000000" font-family="sans-serif" font-size="14" lengthAdjust="spacing" textLength="66" x="154" y="107.0234">mainView</text><rect fill="none" height="6" style="stroke:#C82930;stroke-width:1.0;" width="6" x="142" y="116.7207"/><text fill="#000000" font-family="sans-serif" font-size="14" lengthAdjust="spacing" textLength="60" x="154" y="123.5117">sideView</text><rect fill="none" height="6" style="stroke:#C82930;stroke-width:1.0;" width="6" x="142" y="133.209"/><text fill="#000000" font-family="sans-serif" font-size="14" lengthAdjust="spacing" textLength="99" x="154" y="140">sideViewWidth</text><line style="stroke:#181818;stroke-width:0.5;" x1="135" x2="377" y1="146.9531" y2="146.9531"/><ellipse cx="145" cy="160.6973" fill="#84BE84" rx="3" ry="3" style="stroke:#038048;stroke-width:1.0;"/><text fill="#000000" font-family="sans-serif" font-size="14" lengthAdjust="spacing" textLength="68" x="154" y="164.4883">initialize()</text><ellipse cx="145" cy="177.1855" fill="#84BE84" rx="3" ry="3" style="stroke:#038048;stroke-width:1.0;"/><text fill="#000000" font-family="sans-serif" font-size="14" lengthAdjust="spacing" textLength="172" x="154" y="180.9766">getMainViewSize() : Point</text><ellipse cx="145" cy="193.6738" fill="#84BE84" rx="3" ry="3" style="stroke:#038048;stroke-width:1.0;"/><text fill="#000000" font-family="sans-serif" font-size="14" lengthAdjust="spacing" textLength="168" x="154" y="197.4648">getSideViewSize() : Point</text><ellipse cx="145" cy="210.1621" fill="#84BE84" rx="3" ry="3" style="stroke:#038048;stroke-width:1.0;"/><text fill="#000000" font-family="sans-serif" font-size="14" lengthAdjust="spacing" textLength="112" x="154" y="213.9531">openInWindow()</text><ellipse cx="145" cy="226.6504" fill="#84BE84" rx="3" ry="3" style="stroke:#038048;stroke-width:1.0;"/><text fill="#000000" font-family="sans-serif" font-size="14" lengthAdjust="spacing" textLength="218" x="154" y="230.4414">switchToEditorWithLevel(aLevel)</text><ellipse cx="145" cy="243.1387" fill="#84BE84" rx="3" ry="3" style="stroke:#038048;stroke-width:1.0;"/><text fill="#000000" font-family="sans-serif" font-size="14" lengthAdjust="spacing" textLength="204" x="154" y="246.9297">switchToPlayWithLevel(aLevel)</text><ellipse cx="145" cy="259.627" fill="#84BE84" rx="3" ry="3" style="stroke:#038048;stroke-width:1.0;"/><text fill="#000000" font-family="sans-serif" font-size="14" lengthAdjust="spacing" textLength="109" x="154" y="263.418">switchToMenu()</text></g><!--class EP_Menu--><g id="elem_EP_Menu"><rect codeLine="105" fill="#F1F1F1" height="113.9531" id="EP_Menu" rx="2.5" ry="2.5" style="stroke:#181818;stroke-width:0.5;" width="137" x="22.5" y="711.26"/><ellipse cx="57.3" cy="727.26" fill="#ADD1B2" rx="11" ry="11" style="stroke:#181818;stroke-width:1.0;"/><path d="M59.7731,733.4031 Q59.1921,733.7019 58.5529,733.8513 Q57.9138,734.0007 57.2082,734.0007 Q54.7014,734.0007 53.3815,732.3489 Q52.0617,730.697 52.0617,727.5759 Q52.0617,724.4465 53.3815,722.7947 Q54.7014,721.1428 57.2082,721.1428 Q57.9138,721.1428 58.5612,721.2922 Q59.2087,721.4416 59.7731,721.7405 L59.7731,724.4631 Q59.1423,723.8821 58.5488,723.6123 Q57.9553,723.3425 57.3244,723.3425 Q55.9797,723.3425 55.2949,724.4092 Q54.6101,725.4758 54.6101,727.5759 Q54.6101,729.6677 55.2949,730.7344 Q55.9797,731.801 57.3244,731.801 Q57.9553,731.801 58.5488,731.5312 Q59.1423,731.2615 59.7731,730.6804 Z " fill="#000000"/><text fill="#000000" font-family="sans-serif" font-size="14" lengthAdjust="spacing" textLength="61" x="75.7" y="732.551">EP_Menu</text><line style="stroke:#181818;stroke-width:0.5;" x1="23.5" x2="158.5" y1="743.26" y2="743.26"/><rect fill="none" height="6" style="stroke:#C82930;stroke-width:1.0;" width="6" x="30.5" y="754.0041"/><text fill="#000000" font-family="sans-serif" font-size="14" lengthAdjust="spacing" textLength="61" x="42.5" y="760.7952">manager</text><line style="stroke:#181818;stroke-width:0.5;" x1="23.5" x2="158.5" y1="767.7483" y2="767.7483"/><ellipse cx="33.5" cy="781.4924" fill="#84BE84" rx="3" ry="3" style="stroke:#038048;stroke-width:1.0;"/><text fill="#000000" font-family="sans-serif" font-size="14" lengthAdjust="spacing" textLength="68" x="42.5" y="785.2834">initialize()</text><ellipse cx="33.5" cy="797.9807" fill="#84BE84" rx="3" ry="3" style="stroke:#038048;stroke-width:1.0;"/><text fill="#000000" font-family="sans-serif" font-size="14" lengthAdjust="spacing" textLength="54" x="42.5" y="801.7717">extent()</text><ellipse cx="33.5" cy="814.469" fill="#84BE84" rx="3" ry="3" style="stroke:#038048;stroke-width:1.0;"/><text fill="#000000" font-family="sans-serif" font-size="14" lengthAdjust="spacing" textLength="111" x="42.5" y="818.26">drawMainpage()</text></g><!--class EP_NotAGameManager--><g id="elem_EP_NotAGameManager"><rect codeLine="112" fill="#F1F1F1" height="130.4414" id="EP_NotAGameManager" rx="2.5" ry="2.5" style="stroke:#181818;stroke-width:0.5;" width="188" x="22" y="942.92"/><ellipse cx="37" cy="958.92" fill="#ADD1B2" rx="11" ry="11" style="stroke:#181818;stroke-width:1.0;"/><path d="M39.4731,965.0631 Q38.8921,965.3619 38.2529,965.5113 Q37.6138,965.6607 36.9082,965.6607 Q34.4014,965.6607 33.0815,964.0089 Q31.7617,962.357 31.7617,959.2359 Q31.7617,956.1065 33.0815,954.4547 Q34.4014,952.8028 36.9082,952.8028 Q37.6138,952.8028 38.2612,952.9522 Q38.9087,953.1016 39.4731,953.4005 L39.4731,956.1231 Q38.8423,955.5421 38.2488,955.2723 Q37.6553,955.0025 37.0244,955.0025 Q35.6797,955.0025 34.9949,956.0692 Q34.3101,957.1358 34.3101,959.2359 Q34.3101,961.3277 34.9949,962.3944 Q35.6797,963.461 37.0244,963.461 Q37.6553,963.461 38.2488,963.1912 Q38.8423,962.9215 39.4731,962.3404 Z " fill="#000000"/><text fill="#000000" font-family="sans-serif" font-size="14" lengthAdjust="spacing" textLength="156" x="51" y="964.211">EP_NotAGameManager</text><line style="stroke:#181818;stroke-width:0.5;" x1="23" x2="209" y1="974.92" y2="974.92"/><rect fill="none" height="6" style="stroke:#C82930;stroke-width:1.0;" width="6" x="30" y="985.6641"/><text fill="#000000" font-family="sans-serif" font-size="14" lengthAdjust="spacing" textLength="26" x="42" y="992.4552">way</text><rect fill="none" height="6" style="stroke:#C82930;stroke-width:1.0;" width="6" x="30" y="1002.1524"/><text fill="#000000" font-family="sans-serif" font-size="14" lengthAdjust="spacing" textLength="30" x="42" y="1008.9434">map</text><rect fill="none" height="6" style="stroke:#C82930;stroke-width:1.0;" width="6" x="30" y="1018.6407"/><text fill="#000000" font-family="sans-serif" font-size="14" lengthAdjust="spacing" textLength="46" x="42" y="1025.4317">money</text><rect fill="none" height="6" style="stroke:#C82930;stroke-width:1.0;" width="6" x="30" y="1035.129"/><text fill="#000000" font-family="sans-serif" font-size="14" lengthAdjust="spacing" textLength="30" x="42" y="1041.92">lives</text><line style="stroke:#181818;stroke-width:0.5;" x1="23" x2="209" y1="1048.8731" y2="1048.8731"/><ellipse cx="33" cy="1062.6173" fill="#84BE84" rx="3" ry="3" style="stroke:#038048;stroke-width:1.0;"/><text fill="#000000" font-family="sans-serif" font-size="14" lengthAdjust="spacing" textLength="99" x="42" y="1066.4083">spawnEnemy()</text></g><!--class EP_Level--><g id="elem_EP_Level"><rect codeLine="120" fill="#F1F1F1" height="64.4883" id="EP_Level" rx="2.5" ry="2.5" style="stroke:#181818;stroke-width:0.5;" width="89" x="335.5" y="735.99"/><ellipse cx="350.5" cy="751.99" fill="#ADD1B2" rx="11" ry="11" style="stroke:#181818;stroke-width:1.0;"/><path d="M352.9731,758.1331 Q352.3921,758.4319 351.7529,758.5813 Q351.1138,758.7307 350.4082,758.7307 Q347.9014,758.7307 346.5815,757.0789 Q345.2617,755.427 345.2617,752.3059 Q345.2617,749.1765 346.5815,747.5247 Q347.9014,745.8728 350.4082,745.8728 Q351.1138,745.8728 351.7612,746.0222 Q352.4087,746.1716 352.9731,746.4705 L352.9731,749.1931 Q352.3423,748.6121 351.7488,748.3423 Q351.1553,748.0725 350.5244,748.0725 Q349.1797,748.0725 348.4949,749.1392 Q347.8101,750.2058 347.8101,752.3059 Q347.8101,754.3977 348.4949,755.4644 Q349.1797,756.531 350.5244,756.531 Q351.1553,756.531 351.7488,756.2612 Q352.3423,755.9915 352.9731,755.4104 Z " fill="#000000"/><text fill="#000000" font-family="sans-serif" font-size="14" lengthAdjust="spacing" textLength="57" x="364.5" y="757.281">EP_Level</text><line style="stroke:#181818;stroke-width:0.5;" x1="336.5" x2="423.5" y1="767.99" y2="767.99"/><rect fill="none" height="6" style="stroke:#C82930;stroke-width:1.0;" width="6" x="343.5" y="778.7341"/><text fill="#000000" font-family="sans-serif" font-size="14" lengthAdjust="spacing" textLength="41" x="355.5" y="785.5252">board</text><line style="stroke:#181818;stroke-width:0.5;" x1="336.5" x2="423.5" y1="792.4783" y2="792.4783"/></g><!--link EP_GameWindow to EP_GameMode--><g id="link_EP_GameWindow_EP_GameMode"><path codeLine="124" d="M256,270.85 C256,291.45 256,306.08 256,324.08 " fill="none" id="EP_GameWindow-to-EP_GameMode" style="stroke:#181818;stroke-width:1.0;"/><polygon fill="#181818" points="256,330.08,260,321.08,256,325.08,252,321.08,256,330.08" style="stroke:#181818;stroke-width:1.0;"/></g><!--link EP_Board to EP_Tile--><g id="link_EP_Board_EP_Tile"><path codeLine="125" d="M272.0832,1142.1284 C261.8332,1161.3484 258.63,1170.94 252.5,1191.07 C219.71,1298.8 219.9235,1424.1994 229.4635,1507.0294 " fill="none" id="EP_Board-EP_Tile" style="stroke:#181818;stroke-width:1.0;"/><polygon fill="#181818" points="277.73,1131.54,271.3772,1134.9519,272.0832,1142.1284,278.4361,1138.7165,277.73,1131.54" style="stroke:#181818;stroke-width:1.0;"/><polygon fill="#181818" points="230.15,1512.99,233.094,1503.5914,229.5779,1508.0228,225.1465,1504.5068,230.15,1512.99" style="stroke:#181818;stroke-width:1.0;"/></g><!--link EP_Tile to EP_Board--><g id="link_EP_Tile_EP_Board"><path codeLine="139" d="M256.48,1512.99 C255.61,1430.16 254.71,1298.8 287.5,1191.07 C293.63,1170.94 299.7413,1156.0985 309.6013,1136.8785 " fill="none" id="EP_Tile-to-EP_Board" style="stroke:#181818;stroke-width:1.0;"/><polygon fill="#181818" points="312.34,1131.54,304.673,1137.722,310.0578,1135.9887,311.791,1141.3735,312.34,1131.54" style="stroke:#181818;stroke-width:1.0;"/></g><!--link EP_Board to EP_Enemy--><g id="link_EP_Board_EP_Enemy"><path codeLine="126" d="M274.3601,1140.5015 C247.5501,1173.8415 230.26,1195.3243 205.17,1226.5243 " fill="none" id="EP_Board-EP_Enemy" style="stroke:#181818;stroke-width:1.0;"/><polygon fill="#181818" points="281.88,1131.15,275.0029,1133.3191,274.3601,1140.5015,281.2372,1138.3324,281.88,1131.15" style="stroke:#181818;stroke-width:1.0;"/><polygon fill="#181818" points="201.41,1231.2,210.1672,1226.6932,204.5434,1227.3036,203.9329,1221.6798,201.41,1231.2" style="stroke:#181818;stroke-width:1.0;"/></g><!--link EP_Board to EP_TowerPlacementPopUp--><g id="link_EP_Board_EP_TowerPlacementPopUp"><path codeLine="127" d="M388.21,1131.15 C391.32,1177.31 394.2968,1221.6636 396.8068,1258.9336 " fill="none" id="EP_Board-to-EP_TowerPlacementPopUp" style="stroke:#181818;stroke-width:1.0;"/><polygon fill="#181818" points="397.21,1264.92,400.5962,1255.6716,396.874,1259.9313,392.6143,1256.2091,397.21,1264.92" style="stroke:#181818;stroke-width:1.0;"/></g><!--reverse link EP_GameMode to EP_MenuMode--><g id="link_EP_GameMode_EP_MenuMode"><path codeLine="128" d="M194.1821,458.1017 C170.4421,484.8917 154.29,503.12 131.57,528.76 " fill="none" id="EP_GameMode-backto-EP_MenuMode" style="stroke:#181818;stroke-width:1.0;"/><polygon fill="none" points="206.12,444.63,189.6915,454.1224,198.6726,462.081,206.12,444.63" style="stroke:#181818;stroke-width:1.0;"/></g><!--reverse link EP_GameMode to EP_EditorMode--><g id="link_EP_GameMode_EP_EditorMode"><path codeLine="129" d="M318.4959,458.0321 C335.2259,476.6921 342.07,484.32 359.75,504.03 " fill="none" id="EP_GameMode-backto-EP_EditorMode" style="stroke:#181818;stroke-width:1.0;"/><polygon fill="none" points="306.48,444.63,314.0286,462.0374,322.9633,454.0268,306.48,444.63" style="stroke:#181818;stroke-width:1.0;"/></g><!--reverse link EP_GameMode to EP_PlayMode--><g id="link_EP_GameMode_EP_PlayMode"><path codeLine="130" d="M256,462.63 C256,483.89 256,490.24 256,512.2 " fill="none" id="EP_GameMode-backto-EP_PlayMode" style="stroke:#181818;stroke-width:1.0;"/><polygon fill="none" points="256,444.63,250,462.63,262,462.63,256,444.63" style="stroke:#181818;stroke-width:1.0;"/></g><!--link EP_MenuMode to EP_Menu--><g id="link_EP_MenuMode_EP_Menu"><path codeLine="131" d="M89.51,626.83 C89.78,652.46 90.0572,678.1403 90.3372,704.9103 " fill="none" id="EP_MenuMode-to-EP_Menu" style="stroke:#181818;stroke-width:1.0;"/><polygon fill="#181818" points="90.4,710.91,94.3057,701.8687,90.3477,705.9103,86.3061,701.9523,90.4,710.91" style="stroke:#181818;stroke-width:1.0;"/></g><!--link EP_PlayMode to EP_Level--><g id="link_EP_PlayMode_EP_Level"><path codeLine="133" d="M298.5,643.38 C318.97,674.49 339.3009,705.3884 355.8309,730.4984 " fill="none" id="EP_PlayMode-to-EP_Level" style="stroke:#181818;stroke-width:1.0;"/><polygon fill="#181818" points="359.13,735.51,357.5223,725.7932,356.3807,731.3337,350.8403,730.1921,359.13,735.51" style="stroke:#181818;stroke-width:1.0;"/></g><!--link EP_EditorMode to EP_Level--><g id="link_EP_EditorMode_EP_Level"><path codeLine="134" d="M407.6,651.65 C400.63,680.85 394.3541,707.1142 388.8741,730.0542 " fill="none" id="EP_EditorMode-to-EP_Level" style="stroke:#181818;stroke-width:1.0;"/><polygon fill="#181818" points="387.48,735.89,393.4617,728.0657,388.6417,731.0268,385.6806,726.2069,387.48,735.89" style="stroke:#181818;stroke-width:1.0;"/></g><!--link EP_Level to EP_Board--><g id="link_EP_Level_EP_Board"><path codeLine="135" d="M380,800.82 C380,822.82 380,847.69 380,878.87 " fill="none" id="EP_Level-to-EP_Board" style="stroke:#181818;stroke-width:1.0;"/><polygon fill="#181818" points="380,884.87,384,875.87,380,879.87,376,875.87,380,884.87" style="stroke:#181818;stroke-width:1.0;"/></g><!--link EP_PlayMode to EP_NotAGameManager--><g id="link_EP_PlayMode_EP_NotAGameManager"><path codeLine="136" d="M235.53,643.46 C219.71,693.21 197.19,763.63 177,825.21 C164.18,864.3 149.53,908.02 137.8,942.8 " fill="none" id="EP_PlayMode-EP_NotAGameManager" style="stroke:#181818;stroke-width:1.0;stroke-dasharray:7.0,7.0;"/></g><!--link EP_NotAGameManager to EP_Enemy--><g id="link_EP_NotAGameManager_EP_Enemy"><path codeLine="137" d="M119.1897,1085.7996 C120.5997,1119.6296 121.6303,1144.3352 123.3103,1184.6752 " fill="none" id="EP_NotAGameManager-EP_Enemy" style="stroke:#181818;stroke-width:1.0;"/><polygon fill="#181818" points="118.69,1073.81,114.9433,1079.9714,119.1897,1085.7996,122.9364,1079.6382,118.69,1073.81" style="stroke:#181818;stroke-width:1.0;"/><polygon fill="#181818" points="123.56,1190.67,127.182,1181.5114,123.352,1185.6743,119.189,1181.8442,123.56,1190.67" style="stroke:#181818;stroke-width:1.0;"/></g><!--link EP_TowerPlacementPopUp to EP_Tile--><g id="link_EP_TowerPlacementPopUp_EP_Tile"><path codeLine="138" d="M369.74,1379.7 C348.36,1418.31 322.5965,1464.831 298.7865,1507.831 " fill="none" id="EP_TowerPlacementPopUp-to-EP_Tile" style="stroke:#181818;stroke-width:1.0;"/><polygon fill="#181818" points="295.88,1513.08,303.7391,1507.1441,298.3021,1508.7058,296.7404,1503.2688,295.88,1513.08" style="stroke:#181818;stroke-width:1.0;"/></g><!--reverse link EP_Tile to EP_PlayTile--><g id="link_EP_Tile_EP_PlayTile"><path codeLine="140" d="M302.1721,1693.184 C313.0021,1713.734 315.78,1718.99 324.99,1736.47 " fill="none" id="EP_Tile-backto-EP_PlayTile" style="stroke:#181818;stroke-width:1.0;"/><polygon fill="none" points="293.78,1677.26,296.8641,1695.9813,307.4801,1690.3866,293.78,1677.26" style="stroke:#181818;stroke-width:1.0;"/></g><!--reverse link EP_Tile to EP_EditorTile--><g id="link_EP_Tile_EP_EditorTile"><path codeLine="141" d="M205.5752,1693.5746 C194.4252,1717.4946 190.49,1725.94 181.73,1744.73 " fill="none" id="EP_Tile-backto-EP_EditorTile" style="stroke:#181818;stroke-width:1.0;"/><polygon fill="none" points="213.18,1677.26,200.137,1691.0397,211.0134,1696.1096,213.18,1677.26" style="stroke:#181818;stroke-width:1.0;"/></g><!--SRC=[dLPHRzCm47xlhyXZ1dGIF2A4r4rJDQc5Y1RwE7d9aLfpRUEuomhil-DpakQSnjjO7-RvxhDz_kwxSpJBxrW9oMepcnkrr-y_97ycaqdYVhbWLPLSPJSNYfd2cPFsDxLSG9LyJ9RC6lxGssyHkEA_mVaonQKDbw2djzJiq4zsJBee3C6h6amcM0uxa3PJ-hj-qXdi_PPBRZaJpfQUzTPRTzVINL8MrpjtMiRiDcNubs0C58RLSyEB3RVRjOjwVT2GClpl4WaXs0finXz0uDbk8xnmw5qFuznhnBcXmJqEYCP3AC-UJqeIqhrGERDSoTwkydolEH2aKFaTcKVu4F3JNWgEqFGiILUNtsZu_QM-cWN8igDf6FHLmQqoWz33lTjrmJ97o-7vHTwiaK7FfSi33f509EmEbBw2OPhx-HQOiDj-NccWf0M2rAhY8SlQgD90LOMQpawi1QyiapbaO5OMY6ehDwkS5M_TMqksW-L0_P5ytN4Xw7odxc4cb2ozaYEIEYsLOIN7z4QYm5f8cUy3xn9V2wFfGTYiSi9FcH_6GvhZZLKHABtcib1rl-UDX1ftstXxofhHYJGVr609Ticu_C6XTXfsBKaPlHrgsO5Ml80eQ1ZX4kH-6A6ZRvzHEKMIz6lFBTumaW-K_N1h0VSWY4vSgBVCl4eYQ5tWTYdpmrCb-xzXw2shu7K1D3h1zQwbu11NHfFfW7aN9ss2JRR3GCSj6rwGUez4J1Ja6_dPoUD5zHE3A0toMhPofMsqvZRVhbL3EKewmau7H86y08OIJUFg3VXxcNJWmReEGItu4Y8rsYsFdFL5sTcybsTGqk7xhcb29H2VuFTGaHjgLalVooDdUah6dyaM6affElrCsqw7QBvgthJUOrC-yVXGGbUt9lADGdlSfx_JAMqfKK1Var58rpiwmB5DjV7WtFiwmB7Pj835iSB39Z3cRbXkFHT7Xkckv-Vd8nheO4DfZF8vzZoDPCH_A8p5uXsKdvDL8R_UFNcS_0C0]--></g></svg>