<?xml version="1.0" encoding="us-ascii" standalone="no"?><svg xmlns="http://www.w3.org/2000/svg" xmlns:xlink="http://www.w3.org/1999/xlink" contentStyleType="text/css" height="1127px" preserveAspectRatio="none" style="width:1323px;height:1127px;background:#FFFFFF;" version="1.1" viewBox="0 0 1323 1127" width="1323px" zoomAndPan="magnify"><defs/><g><text fill="#000000" font-family="sans-serif" font-size="14" font-weight="bold" lengthAdjust="spacing" textLength="232" x="538.5" y="23.5352">Simplified Architecture Diagram</text><!--cluster SWAGroup12--><g id="cluster_SWAGroup12"><path d="M8.5,43.4883 L101.5,43.4883 A3.75,3.75 0 0 1 104,45.9883 L111,65.9766 L1313.5,65.9766 A2.5,2.5 0 0 1 1316,68.4766 L1316,1117.7583 A2.5,2.5 0 0 1 1313.5,1120.2583 L8.5,1120.2583 A2.5,2.5 0 0 1 6,1117.7583 L6,45.9883 A2.5,2.5 0 0 1 8.5,43.4883 " fill="none" style="stroke:#000000;stroke-width:1.5;"/><line style="stroke:#000000;stroke-width:1.5;" x1="6" x2="111" y1="65.9766" y2="65.9766"/><text fill="#000000" font-family="sans-serif" font-size="14" font-weight="bold" lengthAdjust="spacing" textLength="92" x="10" y="59.0234">SWAGroup12</text></g><!--class EP_GameWindow--><g id="elem_EP_GameWindow"><rect codeLine="6" fill="#F1F1F1" height="130.4414" id="EP_GameWindow" rx="2.5" ry="2.5" style="stroke:#181818;stroke-width:0.5;" width="246" x="464" y="78.4883"/><ellipse cx="524.75" cy="94.4883" fill="#ADD1B2" rx="11" ry="11" style="stroke:#181818;stroke-width:1.0;"/><path d="M527.2231,100.6313 Q526.6421,100.9302 526.0029,101.0796 Q525.3638,101.229 524.6582,101.229 Q522.1514,101.229 520.8315,99.5771 Q519.5117,97.9253 519.5117,94.8042 Q519.5117,91.6748 520.8315,90.0229 Q522.1514,88.3711 524.6582,88.3711 Q525.3638,88.3711 526.0112,88.5205 Q526.6587,88.6699 527.2231,88.9688 L527.2231,91.6914 Q526.5923,91.1104 525.9988,90.8406 Q525.4053,90.5708 524.7744,90.5708 Q523.4297,90.5708 522.7449,91.6375 Q522.0601,92.7041 522.0601,94.8042 Q522.0601,96.896 522.7449,97.9626 Q523.4297,99.0293 524.7744,99.0293 Q525.4053,99.0293 525.9988,98.7595 Q526.5923,98.4897 527.2231,97.9087 Z " fill="#000000"/><text fill="#000000" font-family="sans-serif" font-size="14" lengthAdjust="spacing" textLength="116" x="545.25" y="99.7793">EP_GameWindow</text><line style="stroke:#181818;stroke-width:0.5;" x1="465" x2="709" y1="110.4883" y2="110.4883"/><rect fill="none" height="6" style="stroke:#C82930;stroke-width:1.0;" width="6" x="472" y="121.2324"/><text fill="#000000" font-family="sans-serif" font-size="14" lengthAdjust="spacing" textLength="151" x="484" y="128.0234">mode : EP_GameMode</text><rect fill="none" height="6" style="stroke:#C82930;stroke-width:1.0;" width="6" x="472" y="137.7207"/><text fill="#000000" font-family="sans-serif" font-size="14" lengthAdjust="spacing" textLength="220" x="484" y="144.5117">levelManager : EP_LevelManager</text><rect fill="none" height="6" style="stroke:#C82930;stroke-width:1.0;" width="6" x="472" y="154.209"/><text fill="#000000" font-family="sans-serif" font-size="14" lengthAdjust="spacing" textLength="123" x="484" y="161">mainView : Morph</text><rect fill="none" height="6" style="stroke:#C82930;stroke-width:1.0;" width="6" x="472" y="170.6973"/><text fill="#000000" font-family="sans-serif" font-size="14" lengthAdjust="spacing" textLength="117" x="484" y="177.4883">sideView : Morph</text><rect fill="none" height="6" style="stroke:#C82930;stroke-width:1.0;" width="6" x="472" y="187.1855"/><text fill="#000000" font-family="sans-serif" font-size="14" lengthAdjust="spacing" textLength="166" x="484" y="193.9766">sideViewWidth : Number</text><line style="stroke:#181818;stroke-width:0.5;" x1="465" x2="709" y1="200.9297" y2="200.9297"/></g><!--class EP_GameMode--><g id="elem_EP_GameMode"><rect codeLine="14" fill="#F1F1F1" height="80.9766" id="EP_GameMode" rx="2.5" ry="2.5" style="stroke:#181818;stroke-width:0.5;" width="246" x="357" y="268.9383"/><ellipse cx="425.75" cy="284.9383" fill="#A9DCDF" rx="11" ry="11" style="stroke:#181818;stroke-width:1.0;"/><path d="M425.6133,280.2864 L424.4595,285.3582 L426.7754,285.3582 Z M424.1191,278.0452 L427.1157,278.0452 L430.4609,290.4383 L428.0122,290.4383 L427.2485,287.3753 L423.9697,287.3753 L423.2227,290.4383 L420.7739,290.4383 Z " fill="#000000"/><text fill="#000000" font-family="sans-serif" font-size="14" font-style="italic" lengthAdjust="spacing" textLength="100" x="446.25" y="290.2293">EP_GameMode</text><line style="stroke:#181818;stroke-width:0.5;" x1="358" x2="602" y1="300.9383" y2="300.9383"/><rect fill="none" height="6" style="stroke:#C82930;stroke-width:1.0;" width="6" x="365" y="311.6824"/><text fill="#000000" font-family="sans-serif" font-size="14" lengthAdjust="spacing" textLength="181" x="377" y="318.4734">window : EP_GameWindow</text><rect fill="none" height="6" style="stroke:#C82930;stroke-width:1.0;" width="6" x="365" y="328.1707"/><text fill="#000000" font-family="sans-serif" font-size="14" lengthAdjust="spacing" textLength="220" x="377" y="334.9617">levelManager : EP_LevelManager</text><line style="stroke:#181818;stroke-width:0.5;" x1="358" x2="602" y1="341.9148" y2="341.9148"/></g><!--class EP_MenuMode--><g id="elem_EP_MenuMode"><rect codeLine="19" fill="#F1F1F1" height="48" id="EP_MenuMode" rx="2.5" ry="2.5" style="stroke:#181818;stroke-width:0.5;" width="131" x="98.5" y="442.8883"/><ellipse cx="113.5" cy="458.8883" fill="#ADD1B2" rx="11" ry="11" style="stroke:#181818;stroke-width:1.0;"/><path d="M115.9731,465.0313 Q115.3921,465.3302 114.7529,465.4796 Q114.1138,465.629 113.4082,465.629 Q110.9014,465.629 109.5815,463.9771 Q108.2617,462.3253 108.2617,459.2042 Q108.2617,456.0748 109.5815,454.4229 Q110.9014,452.7711 113.4082,452.7711 Q114.1138,452.7711 114.7612,452.9205 Q115.4087,453.0699 115.9731,453.3688 L115.9731,456.0914 Q115.3423,455.5104 114.7488,455.2406 Q114.1553,454.9708 113.5244,454.9708 Q112.1797,454.9708 111.4949,456.0375 Q110.8101,457.1041 110.8101,459.2042 Q110.8101,461.296 111.4949,462.3626 Q112.1797,463.4293 113.5244,463.4293 Q114.1553,463.4293 114.7488,463.1595 Q115.3423,462.8897 115.9731,462.3087 Z " fill="#000000"/><text fill="#000000" font-family="sans-serif" font-size="14" lengthAdjust="spacing" textLength="99" x="127.5" y="464.1793">EP_MenuMode</text><line style="stroke:#181818;stroke-width:0.5;" x1="99.5" x2="228.5" y1="474.8883" y2="474.8883"/><line style="stroke:#181818;stroke-width:0.5;" x1="99.5" x2="228.5" y1="482.8883" y2="482.8883"/></g><!--class EP_EditorMode--><g id="elem_EP_EditorMode"><rect codeLine="22" fill="#F1F1F1" height="80.9766" id="EP_EditorMode" rx="2.5" ry="2.5" style="stroke:#181818;stroke-width:0.5;" width="205" x="307.5" y="426.3983"/><ellipse cx="354.75" cy="442.3983" fill="#ADD1B2" rx="11" ry="11" style="stroke:#181818;stroke-width:1.0;"/><path d="M357.2231,448.5413 Q356.6421,448.8402 356.0029,448.9896 Q355.3638,449.139 354.6582,449.139 Q352.1514,449.139 350.8315,447.4871 Q349.5117,445.8353 349.5117,442.7142 Q349.5117,439.5848 350.8315,437.9329 Q352.1514,436.2811 354.6582,436.2811 Q355.3638,436.2811 356.0112,436.4305 Q356.6587,436.5799 357.2231,436.8787 L357.2231,439.6014 Q356.5923,439.0204 355.9988,438.7506 Q355.4053,438.4808 354.7744,438.4808 Q353.4297,438.4808 352.7449,439.5475 Q352.0601,440.6141 352.0601,442.7142 Q352.0601,444.806 352.7449,445.8726 Q353.4297,446.9393 354.7744,446.9393 Q355.4053,446.9393 355.9988,446.6695 Q356.5923,446.3997 357.2231,445.8187 Z " fill="#000000"/><text fill="#000000" font-family="sans-serif" font-size="14" lengthAdjust="spacing" textLength="102" x="375.25" y="447.6893">EP_EditorMode</text><line style="stroke:#181818;stroke-width:0.5;" x1="308.5" x2="511.5" y1="458.3983" y2="458.3983"/><rect fill="none" height="6" style="stroke:#C82930;stroke-width:1.0;" width="6" x="315.5" y="469.1424"/><text fill="#000000" font-family="sans-serif" font-size="14" lengthAdjust="spacing" textLength="100" x="327.5" y="475.9334">level : EP_Level</text><rect fill="none" height="6" style="stroke:#C82930;stroke-width:1.0;" width="6" x="315.5" y="485.6307"/><text fill="#000000" font-family="sans-serif" font-size="14" lengthAdjust="spacing" textLength="179" x="327.5" y="492.4217">sidebar : EP_EditorSidebar</text><line style="stroke:#181818;stroke-width:0.5;" x1="308.5" x2="511.5" y1="499.3748" y2="499.3748"/></g><!--class EP_PlayMode--><g id="elem_EP_PlayMode"><rect codeLine="27" fill="#F1F1F1" height="113.9531" id="EP_PlayMode" rx="2.5" ry="2.5" style="stroke:#181818;stroke-width:0.5;" width="341" x="547.5" y="409.9083"/><ellipse cx="669.75" cy="425.9083" fill="#ADD1B2" rx="11" ry="11" style="stroke:#181818;stroke-width:1.0;"/><path d="M672.2231,432.0513 Q671.6421,432.3502 671.0029,432.4996 Q670.3638,432.649 669.6582,432.649 Q667.1514,432.649 665.8315,430.9971 Q664.5117,429.3453 664.5117,426.2242 Q664.5117,423.0948 665.8315,421.4429 Q667.1514,419.7911 669.6582,419.7911 Q670.3638,419.7911 671.0112,419.9405 Q671.6587,420.0899 672.2231,420.3887 L672.2231,423.1114 Q671.5923,422.5304 670.9988,422.2606 Q670.4053,421.9908 669.7744,421.9908 Q668.4297,421.9908 667.7449,423.0575 Q667.0601,424.1241 667.0601,426.2242 Q667.0601,428.316 667.7449,429.3826 Q668.4297,430.4493 669.7744,430.4493 Q670.4053,430.4493 670.9988,430.1795 Q671.5923,429.9097 672.2231,429.3287 Z " fill="#000000"/><text fill="#000000" font-family="sans-serif" font-size="14" lengthAdjust="spacing" textLength="88" x="690.25" y="431.1993">EP_PlayMode</text><line style="stroke:#181818;stroke-width:0.5;" x1="548.5" x2="887.5" y1="441.9083" y2="441.9083"/><rect fill="none" height="6" style="stroke:#C82930;stroke-width:1.0;" width="6" x="555.5" y="452.6524"/><text fill="#000000" font-family="sans-serif" font-size="14" lengthAdjust="spacing" textLength="100" x="567.5" y="459.4434">level : EP_Level</text><rect fill="none" height="6" style="stroke:#C82930;stroke-width:1.0;" width="6" x="555.5" y="469.1407"/><text fill="#000000" font-family="sans-serif" font-size="14" lengthAdjust="spacing" textLength="165" x="567.5" y="475.9317">sidebar : EP_PlaySidebar</text><rect fill="none" height="6" style="stroke:#C82930;stroke-width:1.0;" width="6" x="555.5" y="485.629"/><text fill="#000000" font-family="sans-serif" font-size="14" lengthAdjust="spacing" textLength="266" x="567.5" y="492.42">gameManager : EP_NotAGameManager</text><rect fill="none" height="6" style="stroke:#C82930;stroke-width:1.0;" width="6" x="555.5" y="502.1173"/><text fill="#000000" font-family="sans-serif" font-size="14" lengthAdjust="spacing" textLength="315" x="567.5" y="508.9083">enemyWaveManager : EP_EnemyWaveManager</text><line style="stroke:#181818;stroke-width:0.5;" x1="548.5" x2="887.5" y1="515.8614" y2="515.8614"/></g><!--class EP_LevelManager--><g id="elem_EP_LevelManager"><rect fill="#F1F1F1" height="48" id="EP_LevelManager" rx="2.5" ry="2.5" style="stroke:#181818;stroke-width:0.5;" width="149" x="778.5" y="285.4183"/><ellipse cx="793.5" cy="301.4183" fill="#ADD1B2" rx="11" ry="11" style="stroke:#181818;stroke-width:1.0;"/><path d="M795.9731,307.5613 Q795.3921,307.8602 794.7529,308.0096 Q794.1138,308.159 793.4082,308.159 Q790.9014,308.159 789.5815,306.5071 Q788.2617,304.8553 788.2617,301.7342 Q788.2617,298.6048 789.5815,296.9529 Q790.9014,295.3011 793.4082,295.3011 Q794.1138,295.3011 794.7612,295.4505 Q795.4087,295.5999 795.9731,295.8987 L795.9731,298.6214 Q795.3423,298.0404 794.7488,297.7706 Q794.1553,297.5008 793.5244,297.5008 Q792.1797,297.5008 791.4949,298.5675 Q790.8101,299.6341 790.8101,301.7342 Q790.8101,303.826 791.4949,304.8926 Q792.1797,305.9593 793.5244,305.9593 Q794.1553,305.9593 794.7488,305.6895 Q795.3423,305.4197 795.9731,304.8387 Z " fill="#000000"/><text fill="#000000" font-family="sans-serif" font-size="14" lengthAdjust="spacing" textLength="117" x="807.5" y="306.7093">EP_LevelManager</text><line style="stroke:#181818;stroke-width:0.5;" x1="779.5" x2="926.5" y1="317.4183" y2="317.4183"/><line style="stroke:#181818;stroke-width:0.5;" x1="779.5" x2="926.5" y1="325.4183" y2="325.4183"/></g><!--class EP_Level--><g id="elem_EP_Level"><rect codeLine="41" fill="#F1F1F1" height="80.9766" id="EP_Level" rx="2.5" ry="2.5" style="stroke:#181818;stroke-width:0.5;" width="160" x="565" y="724.8383"/><ellipse cx="612.25" cy="740.8383" fill="#ADD1B2" rx="11" ry="11" style="stroke:#181818;stroke-width:1.0;"/><path d="M614.7231,746.9813 Q614.1421,747.2802 613.5029,747.4296 Q612.8638,747.579 612.1582,747.579 Q609.6514,747.579 608.3315,745.9271 Q607.0117,744.2753 607.0117,741.1542 Q607.0117,738.0248 608.3315,736.3729 Q609.6514,734.7211 612.1582,734.7211 Q612.8638,734.7211 613.5112,734.8705 Q614.1587,735.0199 614.7231,735.3187 L614.7231,738.0414 Q614.0923,737.4604 613.4988,737.1906 Q612.9053,736.9208 612.2744,736.9208 Q610.9297,736.9208 610.2449,737.9875 Q609.5601,739.0541 609.5601,741.1542 Q609.5601,743.246 610.2449,744.3126 Q610.9297,745.3793 612.2744,745.3793 Q612.9053,745.3793 613.4988,745.1095 Q614.0923,744.8397 614.7231,744.2587 Z " fill="#000000"/><text fill="#000000" font-family="sans-serif" font-size="14" lengthAdjust="spacing" textLength="57" x="632.75" y="746.1293">EP_Level</text><line style="stroke:#181818;stroke-width:0.5;" x1="566" x2="724" y1="756.8383" y2="756.8383"/><rect fill="none" height="6" style="stroke:#C82930;stroke-width:1.0;" width="6" x="573" y="767.5824"/><text fill="#000000" font-family="sans-serif" font-size="14" lengthAdjust="spacing" textLength="116" x="585" y="774.3734">board : EP_Board</text><rect fill="none" height="6" style="stroke:#C82930;stroke-width:1.0;" width="6" x="573" y="784.0707"/><text fill="#000000" font-family="sans-serif" font-size="14" lengthAdjust="spacing" textLength="134" x="585" y="790.8617">stages : EP_Stage[*]</text><line style="stroke:#181818;stroke-width:0.5;" x1="566" x2="724" y1="797.8148" y2="797.8148"/></g><!--class EP_Level_1--><g id="elem_EP_Level_1"><rect codeLine="46" fill="#F1F1F1" height="48" id="EP_Level_1" rx="2.5" ry="2.5" style="stroke:#181818;stroke-width:0.5;" width="105" x="84.5" y="119.7183"/><ellipse cx="99.5" cy="135.7183" fill="#ADD1B2" rx="11" ry="11" style="stroke:#181818;stroke-width:1.0;"/><path d="M101.9731,141.8613 Q101.3921,142.1602 100.7529,142.3096 Q100.1138,142.459 99.4082,142.459 Q96.9014,142.459 95.5815,140.8071 Q94.2617,139.1553 94.2617,136.0342 Q94.2617,132.9048 95.5815,131.2529 Q96.9014,129.6011 99.4082,129.6011 Q100.1138,129.6011 100.7612,129.7505 Q101.4087,129.8999 101.9731,130.1988 L101.9731,132.9214 Q101.3423,132.3404 100.7488,132.0706 Q100.1553,131.8008 99.5244,131.8008 Q98.1797,131.8008 97.4949,132.8675 Q96.8101,133.9341 96.8101,136.0342 Q96.8101,138.126 97.4949,139.1926 Q98.1797,140.2593 99.5244,140.2593 Q100.1553,140.2593 100.7488,139.9895 Q101.3423,139.7197 101.9731,139.1387 Z " fill="#000000"/><text fill="#000000" font-family="sans-serif" font-size="14" lengthAdjust="spacing" textLength="73" x="113.5" y="141.0093">EP_Level_1</text><line style="stroke:#181818;stroke-width:0.5;" x1="85.5" x2="188.5" y1="151.7183" y2="151.7183"/><line style="stroke:#181818;stroke-width:0.5;" x1="85.5" x2="188.5" y1="159.7183" y2="159.7183"/></g><!--class EP_Level_2--><g id="elem_EP_Level_2"><rect codeLine="47" fill="#F1F1F1" height="48" id="EP_Level_2" rx="2.5" ry="2.5" style="stroke:#181818;stroke-width:0.5;" width="105" x="224.5" y="119.7183"/><ellipse cx="239.5" cy="135.7183" fill="#ADD1B2" rx="11" ry="11" style="stroke:#181818;stroke-width:1.0;"/><path d="M241.9731,141.8613 Q241.3921,142.1602 240.7529,142.3096 Q240.1138,142.459 239.4082,142.459 Q236.9014,142.459 235.5815,140.8071 Q234.2617,139.1553 234.2617,136.0342 Q234.2617,132.9048 235.5815,131.2529 Q236.9014,129.6011 239.4082,129.6011 Q240.1138,129.6011 240.7612,129.7505 Q241.4087,129.8999 241.9731,130.1988 L241.9731,132.9214 Q241.3423,132.3404 240.7488,132.0706 Q240.1553,131.8008 239.5244,131.8008 Q238.1797,131.8008 237.4949,132.8675 Q236.8101,133.9341 236.8101,136.0342 Q236.8101,138.126 237.4949,139.1926 Q238.1797,140.2593 239.5244,140.2593 Q240.1553,140.2593 240.7488,139.9895 Q241.3423,139.7197 241.9731,139.1387 Z " fill="#000000"/><text fill="#000000" font-family="sans-serif" font-size="14" lengthAdjust="spacing" textLength="73" x="253.5" y="141.0093">EP_Level_2</text><line style="stroke:#181818;stroke-width:0.5;" x1="225.5" x2="328.5" y1="151.7183" y2="151.7183"/><line style="stroke:#181818;stroke-width:0.5;" x1="225.5" x2="328.5" y1="159.7183" y2="159.7183"/></g><!--class EP_Board--><g id="elem_EP_Board"><rect codeLine="51" fill="#F1F1F1" height="97.4648" id="EP_Board" rx="2.5" ry="2.5" style="stroke:#181818;stroke-width:0.5;" width="373" x="323.5" y="865.8183"/><ellipse cx="474.25" cy="881.8183" fill="#ADD1B2" rx="11" ry="11" style="stroke:#181818;stroke-width:1.0;"/><path d="M476.7231,887.9613 Q476.1421,888.2602 475.5029,888.4096 Q474.8638,888.559 474.1582,888.559 Q471.6514,888.559 470.3315,886.9071 Q469.0117,885.2553 469.0117,882.1342 Q469.0117,879.0048 470.3315,877.3529 Q471.6514,875.7011 474.1582,875.7011 Q474.8638,875.7011 475.5112,875.8505 Q476.1587,875.9999 476.7231,876.2987 L476.7231,879.0214 Q476.0923,878.4404 475.4988,878.1706 Q474.9053,877.9008 474.2744,877.9008 Q472.9297,877.9008 472.2449,878.9675 Q471.5601,880.0341 471.5601,882.1342 Q471.5601,884.226 472.2449,885.2926 Q472.9297,886.3593 474.2744,886.3593 Q474.9053,886.3593 475.4988,886.0895 Q476.0923,885.8197 476.7231,885.2387 Z " fill="#000000"/><text fill="#000000" font-family="sans-serif" font-size="14" lengthAdjust="spacing" textLength="63" x="494.75" y="887.1093">EP_Board</text><line style="stroke:#181818;stroke-width:0.5;" x1="324.5" x2="695.5" y1="897.8183" y2="897.8183"/><rect fill="none" height="6" style="stroke:#C82930;stroke-width:1.0;" width="6" x="331.5" y="908.5624"/><text fill="#000000" font-family="sans-serif" font-size="14" lengthAdjust="spacing" textLength="154" x="343.5" y="915.3534">tiles : Matrix of EP_Tile</text><rect fill="none" height="6" style="stroke:#C82930;stroke-width:1.0;" width="6" x="331.5" y="925.0507"/><text fill="#000000" font-family="sans-serif" font-size="14" lengthAdjust="spacing" textLength="61" x="343.5" y="931.8417">manager</text><rect fill="none" height="6" style="stroke:#C82930;stroke-width:1.0;" width="6" x="331.5" y="941.539"/><text fill="#000000" font-family="sans-serif" font-size="14" lengthAdjust="spacing" textLength="347" x="343.5" y="948.33">towerPlacementPopUp : EP_TowerPlacementPopUp</text><line style="stroke:#181818;stroke-width:0.5;" x1="324.5" x2="695.5" y1="955.2831" y2="955.2831"/></g><!--class EP_Tile--><g id="elem_EP_Tile"><rect codeLine="57" fill="#F1F1F1" height="97.4648" id="EP_Tile" rx="2.5" ry="2.5" style="stroke:#181818;stroke-width:0.5;" width="155" x="1144.5" y="865.8183"/><ellipse cx="1193.75" cy="881.8183" fill="#ADD1B2" rx="11" ry="11" style="stroke:#181818;stroke-width:1.0;"/><path d="M1196.2231,887.9613 Q1195.6421,888.2602 1195.0029,888.4096 Q1194.3638,888.559 1193.6582,888.559 Q1191.1514,888.559 1189.8315,886.9071 Q1188.5117,885.2553 1188.5117,882.1342 Q1188.5117,879.0048 1189.8315,877.3529 Q1191.1514,875.7011 1193.6582,875.7011 Q1194.3638,875.7011 1195.0112,875.8505 Q1195.6587,875.9999 1196.2231,876.2987 L1196.2231,879.0214 Q1195.5923,878.4404 1194.9988,878.1706 Q1194.4053,877.9008 1193.7744,877.9008 Q1192.4297,877.9008 1191.7449,878.9675 Q1191.0601,880.0341 1191.0601,882.1342 Q1191.0601,884.226 1191.7449,885.2926 Q1192.4297,886.3593 1193.7744,886.3593 Q1194.4053,886.3593 1194.9988,886.0895 Q1195.5923,885.8197 1196.2231,885.2387 Z " fill="#000000"/><text fill="#000000" font-family="sans-serif" font-size="14" lengthAdjust="spacing" textLength="48" x="1214.25" y="887.1093">EP_Tile</text><line style="stroke:#181818;stroke-width:0.5;" x1="1145.5" x2="1298.5" y1="897.8183" y2="897.8183"/><rect fill="none" height="6" style="stroke:#C82930;stroke-width:1.0;" width="6" x="1152.5" y="908.5624"/><text fill="#000000" font-family="sans-serif" font-size="14" lengthAdjust="spacing" textLength="116" x="1164.5" y="915.3534">board : EP_Board</text><rect fill="none" height="6" style="stroke:#C82930;stroke-width:1.0;" width="6" x="1152.5" y="925.0507"/><text fill="#000000" font-family="sans-serif" font-size="14" lengthAdjust="spacing" textLength="129" x="1164.5" y="931.8417">occupied : Boolean</text><rect fill="none" height="6" style="stroke:#C82930;stroke-width:1.0;" width="6" x="1152.5" y="941.539"/><text fill="#000000" font-family="sans-serif" font-size="14" lengthAdjust="spacing" textLength="112" x="1164.5" y="948.33">locked : Boolean</text><line style="stroke:#181818;stroke-width:0.5;" x1="1145.5" x2="1298.5" y1="955.2831" y2="955.2831"/></g><!--class EP_EditorTile--><g id="elem_EP_EditorTile"><rect codeLine="63" fill="#F1F1F1" height="48" id="EP_EditorTile" rx="2.5" ry="2.5" style="stroke:#181818;stroke-width:0.5;" width="121" x="1175.5" y="1039.7683"/><ellipse cx="1190.5" cy="1055.7683" fill="#ADD1B2" rx="11" ry="11" style="stroke:#181818;stroke-width:1.0;"/><path d="M1192.9731,1061.9113 Q1192.3921,1062.2102 1191.7529,1062.3596 Q1191.1138,1062.509 1190.4082,1062.509 Q1187.9014,1062.509 1186.5815,1060.8571 Q1185.2617,1059.2053 1185.2617,1056.0842 Q1185.2617,1052.9548 1186.5815,1051.3029 Q1187.9014,1049.6511 1190.4082,1049.6511 Q1191.1138,1049.6511 1191.7612,1049.8005 Q1192.4087,1049.9499 1192.9731,1050.2488 L1192.9731,1052.9714 Q1192.3423,1052.3904 1191.7488,1052.1206 Q1191.1553,1051.8508 1190.5244,1051.8508 Q1189.1797,1051.8508 1188.4949,1052.9175 Q1187.8101,1053.9841 1187.8101,1056.0842 Q1187.8101,1058.176 1188.4949,1059.2426 Q1189.1797,1060.3093 1190.5244,1060.3093 Q1191.1553,1060.3093 1191.7488,1060.0395 Q1192.3423,1059.7697 1192.9731,1059.1887 Z " fill="#000000"/><text fill="#000000" font-family="sans-serif" font-size="14" lengthAdjust="spacing" textLength="89" x="1204.5" y="1061.0593">EP_EditorTile</text><line style="stroke:#181818;stroke-width:0.5;" x1="1176.5" x2="1295.5" y1="1071.7683" y2="1071.7683"/><line style="stroke:#181818;stroke-width:0.5;" x1="1176.5" x2="1295.5" y1="1079.7683" y2="1079.7683"/></g><!--class EP_PlayTile--><g id="elem_EP_PlayTile"><rect codeLine="64" fill="#F1F1F1" height="48" id="EP_PlayTile" rx="2.5" ry="2.5" style="stroke:#181818;stroke-width:0.5;" width="107" x="1033.5" y="1039.7683"/><ellipse cx="1048.5" cy="1055.7683" fill="#ADD1B2" rx="11" ry="11" style="stroke:#181818;stroke-width:1.0;"/><path d="M1050.9731,1061.9113 Q1050.3921,1062.2102 1049.7529,1062.3596 Q1049.1138,1062.509 1048.4082,1062.509 Q1045.9014,1062.509 1044.5815,1060.8571 Q1043.2617,1059.2053 1043.2617,1056.0842 Q1043.2617,1052.9548 1044.5815,1051.3029 Q1045.9014,1049.6511 1048.4082,1049.6511 Q1049.1138,1049.6511 1049.7612,1049.8005 Q1050.4087,1049.9499 1050.9731,1050.2488 L1050.9731,1052.9714 Q1050.3423,1052.3904 1049.7488,1052.1206 Q1049.1553,1051.8508 1048.5244,1051.8508 Q1047.1797,1051.8508 1046.4949,1052.9175 Q1045.8101,1053.9841 1045.8101,1056.0842 Q1045.8101,1058.176 1046.4949,1059.2426 Q1047.1797,1060.3093 1048.5244,1060.3093 Q1049.1553,1060.3093 1049.7488,1060.0395 Q1050.3423,1059.7697 1050.9731,1059.1887 Z " fill="#000000"/><text fill="#000000" font-family="sans-serif" font-size="14" lengthAdjust="spacing" textLength="75" x="1062.5" y="1061.0593">EP_PlayTile</text><line style="stroke:#181818;stroke-width:0.5;" x1="1034.5" x2="1139.5" y1="1071.7683" y2="1071.7683"/><line style="stroke:#181818;stroke-width:0.5;" x1="1034.5" x2="1139.5" y1="1079.7683" y2="1079.7683"/></g><!--class EP_Stage--><g id="elem_EP_Stage"><rect codeLine="72" fill="#F1F1F1" height="64.4883" id="EP_Stage" rx="2.5" ry="2.5" style="stroke:#181818;stroke-width:0.5;" width="199" x="89.5" y="882.3083"/><ellipse cx="154.25" cy="898.3083" fill="#ADD1B2" rx="11" ry="11" style="stroke:#181818;stroke-width:1.0;"/><path d="M156.7231,904.4513 Q156.1421,904.7502 155.5029,904.8996 Q154.8638,905.049 154.1582,905.049 Q151.6514,905.049 150.3315,903.3971 Q149.0117,901.7453 149.0117,898.6242 Q149.0117,895.4948 150.3315,893.8429 Q151.6514,892.1911 154.1582,892.1911 Q154.8638,892.1911 155.5112,892.3405 Q156.1587,892.4899 156.7231,892.7887 L156.7231,895.5114 Q156.0923,894.9304 155.4988,894.6606 Q154.9053,894.3908 154.2744,894.3908 Q152.9297,894.3908 152.2449,895.4575 Q151.5601,896.5241 151.5601,898.6242 Q151.5601,900.716 152.2449,901.7826 Q152.9297,902.8493 154.2744,902.8493 Q154.9053,902.8493 155.4988,902.5795 Q156.0923,902.3097 156.7231,901.7287 Z " fill="#000000"/><text fill="#000000" font-family="sans-serif" font-size="14" lengthAdjust="spacing" textLength="61" x="174.75" y="903.5993">EP_Stage</text><line style="stroke:#181818;stroke-width:0.5;" x1="90.5" x2="287.5" y1="914.3083" y2="914.3083"/><rect fill="none" height="6" style="stroke:#C82930;stroke-width:1.0;" width="6" x="97.5" y="925.0524"/><text fill="#000000" font-family="sans-serif" font-size="14" lengthAdjust="spacing" textLength="173" x="109.5" y="931.8434">waves : EP_EnemyWave[*]</text><line style="stroke:#181818;stroke-width:0.5;" x1="90.5" x2="287.5" y1="938.7966" y2="938.7966"/></g><!--class EP_Enemy--><g id="elem_EP_Enemy"><rect codeLine="76" fill="#F1F1F1" height="80.9766" id="EP_Enemy" rx="2.5" ry="2.5" style="stroke:#181818;stroke-width:0.5;" width="341" x="731.5" y="874.0583"/><ellipse cx="863.75" cy="890.0583" fill="#ADD1B2" rx="11" ry="11" style="stroke:#181818;stroke-width:1.0;"/><path d="M866.2231,896.2013 Q865.6421,896.5002 865.0029,896.6496 Q864.3638,896.799 863.6582,896.799 Q861.1514,896.799 859.8315,895.1471 Q858.5117,893.4953 858.5117,890.3742 Q858.5117,887.2448 859.8315,885.5929 Q861.1514,883.9411 863.6582,883.9411 Q864.3638,883.9411 865.0112,884.0905 Q865.6587,884.2399 866.2231,884.5387 L866.2231,887.2614 Q865.5923,886.6804 864.9988,886.4106 Q864.4053,886.1408 863.7744,886.1408 Q862.4297,886.1408 861.7449,887.2075 Q861.0601,888.2741 861.0601,890.3742 Q861.0601,892.466 861.7449,893.5326 Q862.4297,894.5993 863.7744,894.5993 Q864.4053,894.5993 864.9988,894.3295 Q865.5923,894.0597 866.2231,893.4787 Z " fill="#000000"/><text fill="#000000" font-family="sans-serif" font-size="14" lengthAdjust="spacing" textLength="68" x="884.25" y="895.3493">EP_Enemy</text><line style="stroke:#181818;stroke-width:0.5;" x1="732.5" x2="1071.5" y1="906.0583" y2="906.0583"/><rect fill="none" height="6" style="stroke:#C82930;stroke-width:1.0;" width="6" x="739.5" y="916.8024"/><text fill="#000000" font-family="sans-serif" font-size="14" lengthAdjust="spacing" textLength="266" x="751.5" y="923.5934">gameManager : EP_NotAGameManager</text><rect fill="none" height="6" style="stroke:#C82930;stroke-width:1.0;" width="6" x="739.5" y="933.2907"/><text fill="#000000" font-family="sans-serif" font-size="14" lengthAdjust="spacing" textLength="315" x="751.5" y="940.0817">enemyWaveManager : EP_EnemyWaveManager</text><line style="stroke:#181818;stroke-width:0.5;" x1="732.5" x2="1071.5" y1="947.0348" y2="947.0348"/></g><!--class EP_EnemyWave--><g id="elem_EP_EnemyWave"><rect codeLine="81" fill="#F1F1F1" height="64.4883" id="EP_EnemyWave" rx="2.5" ry="2.5" style="stroke:#181818;stroke-width:0.5;" width="341" x="959.5" y="434.6383"/><ellipse cx="1074.25" cy="450.6383" fill="#ADD1B2" rx="11" ry="11" style="stroke:#181818;stroke-width:1.0;"/><path d="M1076.7231,456.7813 Q1076.1421,457.0802 1075.5029,457.2296 Q1074.8638,457.379 1074.1582,457.379 Q1071.6514,457.379 1070.3315,455.7271 Q1069.0117,454.0753 1069.0117,450.9542 Q1069.0117,447.8248 1070.3315,446.1729 Q1071.6514,444.5211 1074.1582,444.5211 Q1074.8638,444.5211 1075.5112,444.6705 Q1076.1587,444.8199 1076.7231,445.1188 L1076.7231,447.8414 Q1076.0923,447.2604 1075.4988,446.9906 Q1074.9053,446.7208 1074.2744,446.7208 Q1072.9297,446.7208 1072.2449,447.7875 Q1071.5601,448.8541 1071.5601,450.9542 Q1071.5601,453.046 1072.2449,454.1126 Q1072.9297,455.1793 1074.2744,455.1793 Q1074.9053,455.1793 1075.4988,454.9095 Q1076.0923,454.6397 1076.7231,454.0587 Z " fill="#000000"/><text fill="#000000" font-family="sans-serif" font-size="14" lengthAdjust="spacing" textLength="103" x="1094.75" y="455.9293">EP_EnemyWave</text><line style="stroke:#181818;stroke-width:0.5;" x1="960.5" x2="1299.5" y1="466.6383" y2="466.6383"/><rect fill="none" height="6" style="stroke:#C82930;stroke-width:1.0;" width="6" x="967.5" y="477.3824"/><text fill="#000000" font-family="sans-serif" font-size="14" lengthAdjust="spacing" textLength="315" x="979.5" y="484.1734">enemyWaveManager : EP_EnemyWaveManager</text><line style="stroke:#181818;stroke-width:0.5;" x1="960.5" x2="1299.5" y1="491.1266" y2="491.1266"/></g><!--class EP_EnemyWaveSpawner--><g id="elem_EP_EnemyWaveSpawner"><rect codeLine="85" fill="#F1F1F1" height="80.9766" id="EP_EnemyWaveSpawner" rx="2.5" ry="2.5" style="stroke:#181818;stroke-width:0.5;" width="292" x="760" y="724.8383"/><ellipse cx="820.75" cy="740.8383" fill="#ADD1B2" rx="11" ry="11" style="stroke:#181818;stroke-width:1.0;"/><path d="M823.2231,746.9813 Q822.6421,747.2802 822.0029,747.4296 Q821.3638,747.579 820.6582,747.579 Q818.1514,747.579 816.8315,745.9271 Q815.5117,744.2753 815.5117,741.1542 Q815.5117,738.0248 816.8315,736.3729 Q818.1514,734.7211 820.6582,734.7211 Q821.3638,734.7211 822.0112,734.8705 Q822.6587,735.0199 823.2231,735.3187 L823.2231,738.0414 Q822.5923,737.4604 821.9988,737.1906 Q821.4053,736.9208 820.7744,736.9208 Q819.4297,736.9208 818.7449,737.9875 Q818.0601,739.0541 818.0601,741.1542 Q818.0601,743.246 818.7449,744.3126 Q819.4297,745.3793 820.7744,745.3793 Q821.4053,745.3793 821.9988,745.1095 Q822.5923,744.8397 823.2231,744.2587 Z " fill="#000000"/><text fill="#000000" font-family="sans-serif" font-size="14" lengthAdjust="spacing" textLength="162" x="841.25" y="746.1293">EP_EnemyWaveSpawner</text><line style="stroke:#181818;stroke-width:0.5;" x1="761" x2="1051" y1="756.8383" y2="756.8383"/><rect fill="none" height="6" style="stroke:#C82930;stroke-width:1.0;" width="6" x="768" y="767.5824"/><text fill="#000000" font-family="sans-serif" font-size="14" lengthAdjust="spacing" textLength="266" x="780" y="774.3734">gameManager : EP_NotAGameManager</text><rect fill="none" height="6" style="stroke:#C82930;stroke-width:1.0;" width="6" x="768" y="784.0707"/><text fill="#000000" font-family="sans-serif" font-size="14" lengthAdjust="spacing" textLength="116" x="780" y="790.8617">board : EP_Board</text><line style="stroke:#181818;stroke-width:0.5;" x1="761" x2="1051" y1="797.8148" y2="797.8148"/></g><!--class EP_EnemyWaveManager--><g id="elem_EP_EnemyWaveManager"><rect codeLine="90" fill="#F1F1F1" height="80.9766" id="EP_EnemyWaveManager" rx="2.5" ry="2.5" style="stroke:#181818;stroke-width:0.5;" width="339" x="961.5" y="583.8683"/><ellipse cx="1045.25" cy="599.8683" fill="#ADD1B2" rx="11" ry="11" style="stroke:#181818;stroke-width:1.0;"/><path d="M1047.7231,606.0113 Q1047.1421,606.3102 1046.5029,606.4596 Q1045.8638,606.609 1045.1582,606.609 Q1042.6514,606.609 1041.3315,604.9571 Q1040.0117,603.3053 1040.0117,600.1842 Q1040.0117,597.0548 1041.3315,595.4029 Q1042.6514,593.7511 1045.1582,593.7511 Q1045.8638,593.7511 1046.5112,593.9005 Q1047.1587,594.0499 1047.7231,594.3488 L1047.7231,597.0714 Q1047.0923,596.4904 1046.4988,596.2206 Q1045.9053,595.9508 1045.2744,595.9508 Q1043.9297,595.9508 1043.2449,597.0175 Q1042.5601,598.0841 1042.5601,600.1842 Q1042.5601,602.276 1043.2449,603.3426 Q1043.9297,604.4093 1045.2744,604.4093 Q1045.9053,604.4093 1046.4988,604.1395 Q1047.0923,603.8697 1047.7231,603.2887 Z " fill="#000000"/><text fill="#000000" font-family="sans-serif" font-size="14" lengthAdjust="spacing" textLength="163" x="1065.75" y="605.1593">EP_EnemyWaveManager</text><line style="stroke:#181818;stroke-width:0.5;" x1="962.5" x2="1299.5" y1="615.8683" y2="615.8683"/><rect fill="none" height="6" style="stroke:#C82930;stroke-width:1.0;" width="6" x="969.5" y="626.6124"/><text fill="#000000" font-family="sans-serif" font-size="14" lengthAdjust="spacing" textLength="100" x="981.5" y="633.4034">level : EP_Level</text><rect fill="none" height="6" style="stroke:#C82930;stroke-width:1.0;" width="6" x="969.5" y="643.1007"/><text fill="#000000" font-family="sans-serif" font-size="14" lengthAdjust="spacing" textLength="313" x="981.5" y="649.8917">enemyWaveSpawner : EP_EnemyWaveSpawner</text><line style="stroke:#181818;stroke-width:0.5;" x1="962.5" x2="1299.5" y1="656.8448" y2="656.8448"/></g><!--class EP_NotAGameManager--><g id="elem_EP_NotAGameManager"><rect codeLine="135" fill="#F1F1F1" height="80.9766" id="EP_NotAGameManager" rx="2.5" ry="2.5" style="stroke:#181818;stroke-width:0.5;" width="188" x="808" y="1023.2783"/><ellipse cx="823" cy="1039.2783" fill="#ADD1B2" rx="11" ry="11" style="stroke:#181818;stroke-width:1.0;"/><path d="M825.4731,1045.4213 Q824.8921,1045.7202 824.2529,1045.8696 Q823.6138,1046.019 822.9082,1046.019 Q820.4014,1046.019 819.0815,1044.3671 Q817.7617,1042.7153 817.7617,1039.5942 Q817.7617,1036.4648 819.0815,1034.8129 Q820.4014,1033.1611 822.9082,1033.1611 Q823.6138,1033.1611 824.2612,1033.3105 Q824.9087,1033.4599 825.4731,1033.7588 L825.4731,1036.4814 Q824.8423,1035.9004 824.2488,1035.6306 Q823.6553,1035.3608 823.0244,1035.3608 Q821.6797,1035.3608 820.9949,1036.4275 Q820.3101,1037.4941 820.3101,1039.5942 Q820.3101,1041.686 820.9949,1042.7526 Q821.6797,1043.8193 823.0244,1043.8193 Q823.6553,1043.8193 824.2488,1043.5495 Q824.8423,1043.2797 825.4731,1042.6987 Z " fill="#000000"/><text fill="#000000" font-family="sans-serif" font-size="14" lengthAdjust="spacing" textLength="156" x="837" y="1044.5693">EP_NotAGameManager</text><line style="stroke:#181818;stroke-width:0.5;" x1="809" x2="995" y1="1055.2783" y2="1055.2783"/><rect fill="none" height="6" style="stroke:#C82930;stroke-width:1.0;" width="6" x="816" y="1066.0224"/><text fill="#000000" font-family="sans-serif" font-size="14" lengthAdjust="spacing" textLength="120" x="828" y="1072.8134">balance : Number</text><rect fill="none" height="6" style="stroke:#C82930;stroke-width:1.0;" width="6" x="816" y="1082.5107"/><text fill="#000000" font-family="sans-serif" font-size="14" lengthAdjust="spacing" textLength="97" x="828" y="1089.3017">lives : Number</text><line style="stroke:#181818;stroke-width:0.5;" x1="809" x2="995" y1="1096.2548" y2="1096.2548"/></g><!--class EP_Tower--><g id="elem_EP_Tower"><rect codeLine="104" fill="#F1F1F1" height="80.9766" id="EP_Tower" rx="2.5" ry="2.5" style="stroke:#181818;stroke-width:0.5;" width="142" x="66" y="268.9383"/><ellipse cx="100.8" cy="284.9383" fill="#ADD1B2" rx="11" ry="11" style="stroke:#181818;stroke-width:1.0;"/><path d="M103.2731,291.0813 Q102.6921,291.3802 102.0529,291.5296 Q101.4138,291.679 100.7082,291.679 Q98.2014,291.679 96.8815,290.0271 Q95.5617,288.3753 95.5617,285.2542 Q95.5617,282.1248 96.8815,280.4729 Q98.2014,278.8211 100.7082,278.8211 Q101.4138,278.8211 102.0612,278.9705 Q102.7087,279.1199 103.2731,279.4187 L103.2731,282.1414 Q102.6423,281.5604 102.0488,281.2906 Q101.4553,281.0208 100.8244,281.0208 Q99.4797,281.0208 98.7949,282.0875 Q98.1101,283.1541 98.1101,285.2542 Q98.1101,287.346 98.7949,288.4126 Q99.4797,289.4793 100.8244,289.4793 Q101.4553,289.4793 102.0488,289.2095 Q102.6423,288.9397 103.2731,288.3587 Z " fill="#000000"/><text fill="#000000" font-family="sans-serif" font-size="14" lengthAdjust="spacing" textLength="66" x="119.2" y="290.2293">EP_Tower</text><line style="stroke:#181818;stroke-width:0.5;" x1="67" x2="207" y1="300.9383" y2="300.9383"/><rect fill="none" height="6" style="stroke:#C82930;stroke-width:1.0;" width="6" x="74" y="311.6824"/><text fill="#000000" font-family="sans-serif" font-size="14" lengthAdjust="spacing" textLength="81" x="86" y="318.4734">tile : EP_Tile</text><rect fill="none" height="6" style="stroke:#C82930;stroke-width:1.0;" width="6" x="74" y="328.1707"/><text fill="#000000" font-family="sans-serif" font-size="14" lengthAdjust="spacing" textLength="116" x="86" y="334.9617">board : EP_Board</text><line style="stroke:#181818;stroke-width:0.5;" x1="67" x2="207" y1="341.9148" y2="341.9148"/></g><!--class EP_TowerPlacementPopUp--><g id="elem_EP_TowerPlacementPopUp"><rect codeLine="109" fill="#F1F1F1" height="80.9766" id="EP_TowerPlacementPopUp" rx="2.5" ry="2.5" style="stroke:#181818;stroke-width:0.5;" width="213" x="1087.5" y="724.8383"/><ellipse cx="1102.5" cy="740.8383" fill="#ADD1B2" rx="11" ry="11" style="stroke:#181818;stroke-width:1.0;"/><path d="M1104.9731,746.9813 Q1104.3921,747.2802 1103.7529,747.4296 Q1103.1138,747.579 1102.4082,747.579 Q1099.9014,747.579 1098.5815,745.9271 Q1097.2617,744.2753 1097.2617,741.1542 Q1097.2617,738.0248 1098.5815,736.3729 Q1099.9014,734.7211 1102.4082,734.7211 Q1103.1138,734.7211 1103.7612,734.8705 Q1104.4087,735.0199 1104.9731,735.3187 L1104.9731,738.0414 Q1104.3423,737.4604 1103.7488,737.1906 Q1103.1553,736.9208 1102.5244,736.9208 Q1101.1797,736.9208 1100.4949,737.9875 Q1099.8101,739.0541 1099.8101,741.1542 Q1099.8101,743.246 1100.4949,744.3126 Q1101.1797,745.3793 1102.5244,745.3793 Q1103.1553,745.3793 1103.7488,745.1095 Q1104.3423,744.8397 1104.9731,744.2587 Z " fill="#000000"/><text fill="#000000" font-family="sans-serif" font-size="14" lengthAdjust="spacing" textLength="181" x="1116.5" y="746.1293">EP_TowerPlacementPopUp</text><line style="stroke:#181818;stroke-width:0.5;" x1="1088.5" x2="1299.5" y1="756.8383" y2="756.8383"/><rect fill="none" height="6" style="stroke:#C82930;stroke-width:1.0;" width="6" x="1095.5" y="767.5824"/><text fill="#000000" font-family="sans-serif" font-size="14" lengthAdjust="spacing" textLength="81" x="1107.5" y="774.3734">tile : EP_Tile</text><rect fill="none" height="6" style="stroke:#C82930;stroke-width:1.0;" width="6" x="1095.5" y="784.0707"/><text fill="#000000" font-family="sans-serif" font-size="14" lengthAdjust="spacing" textLength="116" x="1107.5" y="790.8617">board : EP_Board</text><line style="stroke:#181818;stroke-width:0.5;" x1="1088.5" x2="1299.5" y1="797.8148" y2="797.8148"/></g><!--class EP_Sidebar--><g id="elem_EP_Sidebar"><rect codeLine="117" fill="#F1F1F1" height="64.4883" id="EP_Sidebar" rx="2.5" ry="2.5" style="stroke:#181818;stroke-width:0.5;" width="199" x="245.5" y="733.0883"/><ellipse cx="303.25" cy="749.0883" fill="#ADD1B2" rx="11" ry="11" style="stroke:#181818;stroke-width:1.0;"/><path d="M305.7231,755.2313 Q305.1421,755.5302 304.5029,755.6796 Q303.8638,755.829 303.1582,755.829 Q300.6514,755.829 299.3315,754.1771 Q298.0117,752.5253 298.0117,749.4042 Q298.0117,746.2748 299.3315,744.6229 Q300.6514,742.9711 303.1582,742.9711 Q303.8638,742.9711 304.5112,743.1205 Q305.1587,743.2699 305.7231,743.5687 L305.7231,746.2914 Q305.0923,745.7104 304.4988,745.4406 Q303.9053,745.1708 303.2744,745.1708 Q301.9297,745.1708 301.2449,746.2375 Q300.5601,747.3041 300.5601,749.4042 Q300.5601,751.496 301.2449,752.5626 Q301.9297,753.6293 303.2744,753.6293 Q303.9053,753.6293 304.4988,753.3595 Q305.0923,753.0897 305.7231,752.5087 Z " fill="#000000"/><text fill="#000000" font-family="sans-serif" font-size="14" lengthAdjust="spacing" textLength="75" x="323.75" y="754.3793">EP_Sidebar</text><line style="stroke:#181818;stroke-width:0.5;" x1="246.5" x2="443.5" y1="765.0883" y2="765.0883"/><rect fill="none" height="6" style="stroke:#C82930;stroke-width:1.0;" width="6" x="253.5" y="775.8324"/><text fill="#000000" font-family="sans-serif" font-size="14" lengthAdjust="spacing" textLength="173" x="265.5" y="782.6234">manager : EP_GameMode</text><line style="stroke:#181818;stroke-width:0.5;" x1="246.5" x2="443.5" y1="789.5766" y2="789.5766"/></g><!--class EP_EditorSidebar--><g id="elem_EP_EditorSidebar"><rect codeLine="121" fill="#F1F1F1" height="48" id="EP_EditorSidebar" rx="2.5" ry="2.5" style="stroke:#181818;stroke-width:0.5;" width="148" x="255" y="600.3483"/><ellipse cx="270" cy="616.3483" fill="#ADD1B2" rx="11" ry="11" style="stroke:#181818;stroke-width:1.0;"/><path d="M272.4731,622.4913 Q271.8921,622.7902 271.2529,622.9396 Q270.6138,623.089 269.9082,623.089 Q267.4014,623.089 266.0815,621.4371 Q264.7617,619.7853 264.7617,616.6642 Q264.7617,613.5348 266.0815,611.8829 Q267.4014,610.2311 269.9082,610.2311 Q270.6138,610.2311 271.2612,610.3805 Q271.9087,610.5299 272.4731,610.8288 L272.4731,613.5514 Q271.8423,612.9704 271.2488,612.7006 Q270.6553,612.4308 270.0244,612.4308 Q268.6797,612.4308 267.9949,613.4975 Q267.3101,614.5641 267.3101,616.6642 Q267.3101,618.756 267.9949,619.8226 Q268.6797,620.8893 270.0244,620.8893 Q270.6553,620.8893 271.2488,620.6195 Q271.8423,620.3497 272.4731,619.7687 Z " fill="#000000"/><text fill="#000000" font-family="sans-serif" font-size="14" lengthAdjust="spacing" textLength="116" x="284" y="621.6393">EP_EditorSidebar</text><line style="stroke:#181818;stroke-width:0.5;" x1="256" x2="402" y1="632.3483" y2="632.3483"/><line style="stroke:#181818;stroke-width:0.5;" x1="256" x2="402" y1="640.3483" y2="640.3483"/></g><!--class EP_PlaySidebar--><g id="elem_EP_PlaySidebar"><rect codeLine="122" fill="#F1F1F1" height="64.4883" id="EP_PlaySidebar" rx="2.5" ry="2.5" style="stroke:#181818;stroke-width:0.5;" width="341" x="438.5" y="592.1083"/><ellipse cx="553.75" cy="608.1083" fill="#ADD1B2" rx="11" ry="11" style="stroke:#181818;stroke-width:1.0;"/><path d="M556.2231,614.2513 Q555.6421,614.5502 555.0029,614.6996 Q554.3638,614.849 553.6582,614.849 Q551.1514,614.849 549.8315,613.1971 Q548.5117,611.5453 548.5117,608.4242 Q548.5117,605.2948 549.8315,603.6429 Q551.1514,601.9911 553.6582,601.9911 Q554.3638,601.9911 555.0112,602.1405 Q555.6587,602.2899 556.2231,602.5888 L556.2231,605.3114 Q555.5923,604.7304 554.9988,604.4606 Q554.4053,604.1908 553.7744,604.1908 Q552.4297,604.1908 551.7449,605.2575 Q551.0601,606.3241 551.0601,608.4242 Q551.0601,610.516 551.7449,611.5826 Q552.4297,612.6493 553.7744,612.6493 Q554.4053,612.6493 554.9988,612.3795 Q555.5923,612.1097 556.2231,611.5287 Z " fill="#000000"/><text fill="#000000" font-family="sans-serif" font-size="14" lengthAdjust="spacing" textLength="102" x="574.25" y="613.3993">EP_PlaySidebar</text><line style="stroke:#181818;stroke-width:0.5;" x1="439.5" x2="778.5" y1="624.1083" y2="624.1083"/><rect fill="none" height="6" style="stroke:#C82930;stroke-width:1.0;" width="6" x="446.5" y="634.8524"/><text fill="#000000" font-family="sans-serif" font-size="14" lengthAdjust="spacing" textLength="315" x="458.5" y="641.6434">enemyWaveManager : EP_EnemyWaveManager</text><line style="stroke:#181818;stroke-width:0.5;" x1="439.5" x2="778.5" y1="648.5966" y2="648.5966"/></g><!--class EP_Menu--><g id="elem_EP_Menu"><rect codeLine="129" fill="#F1F1F1" height="64.4883" id="EP_Menu" rx="2.5" ry="2.5" style="stroke:#181818;stroke-width:0.5;" width="198" x="22" y="592.1083"/><ellipse cx="86.25" cy="608.1083" fill="#ADD1B2" rx="11" ry="11" style="stroke:#181818;stroke-width:1.0;"/><path d="M88.7231,614.2513 Q88.1421,614.5502 87.5029,614.6996 Q86.8638,614.849 86.1582,614.849 Q83.6514,614.849 82.3315,613.1971 Q81.0117,611.5453 81.0117,608.4242 Q81.0117,605.2948 82.3315,603.6429 Q83.6514,601.9911 86.1582,601.9911 Q86.8638,601.9911 87.5112,602.1405 Q88.1587,602.2899 88.7231,602.5888 L88.7231,605.3114 Q88.0923,604.7304 87.4988,604.4606 Q86.9053,604.1908 86.2744,604.1908 Q84.9297,604.1908 84.2449,605.2575 Q83.5601,606.3241 83.5601,608.4242 Q83.5601,610.516 84.2449,611.5826 Q84.9297,612.6493 86.2744,612.6493 Q86.9053,612.6493 87.4988,612.3795 Q88.0923,612.1097 88.7231,611.5287 Z " fill="#000000"/><text fill="#000000" font-family="sans-serif" font-size="14" lengthAdjust="spacing" textLength="61" x="106.75" y="613.3993">EP_Menu</text><line style="stroke:#181818;stroke-width:0.5;" x1="23" x2="219" y1="624.1083" y2="624.1083"/><rect fill="none" height="6" style="stroke:#C82930;stroke-width:1.0;" width="6" x="30" y="634.8524"/><text fill="#000000" font-family="sans-serif" font-size="14" lengthAdjust="spacing" textLength="172" x="42" y="641.6434">manager : EP_MenuMode</text><line style="stroke:#181818;stroke-width:0.5;" x1="23" x2="219" y1="648.5966" y2="648.5966"/></g><!--reverse link EP_GameMode to EP_MenuMode--><g id="link_EP_GameMode_EP_MenuMode"><path codeLine="34" d="M382.879,358.2047 C323.449,387.4447 260.92,418.2083 211.37,442.5783 " fill="none" id="EP_GameMode-backto-EP_MenuMode" style="stroke:#181818;stroke-width:1.0;"/><polygon fill="none" points="399.03,350.2583,380.2302,352.821,385.5278,363.5884,399.03,350.2583" style="stroke:#181818;stroke-width:1.0;"/></g><!--reverse link EP_GameMode to EP_EditorMode--><g id="link_EP_GameMode_EP_EditorMode"><path codeLine="35" d="M454.7605,366.4716 C444.2705,389.7716 438.44,402.7183 427.93,426.0583 " fill="none" id="EP_GameMode-backto-EP_EditorMode" style="stroke:#181818;stroke-width:1.0;"/><polygon fill="none" points="462.15,350.0583,449.2894,364.0084,460.2316,368.9347,462.15,350.0583" style="stroke:#181818;stroke-width:1.0;"/></g><!--reverse link EP_GameMode to EP_PlayMode--><g id="link_EP_GameMode_EP_PlayMode"><path codeLine="36" d="M556.0513,360.0998 C583.6013,378.0898 601.56,389.8283 631.6,409.4483 " fill="none" id="EP_GameMode-backto-EP_PlayMode" style="stroke:#181818;stroke-width:1.0;"/><polygon fill="none" points="540.98,350.2583,552.7708,365.1236,559.3318,355.076,540.98,350.2583" style="stroke:#181818;stroke-width:1.0;"/></g><!--link EP_GameWindow to EP_GameMode--><g id="link_EP_GameWindow_EP_GameMode"><path codeLine="38" d="M544.71,209.4183 C531.63,229.4383 520.8818,245.8654 509.2518,263.6654 " fill="none" id="EP_GameWindow-to-EP_GameMode" style="stroke:#181818;stroke-width:1.0;"/><polygon fill="#181818" points="505.97,268.6883,514.2413,263.3418,508.7049,264.5025,507.5441,258.966,505.97,268.6883" style="stroke:#181818;stroke-width:1.0;"/></g><!--link EP_GameWindow to EP_LevelManager--><g id="link_EP_GameWindow_EP_LevelManager"><path codeLine="39" d="M692.13,209.4183 C735.41,236.0483 777.6901,262.0736 809.7501,281.8036 " fill="none" id="EP_GameWindow-to-EP_LevelManager" style="stroke:#181818;stroke-width:1.0;"/><polygon fill="#181818" points="814.86,284.9483,809.2916,276.8247,810.6018,282.3277,805.0987,283.6379,814.86,284.9483" style="stroke:#181818;stroke-width:1.0;"/></g><!--link EP_LevelManager to EP_Level--><g id="link_EP_LevelManager_EP_Level"><path codeLine="49" d="M869.59,333.5983 C882.36,352.9483 898.98,381.8083 906,409.9083 C933.63,520.5483 949.08,576.4783 877,664.8383 C874.34,668.1083 796.7246,701.0113 730.7246,728.6413 " fill="none" id="EP_LevelManager-to-EP_Level" style="stroke:#181818;stroke-width:1.0;"/><polygon fill="#181818" points="725.19,730.9583,735.0365,731.1725,729.8022,729.0275,731.9472,723.7931,725.19,730.9583" style="stroke:#181818;stroke-width:1.0;"/></g><!--reverse link EP_Tile to EP_EditorTile--><g id="link_EP_Tile_EP_EditorTile"><path codeLine="66" d="M1228.2882,981.677 C1230.7182,1007.167 1231.87,1019.3783 1233.8,1039.6483 " fill="none" id="EP_Tile-backto-EP_EditorTile" style="stroke:#181818;stroke-width:1.0;"/><polygon fill="none" points="1226.58,963.7583,1222.3153,982.2464,1234.2611,981.1076,1226.58,963.7583" style="stroke:#181818;stroke-width:1.0;"/></g><!--reverse link EP_Tile to EP_PlayTile--><g id="link_EP_Tile_EP_PlayTile"><path codeLine="67" d="M1165.633,977.0234 C1142.253,1002.5134 1126.79,1019.3783 1108.21,1039.6483 " fill="none" id="EP_Tile-backto-EP_PlayTile" style="stroke:#181818;stroke-width:1.0;"/><polygon fill="none" points="1177.8,963.7583,1161.2113,972.9677,1170.0547,981.0791,1177.8,963.7583" style="stroke:#181818;stroke-width:1.0;"/></g><!--link EP_Level to EP_Board--><g id="link_EP_Level_EP_Board"><path codeLine="69" d="M608.47,806.1683 C591.68,824.4783 575.6868,841.9277 558.0668,861.1277 " fill="none" id="EP_Level-to-EP_Board" style="stroke:#181818;stroke-width:1.0;"/><polygon fill="#181818" points="554.01,865.5483,563.0424,861.6219,557.3907,861.8644,557.1482,856.2128,554.01,865.5483" style="stroke:#181818;stroke-width:1.0;"/></g><!--link EP_Level to EP_Stage--><g id="link_EP_Level_EP_Stage"><path codeLine="70" d="M564.67,789.4383 C472.44,816.0383 330.64,857.1983 306,865.8183 C292.13,870.6683 283.0725,874.024 269.0425,879.624 " fill="none" id="EP_Level-to-EP_Stage" style="stroke:#181818;stroke-width:1.0;"/><polygon fill="#181818" points="263.47,881.8483,273.3116,882.2269,268.1138,879.9948,270.3459,874.7969,263.47,881.8483" style="stroke:#181818;stroke-width:1.0;"/></g><!--link EP_EnemyWaveManager to EP_EnemyWaveSpawner--><g id="link_EP_EnemyWaveManager_EP_EnemyWaveSpawner"><path codeLine="95" d="M1066.52,665.1783 C1036.4,683.7883 1005.7143,702.7345 975.5943,721.3445 " fill="none" id="EP_EnemyWaveManager-to-EP_EnemyWaveSpawner" style="stroke:#181818;stroke-width:1.0;"/><polygon fill="#181818" points="970.49,724.4983,980.2489,723.1705,974.7436,721.8702,976.0439,716.3648,970.49,724.4983" style="stroke:#181818;stroke-width:1.0;"/></g><!--link EP_EnemyWaveManager to EP_Level--><g id="link_EP_EnemyWaveManager_EP_Level"><path codeLine="96" d="M961.05,663.4883 C892.42,680.2683 812.84,701.4883 742,724.8383 C736.56,726.6383 736.6252,726.5281 731.0452,728.5681 " fill="none" id="EP_EnemyWaveManager-to-EP_Level" style="stroke:#181818;stroke-width:1.0;"/><polygon fill="#181818" points="725.41,730.6283,735.2363,731.2948,730.106,728.9115,732.4894,723.7812,725.41,730.6283" style="stroke:#181818;stroke-width:1.0;"/></g><!--link EP_EnemyWaveSpawner to EP_Board--><g id="link_EP_EnemyWaveSpawner_EP_Board"><path codeLine="97" d="M798.58,806.2683 C749.56,824.4883 696.7338,844.1272 645.2838,863.2572 " fill="none" id="EP_EnemyWaveSpawner-to-EP_Board" style="stroke:#181818;stroke-width:1.0;"/><polygon fill="#181818" points="639.66,865.3483,649.4898,865.9609,644.3465,863.6057,646.7017,858.4625,639.66,865.3483" style="stroke:#181818;stroke-width:1.0;"/></g><!--link EP_EnemyWaveSpawner to EP_NotAGameManager--><g id="link_EP_EnemyWaveSpawner_EP_NotAGameManager"><path codeLine="98" d="M1024.33,806.2883 C1050.39,820.8383 1074.75,840.2383 1090,865.8183 C1112.18,903.0283 1112.35,926.1683 1090,963.2783 C1078.69,982.0683 1042.8634,1002.3044 1001.8634,1021.3144 " fill="none" id="EP_EnemyWaveSpawner-to-EP_NotAGameManager" style="stroke:#181818;stroke-width:1.0;"/><polygon fill="#181818" points="996.42,1023.8383,1006.2676,1023.6814,1000.9561,1021.7351,1002.9025,1016.4236,996.42,1023.8383" style="stroke:#181818;stroke-width:1.0;"/></g><!--link EP_EnemyWaveSpawner to EP_Enemy--><g id="link_EP_EnemyWaveSpawner_EP_Enemy"><path codeLine="99" d="M904.92,806.1683 C904.35,827.1183 903.8132,846.7305 903.2432,867.6805 " fill="none" id="EP_EnemyWaveSpawner-to-EP_Enemy" style="stroke:#181818;stroke-width:1.0;"/><polygon fill="#181818" points="903.08,873.6783,907.3233,864.7904,903.216,868.6801,899.3263,864.5728,903.08,873.6783" style="stroke:#181818;stroke-width:1.0;"/></g><!--link EP_EnemyWave to EP_EnemyWaveManager--><g id="link_EP_EnemyWave_EP_EnemyWaveManager"><path codeLine="101" d="M1130.2,499.3483 C1130.36,523.6583 1130.5433,551.4584 1130.7033,577.6384 " fill="none" id="EP_EnemyWave-to-EP_EnemyWaveManager" style="stroke:#181818;stroke-width:1.0;"/><polygon fill="#181818" points="1130.74,583.6383,1134.6849,574.614,1130.7094,578.6384,1126.6851,574.6629,1130.74,583.6383" style="stroke:#181818;stroke-width:1.0;"/></g><!--link EP_Enemy to EP_NotAGameManager--><g id="link_EP_Enemy_EP_NotAGameManager"><path codeLine="102" d="M902,955.3883 C902,976.3383 902,995.9483 902,1016.8983 " fill="none" id="EP_Enemy-to-EP_NotAGameManager" style="stroke:#181818;stroke-width:1.0;"/><polygon fill="#181818" points="902,1022.8983,906,1013.8983,902,1017.8983,898,1013.8983,902,1022.8983" style="stroke:#181818;stroke-width:1.0;"/></g><!--link EP_TowerPlacementPopUp to EP_Tile--><g id="link_EP_TowerPlacementPopUp_EP_Tile"><path codeLine="114" d="M1201.58,806.1683 C1205.06,824.4783 1208.0994,840.4538 1211.7494,859.6538 " fill="none" id="EP_TowerPlacementPopUp-to-EP_Tile" style="stroke:#181818;stroke-width:1.0;"/><polygon fill="#181818" points="1212.87,865.5483,1215.1188,855.9596,1211.9362,860.6363,1207.2595,857.4537,1212.87,865.5483" style="stroke:#181818;stroke-width:1.0;"/></g><!--link EP_TowerPlacementPopUp to EP_Board--><g id="link_EP_TowerPlacementPopUp_EP_Board"><path codeLine="115" d="M1087.06,801.4183 C1081.31,802.9783 1075.6,804.4583 1070,805.8183 C914.06,843.5883 871.31,834.1883 714,865.8183 C708.38,866.9483 708.5635,866.8925 702.8135,868.0925 " fill="none" id="EP_TowerPlacementPopUp-to-EP_Board" style="stroke:#181818;stroke-width:1.0;"/><polygon fill="#181818" points="696.94,869.3183,706.5674,871.3953,701.8345,868.2968,704.933,863.564,696.94,869.3183" style="stroke:#181818;stroke-width:1.0;"/></g><!--link EP_EditorSidebar to EP_Sidebar--><g id="link_EP_EditorSidebar_EP_Sidebar"><path codeLine="126" d="M331.68,648.6183 C334.33,671.6383 336.3555,689.1759 339.2955,714.7659 " fill="none" id="EP_EditorSidebar-to-EP_Sidebar" style="stroke:#181818;stroke-width:1.0;"/><polygon fill="none" points="341.35,732.6483,345.2563,714.0811,333.3347,715.4507,341.35,732.6483" style="stroke:#181818;stroke-width:1.0;"/></g><!--link EP_PlaySidebar to EP_Sidebar--><g id="link_EP_PlaySidebar_EP_Sidebar"><path codeLine="127" d="M548.76,657.0583 C505.7,679.7383 463.918,701.7339 420.908,724.3739 " fill="none" id="EP_PlaySidebar-to-EP_Sidebar" style="stroke:#181818;stroke-width:1.0;"/><polygon fill="none" points="404.98,732.7583,423.7028,729.6833,418.1133,719.0646,404.98,732.7583" style="stroke:#181818;stroke-width:1.0;"/></g><!--link EP_MenuMode to EP_Menu--><g id="link_EP_MenuMode_EP_Menu"><path codeLine="133" d="M157.56,491.1583 C150.16,517.9283 139.5694,556.2254 131.3194,586.0554 " fill="none" id="EP_MenuMode-to-EP_Menu" style="stroke:#181818;stroke-width:1.0;"/><polygon fill="#181818" points="129.72,591.8383,135.9743,584.2302,131.0528,587.0192,128.2638,582.0977,129.72,591.8383" style="stroke:#181818;stroke-width:1.0;"/></g><!--link EP_PlayMode to EP_EnemyWaveManager--><g id="link_EP_PlayMode_EP_EnemyWaveManager"><path codeLine="140" d="M867.98,524.3483 C920.01,543.9283 971.6145,563.355 1019.3645,581.325 " fill="none" id="EP_PlayMode-to-EP_EnemyWaveManager" style="stroke:#181818;stroke-width:1.0;"/><polygon fill="#181818" points="1024.98,583.4383,1017.9656,576.5246,1020.3004,581.6772,1015.1479,584.012,1024.98,583.4383" style="stroke:#181818;stroke-width:1.0;"/></g><!--link EP_PlayMode to EP_NotAGameManager--><g id="link_EP_PlayMode_EP_NotAGameManager"><path codeLine="141" d="M768.98,524.0683 C800.73,566.0583 829.83,623.1683 797,664.8383 C726.56,754.2683 648.12,670.6783 548,724.8383 C501.82,749.8183 509.18,782.7883 462,805.8183 C304.39,882.7283 186.19,732.7183 72,865.8183 C43.79,898.6983 43.25,930.8783 72,963.2783 C120.19,1017.5983 594.2678,1047.4821 801.5378,1058.0721 " fill="none" id="EP_PlayMode-to-EP_NotAGameManager" style="stroke:#181818;stroke-width:1.0;"/><polygon fill="#181818" points="807.53,1058.3783,798.7458,1053.9243,802.5365,1058.1232,798.3376,1061.9138,807.53,1058.3783" style="stroke:#181818;stroke-width:1.0;"/></g><!--link EP_EditorMode to EP_Level--><g id="link_EP_EditorMode_EP_Level"><path codeLine="143" d="M489.38,507.8183 C502.74,513.6983 516.62,519.2983 530,523.8683 C645.11,563.1283 721.01,488.8983 797,583.8683 C819.49,611.9683 814.12,633.1783 797,664.8383 C781.33,693.8283 758.3437,712.7865 730.4537,728.5465 " fill="none" id="EP_EditorMode-to-EP_Level" style="stroke:#181818;stroke-width:1.0;"/><polygon fill="#181818" points="725.23,731.4983,735.0334,730.5531,729.5831,729.0385,731.0977,723.5881,725.23,731.4983" style="stroke:#181818;stroke-width:1.0;"/></g><!--link EP_EditorMode to EP_EditorSidebar--><g id="link_EP_EditorMode_EP_EditorSidebar"><path codeLine="144" d="M389.35,507.5183 C374.07,536.8483 356.5518,570.4669 343.8318,594.8869 " fill="none" id="EP_EditorMode-to-EP_EditorSidebar" style="stroke:#181818;stroke-width:1.0;"/><polygon fill="#181818" points="341.06,600.2083,348.7653,594.0741,343.3699,595.7738,341.6701,590.3783,341.06,600.2083" style="stroke:#181818;stroke-width:1.0;"/></g><!--link EP_PlayMode to EP_Level--><g id="link_EP_PlayMode_EP_Level"><path codeLine="146" d="M812.24,524.2283 C831.91,540.7983 850,560.7783 861,583.8683 C876.48,616.3583 880.41,634.5283 861,664.8383 C856.87,671.2883 790.5879,701.2256 730.8879,727.3156 " fill="none" id="EP_PlayMode-to-EP_Level" style="stroke:#181818;stroke-width:1.0;"/><polygon fill="#181818" points="725.39,729.7183,735.2387,729.7795,729.9716,727.716,732.0351,722.449,725.39,729.7183" style="stroke:#181818;stroke-width:1.0;"/></g><!--link EP_PlayMode to EP_PlaySidebar--><g id="link_EP_PlayMode_EP_PlaySidebar"><path codeLine="147" d="M678.65,524.0183 C662.67,546.7983 648.255,567.3659 634.615,586.8159 " fill="none" id="EP_PlayMode-to-EP_PlaySidebar" style="stroke:#181818;stroke-width:1.0;"/><polygon fill="#181818" points="631.17,591.7283,639.6125,586.6563,634.0408,587.6346,633.0626,582.063,631.17,591.7283" style="stroke:#181818;stroke-width:1.0;"/></g><!--SRC=[jLPBRzim3BxxL-Wym8Vs60m5KYp8PIu2f5iEmr0ejfe8jIr3LfeLQVxxzB1ZKfBJBDjyiibF7nyYQIgkIaQMl6fA_inPGQOottB5ShMJZ7pXT2DfbIGDpL_eHWDNqxaKk-RcbXoIXEWdBsdRajdYQKuhjk9r8VPQHRedhKJ1oAJNP_fhq9NibPKPhJMnT9YlG08uAA-_SxRNc4p8PZjeMbwmyveLBzHMgnzsrRhZF3h7wRfLakOAHs0yXFxlNKGJ7E4VnN3q4fMnUWVC-EfPmPMGlX_M3Z208rtJphWxl7IYAFsYf6zNafkZaDeYDYPfCFu7eQRpGJWWMSsgjnLznV2P9uLEmplv_9wcC7kZW25_ev0-1yXALxjfUXTKQnI1xXddsAfWWjU2oiB5UszUGOALFjywrTAy__ZqCtflblFfXXoECVcjaVU-Gi-GjnwbTGMwgNXfVScealmN4Sy6zQY5i1UzMrLYpwHEQCugLgk5QBurBfh7K14DpF1VbYkHvxl6pAW9kHUYPBG69Ipobq0JRordy1YsHQ_eysY_SLcTak6h-_Fu4lhi3u7u6dlddfjMXeQGRe_MQvUnEh40UFX_DYYsQa3Gyh_WMpPqN-kZLmKKBQLHKptdHOEH-GvEOcvxmommrHL1zDWP_E1BB5MncXi3nL9t1cxbOJX1736wCPFUD31Jmvz9tK11W-YYkutCeB_b7c7jWaFpOHpcMBskxtwrXs3OHlQd-6GxKKI6MuJ-gXyojfIcxtV0-Hu43VgGS1aQ3HdzwmSNJWjKbqtpxT5wHOR-BxIaTSxmJkYwdRin6-wAS6_weDPzNBJSyPeNxUf0ZLUxCNE8n5V21Iuv9hy1]--></g></svg>