<?xml version="1.0" encoding="us-ascii" standalone="no"?><svg xmlns="http://www.w3.org/2000/svg" xmlns:xlink="http://www.w3.org/1999/xlink" contentStyleType="text/css" height="1187px" preserveAspectRatio="none" style="width:967px;height:1187px;background:#FFFFFF;" version="1.1" viewBox="0 0 967 1187" width="967px" zoomAndPan="magnify"><defs/><g><!--cluster SWAGroup12--><g id="cluster_SWAGroup12"><path d="M8.5,6 L101.5,6 A3.75,3.75 0 0 1 104,8.5 L111,28.4883 L957.5,28.4883 A2.5,2.5 0 0 1 960,30.9883 L960,1177.54 A2.5,2.5 0 0 1 957.5,1180.04 L8.5,1180.04 A2.5,2.5 0 0 1 6,1177.54 L6,8.5 A2.5,2.5 0 0 1 8.5,6 " fill="none" style="stroke:#000000;stroke-width:1.5;"/><line style="stroke:#000000;stroke-width:1.5;" x1="6" x2="111" y1="28.4883" y2="28.4883"/><text fill="#000000" font-family="sans-serif" font-size="14" font-weight="bold" lengthAdjust="spacing" textLength="92" x="10" y="21.5352">SWAGroup12</text></g><!--class EP_Board--><g id="elem_EP_Board"><rect codeLine="5" fill="#F1F1F1" height="245.8594" id="EP_Board" rx="2.5" ry="2.5" style="stroke:#181818;stroke-width:0.5;" width="265" x="422.5" y="405.39"/><ellipse cx="519.25" cy="421.39" fill="#ADD1B2" rx="11" ry="11" style="stroke:#181818;stroke-width:1.0;"/><path d="M521.7231,427.5331 Q521.1421,427.8319 520.5029,427.9813 Q519.8638,428.1307 519.1582,428.1307 Q516.6514,428.1307 515.3315,426.4789 Q514.0117,424.827 514.0117,421.7059 Q514.0117,418.5765 515.3315,416.9247 Q516.6514,415.2728 519.1582,415.2728 Q519.8638,415.2728 520.5112,415.4222 Q521.1587,415.5716 521.7231,415.8705 L521.7231,418.5931 Q521.0923,418.0121 520.4988,417.7423 Q519.9053,417.4725 519.2744,417.4725 Q517.9297,417.4725 517.2449,418.5392 Q516.5601,419.6058 516.5601,421.7059 Q516.5601,423.7977 517.2449,424.8644 Q517.9297,425.931 519.2744,425.931 Q519.9053,425.931 520.4988,425.6612 Q521.0923,425.3915 521.7231,424.8104 Z " fill="#000000"/><text fill="#000000" font-family="sans-serif" font-size="14" lengthAdjust="spacing" textLength="63" x="539.75" y="426.681">EP_Board</text><line style="stroke:#181818;stroke-width:0.5;" x1="423.5" x2="686.5" y1="437.39" y2="437.39"/><rect fill="none" height="6" style="stroke:#C82930;stroke-width:1.0;" width="6" x="430.5" y="448.1341"/><text fill="#000000" font-family="sans-serif" font-size="14" lengthAdjust="spacing" textLength="28" x="442.5" y="454.9252">tiles</text><rect fill="none" height="6" style="stroke:#C82930;stroke-width:1.0;" width="6" x="430.5" y="464.6224"/><text fill="#000000" font-family="sans-serif" font-size="14" lengthAdjust="spacing" textLength="69" x="442.5" y="471.4134">boardSize</text><rect fill="none" height="6" style="stroke:#C82930;stroke-width:1.0;" width="6" x="430.5" y="481.1107"/><text fill="#000000" font-family="sans-serif" font-size="14" lengthAdjust="spacing" textLength="49" x="442.5" y="487.9017">tileSize</text><rect fill="none" height="6" style="stroke:#C82930;stroke-width:1.0;" width="6" x="430.5" y="497.599"/><text fill="#000000" font-family="sans-serif" font-size="14" lengthAdjust="spacing" textLength="26" x="442.5" y="504.39">way</text><rect fill="none" height="6" style="stroke:#C82930;stroke-width:1.0;" width="6" x="430.5" y="514.0873"/><text fill="#000000" font-family="sans-serif" font-size="14" lengthAdjust="spacing" textLength="132" x="442.5" y="520.8783">boardEventHandler</text><rect fill="none" height="6" style="stroke:#C82930;stroke-width:1.0;" width="6" x="430.5" y="530.5755"/><text fill="#000000" font-family="sans-serif" font-size="14" lengthAdjust="spacing" textLength="154" x="442.5" y="537.3666">towerPlacementPopUp</text><rect fill="none" height="6" style="stroke:#C82930;stroke-width:1.0;" width="6" x="430.5" y="547.0638"/><text fill="#000000" font-family="sans-serif" font-size="14" lengthAdjust="spacing" textLength="182" x="442.5" y="553.8548">towerPlacementPopUpSize</text><line style="stroke:#181818;stroke-width:0.5;" x1="423.5" x2="686.5" y1="560.808" y2="560.808"/><ellipse cx="433.5" cy="574.5521" fill="#84BE84" rx="3" ry="3" style="stroke:#038048;stroke-width:1.0;"/><text fill="#000000" font-family="sans-serif" font-size="14" lengthAdjust="spacing" textLength="68" x="442.5" y="578.3431">initialize()</text><ellipse cx="433.5" cy="591.0404" fill="#84BE84" rx="3" ry="3" style="stroke:#038048;stroke-width:1.0;"/><text fill="#000000" font-family="sans-serif" font-size="14" lengthAdjust="spacing" textLength="142" x="442.5" y="594.8314">boardEventHandler()</text><ellipse cx="433.5" cy="607.5287" fill="#84BE84" rx="3" ry="3" style="stroke:#038048;stroke-width:1.0;"/><text fill="#000000" font-family="sans-serif" font-size="14" lengthAdjust="spacing" textLength="204" x="442.5" y="611.3197">boardEventHandler(aHandler)</text><ellipse cx="433.5" cy="624.017" fill="#84BE84" rx="3" ry="3" style="stroke:#038048;stroke-width:1.0;"/><text fill="#000000" font-family="sans-serif" font-size="14" lengthAdjust="spacing" textLength="239" x="442.5" y="627.808">setTowerPlacementPopup(aPopup)</text><ellipse cx="433.5" cy="640.5052" fill="#84BE84" rx="3" ry="3" style="stroke:#038048;stroke-width:1.0;"/><text fill="#000000" font-family="sans-serif" font-size="14" lengthAdjust="spacing" textLength="94" x="442.5" y="644.2963">tiles() : Matrix</text></g><!--class EP_Tile--><g id="elem_EP_Tile"><rect codeLine="20" fill="#F1F1F1" height="179.9063" id="EP_Tile" rx="2.5" ry="2.5" style="stroke:#181818;stroke-width:0.5;" width="236" x="708" y="942.91"/><ellipse cx="797.75" cy="958.91" fill="#ADD1B2" rx="11" ry="11" style="stroke:#181818;stroke-width:1.0;"/><path d="M800.2231,965.0531 Q799.6421,965.3519 799.0029,965.5013 Q798.3638,965.6507 797.6582,965.6507 Q795.1514,965.6507 793.8315,963.9989 Q792.5117,962.347 792.5117,959.2259 Q792.5117,956.0965 793.8315,954.4447 Q795.1514,952.7928 797.6582,952.7928 Q798.3638,952.7928 799.0112,952.9422 Q799.6587,953.0916 800.2231,953.3905 L800.2231,956.1131 Q799.5923,955.5321 798.9988,955.2623 Q798.4053,954.9925 797.7744,954.9925 Q796.4297,954.9925 795.7449,956.0592 Q795.0601,957.1258 795.0601,959.2259 Q795.0601,961.3177 795.7449,962.3844 Q796.4297,963.451 797.7744,963.451 Q798.4053,963.451 798.9988,963.1812 Q799.5923,962.9115 800.2231,962.3304 Z " fill="#000000"/><text fill="#000000" font-family="sans-serif" font-size="14" lengthAdjust="spacing" textLength="48" x="818.25" y="964.201">EP_Tile</text><line style="stroke:#181818;stroke-width:0.5;" x1="709" x2="943" y1="974.91" y2="974.91"/><rect fill="none" height="6" style="stroke:#C82930;stroke-width:1.0;" width="6" x="716" y="985.6541"/><text fill="#000000" font-family="sans-serif" font-size="14" lengthAdjust="spacing" textLength="100" x="728" y="992.4452">twBorderColor</text><rect fill="none" height="6" style="stroke:#C82930;stroke-width:1.0;" width="6" x="716" y="1002.1424"/><text fill="#000000" font-family="sans-serif" font-size="14" lengthAdjust="spacing" textLength="41" x="728" y="1008.9334">board</text><rect fill="none" height="6" style="stroke:#C82930;stroke-width:1.0;" width="6" x="716" y="1018.6307"/><text fill="#000000" font-family="sans-serif" font-size="14" lengthAdjust="spacing" textLength="103" x="728" y="1025.4217">matrixLocation</text><rect fill="none" height="6" style="stroke:#C82930;stroke-width:1.0;" width="6" x="716" y="1035.119"/><text fill="#000000" font-family="sans-serif" font-size="14" lengthAdjust="spacing" textLength="62" x="728" y="1041.91">occupied</text><rect fill="none" height="6" style="stroke:#C82930;stroke-width:1.0;" width="6" x="716" y="1051.6073"/><text fill="#000000" font-family="sans-serif" font-size="14" lengthAdjust="spacing" textLength="45" x="728" y="1058.3983">locked</text><line style="stroke:#181818;stroke-width:0.5;" x1="709" x2="943" y1="1065.3514" y2="1065.3514"/><ellipse cx="719" cy="1079.0955" fill="#84BE84" rx="3" ry="3" style="stroke:#038048;stroke-width:1.0;"/><text fill="#000000" font-family="sans-serif" font-size="14" lengthAdjust="spacing" textLength="210" x="728" y="1082.8866">createTowerPlacementPopUp()</text><ellipse cx="719" cy="1095.5838" fill="#84BE84" rx="3" ry="3" style="stroke:#038048;stroke-width:1.0;"/><text fill="#000000" font-family="sans-serif" font-size="14" lengthAdjust="spacing" textLength="140" x="728" y="1099.3748">placeTower(aTower)</text><ellipse cx="719" cy="1112.0721" fill="#84BE84" rx="3" ry="3" style="stroke:#038048;stroke-width:1.0;"/><text fill="#000000" font-family="sans-serif" font-size="14" lengthAdjust="spacing" textLength="104" x="728" y="1115.8631">removeTower()</text></g><!--class EP_Enemy--><g id="elem_EP_Enemy"><rect codeLine="31" fill="#F1F1F1" height="262.3477" id="EP_Enemy" rx="2.5" ry="2.5" style="stroke:#181818;stroke-width:0.5;" width="144" x="22" y="901.69"/><ellipse cx="56.8" cy="917.69" fill="#ADD1B2" rx="11" ry="11" style="stroke:#181818;stroke-width:1.0;"/><path d="M59.2731,923.8331 Q58.6921,924.1319 58.0529,924.2813 Q57.4138,924.4307 56.7082,924.4307 Q54.2014,924.4307 52.8815,922.7789 Q51.5617,921.127 51.5617,918.0059 Q51.5617,914.8765 52.8815,913.2247 Q54.2014,911.5728 56.7082,911.5728 Q57.4138,911.5728 58.0612,911.7222 Q58.7087,911.8716 59.2731,912.1705 L59.2731,914.8931 Q58.6423,914.3121 58.0488,914.0423 Q57.4553,913.7725 56.8244,913.7725 Q55.4797,913.7725 54.7949,914.8392 Q54.1101,915.9058 54.1101,918.0059 Q54.1101,920.0977 54.7949,921.1644 Q55.4797,922.231 56.8244,922.231 Q57.4553,922.231 58.0488,921.9612 Q58.6423,921.6915 59.2731,921.1104 Z " fill="#000000"/><text fill="#000000" font-family="sans-serif" font-size="14" lengthAdjust="spacing" textLength="68" x="75.2" y="922.981">EP_Enemy</text><line style="stroke:#181818;stroke-width:0.5;" x1="23" x2="165" y1="933.69" y2="933.69"/><rect fill="none" height="6" style="stroke:#C82930;stroke-width:1.0;" width="6" x="30" y="944.4341"/><text fill="#000000" font-family="sans-serif" font-size="14" lengthAdjust="spacing" textLength="55" x="42" y="951.2252">damage</text><rect fill="none" height="6" style="stroke:#C82930;stroke-width:1.0;" width="6" x="30" y="960.9224"/><text fill="#000000" font-family="sans-serif" font-size="14" lengthAdjust="spacing" textLength="43" x="42" y="967.7134">health</text><rect fill="none" height="6" style="stroke:#C82930;stroke-width:1.0;" width="6" x="30" y="977.4107"/><text fill="#000000" font-family="sans-serif" font-size="14" lengthAdjust="spacing" textLength="41" x="42" y="984.2017">speed</text><rect fill="none" height="6" style="stroke:#C82930;stroke-width:1.0;" width="6" x="30" y="993.899"/><text fill="#000000" font-family="sans-serif" font-size="14" lengthAdjust="spacing" textLength="26" x="42" y="1000.69">way</text><rect fill="none" height="6" style="stroke:#C82930;stroke-width:1.0;" width="6" x="30" y="1010.3873"/><text fill="#000000" font-family="sans-serif" font-size="14" lengthAdjust="spacing" textLength="56" x="42" y="1017.1783">position</text><rect fill="none" height="6" style="stroke:#C82930;stroke-width:1.0;" width="6" x="30" y="1026.8755"/><text fill="#000000" font-family="sans-serif" font-size="14" lengthAdjust="spacing" textLength="61" x="42" y="1033.6666">progress</text><rect fill="none" height="6" style="stroke:#C82930;stroke-width:1.0;" width="6" x="30" y="1043.3638"/><text fill="#000000" font-family="sans-serif" font-size="14" lengthAdjust="spacing" textLength="81" x="42" y="1050.1548">tileProgress</text><rect fill="none" height="6" style="stroke:#C82930;stroke-width:1.0;" width="6" x="30" y="1059.8521"/><text fill="#000000" font-family="sans-serif" font-size="14" lengthAdjust="spacing" textLength="109" x="42" y="1066.6431">distancePerStep</text><rect fill="none" height="6" style="stroke:#C82930;stroke-width:1.0;" width="6" x="30" y="1076.3404"/><text fill="#000000" font-family="sans-serif" font-size="14" lengthAdjust="spacing" textLength="83" x="42" y="1083.1314">stepsPerTile</text><rect fill="none" height="6" style="stroke:#C82930;stroke-width:1.0;" width="6" x="30" y="1092.8287"/><text fill="#000000" font-family="sans-serif" font-size="14" lengthAdjust="spacing" textLength="98" x="42" y="1099.6197">gameManager</text><line style="stroke:#181818;stroke-width:0.5;" x1="23" x2="165" y1="1106.5728" y2="1106.5728"/><ellipse cx="33" cy="1120.317" fill="#84BE84" rx="3" ry="3" style="stroke:#038048;stroke-width:1.0;"/><text fill="#000000" font-family="sans-serif" font-size="14" lengthAdjust="spacing" textLength="68" x="42" y="1124.108">initialize()</text><ellipse cx="33" cy="1136.8052" fill="#84BE84" rx="3" ry="3" style="stroke:#038048;stroke-width:1.0;"/><text fill="#000000" font-family="sans-serif" font-size="14" lengthAdjust="spacing" textLength="30" x="42" y="1140.5963">kill()</text><ellipse cx="33" cy="1153.2935" fill="#84BE84" rx="3" ry="3" style="stroke:#038048;stroke-width:1.0;"/><text fill="#000000" font-family="sans-serif" font-size="14" lengthAdjust="spacing" textLength="118" x="42" y="1157.0845">moveAlongPath()</text></g><!--class EP_BoardEventHandler--><g id="elem_EP_BoardEventHandler"><rect codeLine="47" fill="#F1F1F1" height="97.4648" id="EP_BoardEventHandler" rx="2.5" ry="2.5" style="stroke:#181818;stroke-width:0.5;" width="186" x="342" y="727.74"/><ellipse cx="357" cy="743.74" fill="#ADD1B2" rx="11" ry="11" style="stroke:#181818;stroke-width:1.0;"/><path d="M359.4731,749.8831 Q358.8921,750.1819 358.2529,750.3313 Q357.6138,750.4807 356.9082,750.4807 Q354.4014,750.4807 353.0815,748.8289 Q351.7617,747.177 351.7617,744.0559 Q351.7617,740.9265 353.0815,739.2747 Q354.4014,737.6228 356.9082,737.6228 Q357.6138,737.6228 358.2612,737.7722 Q358.9087,737.9216 359.4731,738.2205 L359.4731,740.9431 Q358.8423,740.3621 358.2488,740.0923 Q357.6553,739.8225 357.0244,739.8225 Q355.6797,739.8225 354.9949,740.8892 Q354.3101,741.9558 354.3101,744.0559 Q354.3101,746.1477 354.9949,747.2144 Q355.6797,748.281 357.0244,748.281 Q357.6553,748.281 358.2488,748.0112 Q358.8423,747.7415 359.4731,747.1604 Z " fill="#000000"/><text fill="#000000" font-family="sans-serif" font-size="14" lengthAdjust="spacing" textLength="154" x="371" y="749.031">EP_BoardEventHandler</text><line style="stroke:#181818;stroke-width:0.5;" x1="343" x2="527" y1="759.74" y2="759.74"/><rect fill="none" height="6" style="stroke:#C82930;stroke-width:1.0;" width="6" x="350" y="770.4841"/><text fill="#000000" font-family="sans-serif" font-size="14" lengthAdjust="spacing" textLength="61" x="362" y="777.2752">manager</text><rect fill="none" height="6" style="stroke:#C82930;stroke-width:1.0;" width="6" x="350" y="786.9724"/><text fill="#000000" font-family="sans-serif" font-size="14" lengthAdjust="spacing" textLength="41" x="362" y="793.7634">board</text><line style="stroke:#181818;stroke-width:0.5;" x1="343" x2="527" y1="800.7166" y2="800.7166"/><ellipse cx="353" cy="814.4607" fill="#84BE84" rx="3" ry="3" style="stroke:#038048;stroke-width:1.0;"/><text fill="#000000" font-family="sans-serif" font-size="14" lengthAdjust="spacing" textLength="114" x="362" y="818.2517">tileClicked(aTile)</text></g><!--class EP_EditorBEventHandler--><g id="elem_EP_EditorBEventHandler"><rect codeLine="53" fill="#F1F1F1" height="80.9766" id="EP_EditorBEventHandler" rx="2.5" ry="2.5" style="stroke:#181818;stroke-width:0.5;" width="255" x="417.5" y="992.38"/><ellipse cx="459.5" cy="1008.38" fill="#ADD1B2" rx="11" ry="11" style="stroke:#181818;stroke-width:1.0;"/><path d="M461.9731,1014.5231 Q461.3921,1014.8219 460.7529,1014.9713 Q460.1138,1015.1207 459.4082,1015.1207 Q456.9014,1015.1207 455.5815,1013.4689 Q454.2617,1011.817 454.2617,1008.6959 Q454.2617,1005.5665 455.5815,1003.9147 Q456.9014,1002.2628 459.4082,1002.2628 Q460.1138,1002.2628 460.7612,1002.4122 Q461.4087,1002.5616 461.9731,1002.8605 L461.9731,1005.5831 Q461.3423,1005.0021 460.7488,1004.7323 Q460.1553,1004.4625 459.5244,1004.4625 Q458.1797,1004.4625 457.4949,1005.5292 Q456.8101,1006.5958 456.8101,1008.6959 Q456.8101,1010.7877 457.4949,1011.8544 Q458.1797,1012.921 459.5244,1012.921 Q460.1553,1012.921 460.7488,1012.6512 Q461.3423,1012.3815 461.9731,1011.8004 Z " fill="#000000"/><text fill="#000000" font-family="sans-serif" font-size="14" lengthAdjust="spacing" textLength="163" x="479.5" y="1013.671">EP_EditorBEventHandler</text><line style="stroke:#181818;stroke-width:0.5;" x1="418.5" x2="671.5" y1="1024.38" y2="1024.38"/><line style="stroke:#181818;stroke-width:0.5;" x1="418.5" x2="671.5" y1="1032.38" y2="1032.38"/><ellipse cx="428.5" cy="1046.1241" fill="#84BE84" rx="3" ry="3" style="stroke:#038048;stroke-width:1.0;"/><text fill="#000000" font-family="sans-serif" font-size="14" lengthAdjust="spacing" textLength="229" x="437.5" y="1049.9152">isNextToPrevious(aTile) : Boolean</text><ellipse cx="428.5" cy="1062.6124" fill="#84BE84" rx="3" ry="3" style="stroke:#038048;stroke-width:1.0;"/><text fill="#000000" font-family="sans-serif" font-size="14" lengthAdjust="spacing" textLength="175" x="437.5" y="1066.4034">isOnEdge(aTile) : Boolean</text></g><!--class EP_PlayBEventHandler--><g id="elem_EP_PlayBEventHandler"><rect codeLine="58" fill="#F1F1F1" height="48" id="EP_PlayBEventHandler" rx="2.5" ry="2.5" style="stroke:#181818;stroke-width:0.5;" width="181" x="201.5" y="1008.87"/><ellipse cx="216.5" cy="1024.87" fill="#ADD1B2" rx="11" ry="11" style="stroke:#181818;stroke-width:1.0;"/><path d="M218.9731,1031.0131 Q218.3921,1031.3119 217.7529,1031.4613 Q217.1138,1031.6107 216.4082,1031.6107 Q213.9014,1031.6107 212.5815,1029.9589 Q211.2617,1028.307 211.2617,1025.1859 Q211.2617,1022.0565 212.5815,1020.4047 Q213.9014,1018.7528 216.4082,1018.7528 Q217.1138,1018.7528 217.7612,1018.9022 Q218.4087,1019.0516 218.9731,1019.3505 L218.9731,1022.0731 Q218.3423,1021.4921 217.7488,1021.2223 Q217.1553,1020.9525 216.5244,1020.9525 Q215.1797,1020.9525 214.4949,1022.0192 Q213.8101,1023.0858 213.8101,1025.1859 Q213.8101,1027.2777 214.4949,1028.3444 Q215.1797,1029.411 216.5244,1029.411 Q217.1553,1029.411 217.7488,1029.1412 Q218.3423,1028.8715 218.9731,1028.2904 Z " fill="#000000"/><text fill="#000000" font-family="sans-serif" font-size="14" lengthAdjust="spacing" textLength="149" x="230.5" y="1030.161">EP_PlayBEventHandler</text><line style="stroke:#181818;stroke-width:0.5;" x1="202.5" x2="381.5" y1="1040.87" y2="1040.87"/><line style="stroke:#181818;stroke-width:0.5;" x1="202.5" x2="381.5" y1="1048.87" y2="1048.87"/></g><!--class EP_TowerPlacementPopUp--><g id="elem_EP_TowerPlacementPopUp"><rect codeLine="61" fill="#F1F1F1" height="113.9531" id="EP_TowerPlacementPopUp" rx="2.5" ry="2.5" style="stroke:#181818;stroke-width:0.5;" width="227" x="562.5" y="719.5"/><ellipse cx="583.8" cy="735.5" fill="#ADD1B2" rx="11" ry="11" style="stroke:#181818;stroke-width:1.0;"/><path d="M586.2731,741.6431 Q585.6921,741.9419 585.0529,742.0913 Q584.4138,742.2407 583.7082,742.2407 Q581.2014,742.2407 579.8815,740.5889 Q578.5617,738.937 578.5617,735.8159 Q578.5617,732.6865 579.8815,731.0347 Q581.2014,729.3828 583.7082,729.3828 Q584.4138,729.3828 585.0612,729.5322 Q585.7087,729.6816 586.2731,729.9805 L586.2731,732.7031 Q585.6423,732.1221 585.0488,731.8523 Q584.4553,731.5825 583.8244,731.5825 Q582.4797,731.5825 581.7949,732.6492 Q581.1101,733.7158 581.1101,735.8159 Q581.1101,737.9077 581.7949,738.9744 Q582.4797,740.041 583.8244,740.041 Q584.4553,740.041 585.0488,739.7712 Q585.6423,739.5015 586.2731,738.9204 Z " fill="#000000"/><text fill="#000000" font-family="sans-serif" font-size="14" lengthAdjust="spacing" textLength="181" x="599.2" y="740.791">EP_TowerPlacementPopUp</text><line style="stroke:#181818;stroke-width:0.5;" x1="563.5" x2="788.5" y1="751.5" y2="751.5"/><rect fill="none" height="6" style="stroke:#C82930;stroke-width:1.0;" width="6" x="570.5" y="762.2441"/><text fill="#000000" font-family="sans-serif" font-size="14" lengthAdjust="spacing" textLength="21" x="582.5" y="769.0352">tile</text><rect fill="none" height="6" style="stroke:#C82930;stroke-width:1.0;" width="6" x="570.5" y="778.7324"/><text fill="#000000" font-family="sans-serif" font-size="14" lengthAdjust="spacing" textLength="41" x="582.5" y="785.5234">board</text><line style="stroke:#181818;stroke-width:0.5;" x1="563.5" x2="788.5" y1="792.4766" y2="792.4766"/><ellipse cx="573.5" cy="806.2207" fill="#84BE84" rx="3" ry="3" style="stroke:#038048;stroke-width:1.0;"/><text fill="#000000" font-family="sans-serif" font-size="14" lengthAdjust="spacing" textLength="187" x="582.5" y="810.0117">initializeWith(aBoard, aTile)</text><ellipse cx="573.5" cy="822.709" fill="#84BE84" rx="3" ry="3" style="stroke:#038048;stroke-width:1.0;"/><text fill="#000000" font-family="sans-serif" font-size="14" lengthAdjust="spacing" textLength="201" x="582.5" y="826.5">placeTowerWithAsset(aAsset)</text></g><!--class EP_GameMode--><g id="elem_EP_GameMode"><rect codeLine="68" fill="#F1F1F1" height="130.4414" id="EP_GameMode" rx="2.5" ry="2.5" style="stroke:#181818;stroke-width:0.5;" width="179" x="379.5" y="41"/><ellipse cx="415.65" cy="57" fill="#ADD1B2" rx="11" ry="11" style="stroke:#181818;stroke-width:1.0;"/><path d="M418.1231,63.1431 Q417.5421,63.4419 416.9029,63.5913 Q416.2638,63.7407 415.5582,63.7407 Q413.0514,63.7407 411.7315,62.0889 Q410.4117,60.437 410.4117,57.3159 Q410.4117,54.1865 411.7315,52.5347 Q413.0514,50.8828 415.5582,50.8828 Q416.2638,50.8828 416.9112,51.0322 Q417.5587,51.1816 418.1231,51.4805 L418.1231,54.2031 Q417.4923,53.6221 416.8988,53.3523 Q416.3053,53.0825 415.6744,53.0825 Q414.3297,53.0825 413.6449,54.1492 Q412.9601,55.2158 412.9601,57.3159 Q412.9601,59.4077 413.6449,60.4744 Q414.3297,61.541 415.6744,61.541 Q416.3053,61.541 416.8988,61.2712 Q417.4923,61.0015 418.1231,60.4204 Z " fill="#000000"/><text fill="#000000" font-family="sans-serif" font-size="14" lengthAdjust="spacing" textLength="100" x="434.35" y="62.291">EP_GameMode</text><line style="stroke:#181818;stroke-width:0.5;" x1="380.5" x2="557.5" y1="73" y2="73"/><rect fill="none" height="6" style="stroke:#C82930;stroke-width:1.0;" width="6" x="387.5" y="83.7441"/><text fill="#000000" font-family="sans-serif" font-size="14" lengthAdjust="spacing" textLength="53" x="399.5" y="90.5352">window</text><rect fill="none" height="6" style="stroke:#C82930;stroke-width:1.0;" width="6" x="387.5" y="100.2324"/><text fill="#000000" font-family="sans-serif" font-size="14" lengthAdjust="spacing" textLength="66" x="399.5" y="107.0234">mainView</text><rect fill="none" height="6" style="stroke:#C82930;stroke-width:1.0;" width="6" x="387.5" y="116.7207"/><text fill="#000000" font-family="sans-serif" font-size="14" lengthAdjust="spacing" textLength="82" x="399.5" y="123.5117">bottomView</text><line style="stroke:#181818;stroke-width:0.5;" x1="380.5" x2="557.5" y1="130.4648" y2="130.4648"/><ellipse cx="390.5" cy="144.209" fill="#84BE84" rx="3" ry="3" style="stroke:#038048;stroke-width:1.0;"/><text fill="#000000" font-family="sans-serif" font-size="14" lengthAdjust="spacing" textLength="153" x="399.5" y="148">switchTo(aModeClass)</text><ellipse cx="390.5" cy="160.6973" fill="#84BE84" rx="3" ry="3" style="stroke:#038048;stroke-width:1.0;"/><text fill="#000000" font-family="sans-serif" font-size="14" lengthAdjust="spacing" textLength="111" x="399.5" y="164.4883">takeOver(aArgs)</text></g><!--class EP_Menu--><g id="elem_EP_Menu"><rect codeLine="76" fill="#F1F1F1" height="113.9531" id="EP_Menu" rx="2.5" ry="2.5" style="stroke:#181818;stroke-width:0.5;" width="127" x="150.5" y="471.34"/><ellipse cx="180.8" cy="487.34" fill="#ADD1B2" rx="11" ry="11" style="stroke:#181818;stroke-width:1.0;"/><path d="M183.2731,493.4831 Q182.6921,493.7819 182.0529,493.9313 Q181.4138,494.0807 180.7082,494.0807 Q178.2014,494.0807 176.8815,492.4289 Q175.5617,490.777 175.5617,487.6559 Q175.5617,484.5265 176.8815,482.8747 Q178.2014,481.2228 180.7082,481.2228 Q181.4138,481.2228 182.0612,481.3722 Q182.7087,481.5216 183.2731,481.8205 L183.2731,484.5431 Q182.6423,483.9621 182.0488,483.6923 Q181.4553,483.4225 180.8244,483.4225 Q179.4797,483.4225 178.7949,484.4892 Q178.1101,485.5558 178.1101,487.6559 Q178.1101,489.7477 178.7949,490.8144 Q179.4797,491.881 180.8244,491.881 Q181.4553,491.881 182.0488,491.6112 Q182.6423,491.3415 183.2731,490.7604 Z " fill="#000000"/><text fill="#000000" font-family="sans-serif" font-size="14" lengthAdjust="spacing" textLength="61" x="198.2" y="492.631">EP_Menu</text><line style="stroke:#181818;stroke-width:0.5;" x1="151.5" x2="276.5" y1="503.34" y2="503.34"/><rect fill="none" height="6" style="stroke:#C82930;stroke-width:1.0;" width="6" x="158.5" y="514.0841"/><text fill="#000000" font-family="sans-serif" font-size="14" lengthAdjust="spacing" textLength="61" x="170.5" y="520.8752">manager</text><line style="stroke:#181818;stroke-width:0.5;" x1="151.5" x2="276.5" y1="527.8283" y2="527.8283"/><ellipse cx="161.5" cy="541.5724" fill="#84BE84" rx="3" ry="3" style="stroke:#038048;stroke-width:1.0;"/><text fill="#000000" font-family="sans-serif" font-size="14" lengthAdjust="spacing" textLength="101" x="170.5" y="545.3634">editorClicked()</text><ellipse cx="161.5" cy="558.0607" fill="#84BE84" rx="3" ry="3" style="stroke:#038048;stroke-width:1.0;"/><text fill="#000000" font-family="sans-serif" font-size="14" lengthAdjust="spacing" textLength="88" x="170.5" y="561.8517">playClicked()</text><ellipse cx="161.5" cy="574.549" fill="#84BE84" rx="3" ry="3" style="stroke:#038048;stroke-width:1.0;"/><text fill="#000000" font-family="sans-serif" font-size="14" lengthAdjust="spacing" textLength="87" x="170.5" y="578.34">quitClicked()</text></g><!--class EP_MenuMode--><g id="elem_EP_MenuMode"><rect codeLine="83" fill="#F1F1F1" height="97.4648" id="EP_MenuMode" rx="2.5" ry="2.5" style="stroke:#181818;stroke-width:0.5;" width="131" x="148.5" y="239.68"/><ellipse cx="163.5" cy="255.68" fill="#ADD1B2" rx="11" ry="11" style="stroke:#181818;stroke-width:1.0;"/><path d="M165.9731,261.8231 Q165.3921,262.1219 164.7529,262.2713 Q164.1138,262.4207 163.4082,262.4207 Q160.9014,262.4207 159.5815,260.7689 Q158.2617,259.117 158.2617,255.9959 Q158.2617,252.8665 159.5815,251.2147 Q160.9014,249.5628 163.4082,249.5628 Q164.1138,249.5628 164.7612,249.7122 Q165.4087,249.8616 165.9731,250.1605 L165.9731,252.8831 Q165.3423,252.3021 164.7488,252.0323 Q164.1553,251.7625 163.5244,251.7625 Q162.1797,251.7625 161.4949,252.8292 Q160.8101,253.8958 160.8101,255.9959 Q160.8101,258.0877 161.4949,259.1544 Q162.1797,260.221 163.5244,260.221 Q164.1553,260.221 164.7488,259.9512 Q165.3423,259.6815 165.9731,259.1004 Z " fill="#000000"/><text fill="#000000" font-family="sans-serif" font-size="14" lengthAdjust="spacing" textLength="99" x="177.5" y="260.971">EP_MenuMode</text><line style="stroke:#181818;stroke-width:0.5;" x1="149.5" x2="278.5" y1="271.68" y2="271.68"/><line style="stroke:#181818;stroke-width:0.5;" x1="149.5" x2="278.5" y1="279.68" y2="279.68"/><ellipse cx="159.5" cy="293.4241" fill="#84BE84" rx="3" ry="3" style="stroke:#038048;stroke-width:1.0;"/><text fill="#000000" font-family="sans-serif" font-size="14" lengthAdjust="spacing" textLength="68" x="168.5" y="297.2152">initialize()</text><ellipse cx="159.5" cy="309.9124" fill="#84BE84" rx="3" ry="3" style="stroke:#038048;stroke-width:1.0;"/><text fill="#000000" font-family="sans-serif" font-size="14" lengthAdjust="spacing" textLength="82" x="168.5" y="313.7034">startEditor()</text><ellipse cx="159.5" cy="326.4007" fill="#84BE84" rx="3" ry="3" style="stroke:#038048;stroke-width:1.0;"/><text fill="#000000" font-family="sans-serif" font-size="14" lengthAdjust="spacing" textLength="77" x="168.5" y="330.1917">playGame()</text></g><!--class EP_PlayMode--><g id="elem_EP_PlayMode"><rect codeLine="89" fill="#F1F1F1" height="113.9531" id="EP_PlayMode" rx="2.5" ry="2.5" style="stroke:#181818;stroke-width:0.5;" width="137" x="314.5" y="231.44"/><ellipse cx="337.15" cy="247.44" fill="#ADD1B2" rx="11" ry="11" style="stroke:#181818;stroke-width:1.0;"/><path d="M339.6231,253.5831 Q339.0421,253.8819 338.4029,254.0313 Q337.7638,254.1807 337.0582,254.1807 Q334.5514,254.1807 333.2315,252.5289 Q331.9117,250.877 331.9117,247.7559 Q331.9117,244.6265 333.2315,242.9747 Q334.5514,241.3228 337.0582,241.3228 Q337.7638,241.3228 338.4112,241.4722 Q339.0587,241.6216 339.6231,241.9205 L339.6231,244.6431 Q338.9923,244.0621 338.3988,243.7923 Q337.8053,243.5225 337.1744,243.5225 Q335.8297,243.5225 335.1449,244.5892 Q334.4601,245.6558 334.4601,247.7559 Q334.4601,249.8477 335.1449,250.9144 Q335.8297,251.981 337.1744,251.981 Q337.8053,251.981 338.3988,251.7112 Q338.9923,251.4415 339.6231,250.8604 Z " fill="#000000"/><text fill="#000000" font-family="sans-serif" font-size="14" lengthAdjust="spacing" textLength="88" x="352.85" y="252.731">EP_PlayMode</text><line style="stroke:#181818;stroke-width:0.5;" x1="315.5" x2="450.5" y1="263.44" y2="263.44"/><rect fill="none" height="6" style="stroke:#C82930;stroke-width:1.0;" width="6" x="322.5" y="274.1841"/><text fill="#000000" font-family="sans-serif" font-size="14" lengthAdjust="spacing" textLength="64" x="334.5" y="280.9752">submode</text><line style="stroke:#181818;stroke-width:0.5;" x1="315.5" x2="450.5" y1="287.9283" y2="287.9283"/><ellipse cx="325.5" cy="301.6724" fill="#84BE84" rx="3" ry="3" style="stroke:#038048;stroke-width:1.0;"/><text fill="#000000" font-family="sans-serif" font-size="14" lengthAdjust="spacing" textLength="111" x="334.5" y="305.4634">takeOver(aArgs)</text><ellipse cx="325.5" cy="318.1607" fill="#84BE84" rx="3" ry="3" style="stroke:#038048;stroke-width:1.0;"/><text fill="#000000" font-family="sans-serif" font-size="14" lengthAdjust="spacing" textLength="79" x="334.5" y="321.9517">stopGame()</text><ellipse cx="325.5" cy="334.649" fill="#84BE84" rx="3" ry="3" style="stroke:#038048;stroke-width:1.0;"/><text fill="#000000" font-family="sans-serif" font-size="14" lengthAdjust="spacing" textLength="87" x="334.5" y="338.44">goToEditor()</text></g><!--class EP_EditorMode--><g id="elem_EP_EditorMode"><rect codeLine="96" fill="#F1F1F1" height="113.9531" id="EP_EditorMode" rx="2.5" ry="2.5" style="stroke:#181818;stroke-width:0.5;" width="137" x="486.5" y="231.44"/><ellipse cx="502.85" cy="247.44" fill="#ADD1B2" rx="11" ry="11" style="stroke:#181818;stroke-width:1.0;"/><path d="M505.3231,253.5831 Q504.7421,253.8819 504.1029,254.0313 Q503.4638,254.1807 502.7582,254.1807 Q500.2514,254.1807 498.9315,252.5289 Q497.6117,250.877 497.6117,247.7559 Q497.6117,244.6265 498.9315,242.9747 Q500.2514,241.3228 502.7582,241.3228 Q503.4638,241.3228 504.1112,241.4722 Q504.7587,241.6216 505.3231,241.9205 L505.3231,244.6431 Q504.6923,244.0621 504.0988,243.7923 Q503.5053,243.5225 502.8744,243.5225 Q501.5297,243.5225 500.8449,244.5892 Q500.1601,245.6558 500.1601,247.7559 Q500.1601,249.8477 500.8449,250.9144 Q501.5297,251.981 502.8744,251.981 Q503.5053,251.981 504.0988,251.7112 Q504.6923,251.4415 505.3231,250.8604 Z " fill="#000000"/><text fill="#000000" font-family="sans-serif" font-size="14" lengthAdjust="spacing" textLength="102" x="517.15" y="252.731">EP_EditorMode</text><line style="stroke:#181818;stroke-width:0.5;" x1="487.5" x2="622.5" y1="263.44" y2="263.44"/><rect fill="none" height="6" style="stroke:#C82930;stroke-width:1.0;" width="6" x="494.5" y="274.1841"/><text fill="#000000" font-family="sans-serif" font-size="14" lengthAdjust="spacing" textLength="41" x="506.5" y="280.9752">phase</text><line style="stroke:#181818;stroke-width:0.5;" x1="487.5" x2="622.5" y1="287.9283" y2="287.9283"/><ellipse cx="497.5" cy="301.6724" fill="#84BE84" rx="3" ry="3" style="stroke:#038048;stroke-width:1.0;"/><text fill="#000000" font-family="sans-serif" font-size="14" lengthAdjust="spacing" textLength="68" x="506.5" y="305.4634">initialize()</text><ellipse cx="497.5" cy="318.1607" fill="#84BE84" rx="3" ry="3" style="stroke:#038048;stroke-width:1.0;"/><text fill="#000000" font-family="sans-serif" font-size="14" lengthAdjust="spacing" textLength="67" x="506.5" y="321.9517">playMap()</text><ellipse cx="497.5" cy="334.649" fill="#84BE84" rx="3" ry="3" style="stroke:#038048;stroke-width:1.0;"/><text fill="#000000" font-family="sans-serif" font-size="14" lengthAdjust="spacing" textLength="111" x="506.5" y="338.44">takeOver(aArgs)</text></g><!--class EP_GameWindow--><g id="elem_EP_GameWindow"><rect codeLine="103" fill="#F1F1F1" height="113.9531" id="EP_GameWindow" rx="2.5" ry="2.5" style="stroke:#181818;stroke-width:0.5;" width="148" x="659" y="231.44"/><ellipse cx="674" cy="247.44" fill="#ADD1B2" rx="11" ry="11" style="stroke:#181818;stroke-width:1.0;"/><path d="M676.4731,253.5831 Q675.8921,253.8819 675.2529,254.0313 Q674.6138,254.1807 673.9082,254.1807 Q671.4014,254.1807 670.0815,252.5289 Q668.7617,250.877 668.7617,247.7559 Q668.7617,244.6265 670.0815,242.9747 Q671.4014,241.3228 673.9082,241.3228 Q674.6138,241.3228 675.2612,241.4722 Q675.9087,241.6216 676.4731,241.9205 L676.4731,244.6431 Q675.8423,244.0621 675.2488,243.7923 Q674.6553,243.5225 674.0244,243.5225 Q672.6797,243.5225 671.9949,244.5892 Q671.3101,245.6558 671.3101,247.7559 Q671.3101,249.8477 671.9949,250.9144 Q672.6797,251.981 674.0244,251.981 Q674.6553,251.981 675.2488,251.7112 Q675.8423,251.4415 676.4731,250.8604 Z " fill="#000000"/><text fill="#000000" font-family="sans-serif" font-size="14" lengthAdjust="spacing" textLength="116" x="688" y="252.731">EP_GameWindow</text><line style="stroke:#181818;stroke-width:0.5;" x1="660" x2="806" y1="263.44" y2="263.44"/><rect fill="none" height="6" style="stroke:#C82930;stroke-width:1.0;" width="6" x="667" y="274.1841"/><text fill="#000000" font-family="sans-serif" font-size="14" lengthAdjust="spacing" textLength="66" x="679" y="280.9752">mainView</text><rect fill="none" height="6" style="stroke:#C82930;stroke-width:1.0;" width="6" x="667" y="290.6724"/><text fill="#000000" font-family="sans-serif" font-size="14" lengthAdjust="spacing" textLength="82" x="679" y="297.4634">bottomView</text><line style="stroke:#181818;stroke-width:0.5;" x1="660" x2="806" y1="304.4166" y2="304.4166"/><ellipse cx="670" cy="318.1607" fill="#84BE84" rx="3" ry="3" style="stroke:#038048;stroke-width:1.0;"/><text fill="#000000" font-family="sans-serif" font-size="14" lengthAdjust="spacing" textLength="80" x="679" y="321.9517">adjustSize()</text><ellipse cx="670" cy="334.649" fill="#84BE84" rx="3" ry="3" style="stroke:#038048;stroke-width:1.0;"/><text fill="#000000" font-family="sans-serif" font-size="14" lengthAdjust="spacing" textLength="112" x="679" y="338.44">openInWindow()</text></g><!--class EP_NotAGameManager--><g id="elem_EP_NotAGameManager"><rect codeLine="110" fill="#F1F1F1" height="130.4414" id="EP_NotAGameManager" rx="2.5" ry="2.5" style="stroke:#181818;stroke-width:0.5;" width="188" x="37" y="711.25"/><ellipse cx="52" cy="727.25" fill="#ADD1B2" rx="11" ry="11" style="stroke:#181818;stroke-width:1.0;"/><path d="M54.4731,733.3931 Q53.8921,733.6919 53.2529,733.8413 Q52.6138,733.9907 51.9082,733.9907 Q49.4014,733.9907 48.0815,732.3389 Q46.7617,730.687 46.7617,727.5659 Q46.7617,724.4365 48.0815,722.7847 Q49.4014,721.1328 51.9082,721.1328 Q52.6138,721.1328 53.2612,721.2822 Q53.9087,721.4316 54.4731,721.7305 L54.4731,724.4531 Q53.8423,723.8721 53.2488,723.6023 Q52.6553,723.3325 52.0244,723.3325 Q50.6797,723.3325 49.9949,724.3992 Q49.3101,725.4658 49.3101,727.5659 Q49.3101,729.6577 49.9949,730.7244 Q50.6797,731.791 52.0244,731.791 Q52.6553,731.791 53.2488,731.5212 Q53.8423,731.2515 54.4731,730.6704 Z " fill="#000000"/><text fill="#000000" font-family="sans-serif" font-size="14" lengthAdjust="spacing" textLength="156" x="66" y="732.541">EP_NotAGameManager</text><line style="stroke:#181818;stroke-width:0.5;" x1="38" x2="224" y1="743.25" y2="743.25"/><rect fill="none" height="6" style="stroke:#C82930;stroke-width:1.0;" width="6" x="45" y="753.9941"/><text fill="#000000" font-family="sans-serif" font-size="14" lengthAdjust="spacing" textLength="26" x="57" y="760.7852">way</text><rect fill="none" height="6" style="stroke:#C82930;stroke-width:1.0;" width="6" x="45" y="770.4824"/><text fill="#000000" font-family="sans-serif" font-size="14" lengthAdjust="spacing" textLength="30" x="57" y="777.2734">map</text><rect fill="none" height="6" style="stroke:#C82930;stroke-width:1.0;" width="6" x="45" y="786.9707"/><text fill="#000000" font-family="sans-serif" font-size="14" lengthAdjust="spacing" textLength="46" x="57" y="793.7617">money</text><rect fill="none" height="6" style="stroke:#C82930;stroke-width:1.0;" width="6" x="45" y="803.459"/><text fill="#000000" font-family="sans-serif" font-size="14" lengthAdjust="spacing" textLength="30" x="57" y="810.25">lives</text><line style="stroke:#181818;stroke-width:0.5;" x1="38" x2="224" y1="817.2031" y2="817.2031"/><ellipse cx="48" cy="830.9473" fill="#84BE84" rx="3" ry="3" style="stroke:#038048;stroke-width:1.0;"/><text fill="#000000" font-family="sans-serif" font-size="14" lengthAdjust="spacing" textLength="99" x="57" y="834.7383">spawnEnemy()</text></g><!--link EP_Board to EP_Tile--><g id="link_EP_Board_EP_Tile"><path codeLine="118" d="M697.7225,611.9259 C736.9725,639.7259 765.86,668.21 789.5,711.25 C828.29,781.87 829.6423,868.9271 826.3423,936.5771 " fill="none" id="EP_Board-EP_Tile" style="stroke:#181818;stroke-width:1.0;"/><polygon fill="#181818" points="687.93,604.99,690.5143,611.7221,697.7225,611.9259,695.1382,605.1938,687.93,604.99" style="stroke:#181818;stroke-width:1.0;"/><polygon fill="#181818" points="826.05,942.57,830.4838,933.7756,826.2936,937.5759,822.4933,933.3858,826.05,942.57" style="stroke:#181818;stroke-width:1.0;"/></g><!--link EP_Tile to EP_Board--><g id="link_EP_Tile_EP_Board"><path codeLine="134" d="M854.76,942.57 C864.35,874.92 863.29,781.87 824.5,711.25 C794.43,656.51 745.2288,617.0754 693.0388,587.0054 " fill="none" id="EP_Tile-to-EP_Board" style="stroke:#181818;stroke-width:1.0;"/><polygon fill="#181818" points="687.84,584.01,693.6413,591.9689,692.1724,586.5061,697.6351,585.0372,687.84,584.01" style="stroke:#181818;stroke-width:1.0;"/></g><!--link EP_Board to EP_BoardEventHandler--><g id="link_EP_Board_EP_BoardEventHandler"><path codeLine="119" d="M495.35,651.68 C482.23,678.58 471.7179,700.1361 461.0679,721.9961 " fill="none" id="EP_Board-to-EP_BoardEventHandler" style="stroke:#181818;stroke-width:1.0;"/><polygon fill="#181818" points="458.44,727.39,465.9777,721.051,460.6299,722.8951,458.7859,717.5472,458.44,727.39" style="stroke:#181818;stroke-width:1.0;"/></g><!--reverse link EP_BoardEventHandler to EP_EditorBEventHandler--><g id="link_EP_BoardEventHandler_EP_EditorBEventHandler"><path codeLine="120" d="M462.9646,842.1413 C483.8346,890.4013 508.42,947.28 527.88,992.26 " fill="none" id="EP_BoardEventHandler-backto-EP_EditorBEventHandler" style="stroke:#181818;stroke-width:1.0;"/><polygon fill="none" points="455.82,825.62,457.4575,844.5229,468.4717,839.7598,455.82,825.62" style="stroke:#181818;stroke-width:1.0;"/></g><!--reverse link EP_BoardEventHandler to EP_PlayBEventHandler--><g id="link_EP_BoardEventHandler_EP_PlayBEventHandler"><path codeLine="121" d="M399.1112,841.3117 C368.4312,895.9017 328.47,967 305.19,1008.4 " fill="none" id="EP_BoardEventHandler-backto-EP_PlayBEventHandler" style="stroke:#181818;stroke-width:1.0;"/><polygon fill="none" points="407.93,825.62,393.8806,838.372,404.3417,844.2513,407.93,825.62" style="stroke:#181818;stroke-width:1.0;"/></g><!--link EP_Board to EP_Enemy--><g id="link_EP_Board_EP_Enemy"><path codeLine="122" d="M412.7389,629.5678 C379.0689,656.2778 353.74,679.41 325,711.25 C278.97,762.27 284.54,787.73 242,841.69 C219.04,870.82 207.51,873.01 184,901.69 C178.08,908.92 175.7509,911.7282 169.9109,919.4782 " fill="none" id="EP_Board-EP_Enemy" style="stroke:#181818;stroke-width:1.0;"/><polygon fill="#181818" points="422.14,622.11,414.9535,622.7052,412.7389,629.5678,419.9254,628.9726,422.14,622.11" style="stroke:#181818;stroke-width:1.0;"/><polygon fill="#181818" points="166.3,924.27,174.9109,919.4895,169.3091,920.2768,168.5218,914.675,166.3,924.27" style="stroke:#181818;stroke-width:1.0;"/></g><!--link EP_Board to EP_TowerPlacementPopUp--><g id="link_EP_Board_EP_TowerPlacementPopUp"><path codeLine="123" d="M615.15,651.68 C626.77,675.32 635.7619,693.626 645.7119,713.856 " fill="none" id="EP_Board-to-EP_TowerPlacementPopUp" style="stroke:#181818;stroke-width:1.0;"/><polygon fill="#181818" points="648.36,719.24,647.9772,709.3986,646.1533,714.7533,640.7985,712.9294,648.36,719.24" style="stroke:#181818;stroke-width:1.0;"/></g><!--reverse link EP_GameMode to EP_MenuMode--><g id="link_EP_GameMode_EP_MenuMode"><path codeLine="124" d="M364.3983,181.1356 C331.6983,204.2356 310.09,219.51 279.86,240.87 " fill="none" id="EP_GameMode-backto-EP_MenuMode" style="stroke:#181818;stroke-width:1.0;"/><polygon fill="none" points="379.1,170.75,360.9365,176.235,367.8602,186.0362,379.1,170.75" style="stroke:#181818;stroke-width:1.0;"/></g><!--reverse link EP_GameMode to EP_EditorMode--><g id="link_EP_GameMode_EP_EditorMode"><path codeLine="125" d="M507.5602,188.0061 C516.8102,207.3961 519.13,212.26 528.11,231.08 " fill="none" id="EP_GameMode-backto-EP_EditorMode" style="stroke:#181818;stroke-width:1.0;"/><polygon fill="none" points="499.81,171.76,502.1448,190.5895,512.9755,185.4227,499.81,171.76" style="stroke:#181818;stroke-width:1.0;"/></g><!--reverse link EP_GameMode to EP_PlayMode--><g id="link_EP_GameMode_EP_PlayMode"><path codeLine="126" d="M430.4398,188.0061 C421.1898,207.3961 418.87,212.26 409.89,231.08 " fill="none" id="EP_GameMode-backto-EP_PlayMode" style="stroke:#181818;stroke-width:1.0;"/><polygon fill="none" points="438.19,171.76,425.0245,185.4227,435.8552,190.5895,438.19,171.76" style="stroke:#181818;stroke-width:1.0;"/></g><!--link EP_MenuMode to EP_Menu--><g id="link_EP_MenuMode_EP_Menu"><path codeLine="127" d="M214,337.56 C214,376.12 214,424.29 214,464.88 " fill="none" id="EP_MenuMode-to-EP_Menu" style="stroke:#181818;stroke-width:1.0;"/><polygon fill="#181818" points="214,470.88,218,461.88,214,465.88,210,461.88,214,470.88" style="stroke:#181818;stroke-width:1.0;"/></g><!--link EP_GameMode to EP_GameWindow--><g id="link_EP_GameMode_EP_GameWindow"><path codeLine="128" d="M558.75,168.48 C591.33,190.72 622.8043,212.1976 653.8943,233.4176 " fill="none" id="EP_GameMode-to-EP_GameWindow" style="stroke:#181818;stroke-width:1.0;"/><polygon fill="#181818" points="658.85,236.8,653.6714,228.4225,654.7202,233.9813,649.1615,235.0301,658.85,236.8" style="stroke:#181818;stroke-width:1.0;"/></g><!--link EP_PlayMode to EP_Board--><g id="link_EP_PlayMode_EP_Board"><path codeLine="129" d="M423.76,345.8 C436.78,363.8 448.2043,379.6079 463.2443,400.4079 " fill="none" id="EP_PlayMode-to-EP_Board" style="stroke:#181818;stroke-width:1.0;"/><polygon fill="#181818" points="466.76,405.27,464.7279,395.6331,463.8303,401.2182,458.2451,400.3206,466.76,405.27" style="stroke:#181818;stroke-width:1.0;"/></g><!--link EP_EditorMode to EP_Board--><g id="link_EP_EditorMode_EP_Board"><path codeLine="130" d="M555,345.8 C555,363.8 555,378.47 555,399.27 " fill="none" id="EP_EditorMode-to-EP_Board" style="stroke:#181818;stroke-width:1.0;"/><polygon fill="#181818" points="555,405.27,559,396.27,555,400.27,551,396.27,555,405.27" style="stroke:#181818;stroke-width:1.0;"/></g><!--link EP_PlayMode to EP_NotAGameManager--><g id="link_EP_PlayMode_EP_NotAGameManager"><path codeLine="131" d="M380.85,345.78 C375.55,421.15 357.32,556.25 295,651.25 C277.17,678.43 251.3,701.98 225.35,721.05 " fill="none" id="EP_PlayMode-EP_NotAGameManager" style="stroke:#181818;stroke-width:1.0;stroke-dasharray:7.0,7.0;"/></g><!--link EP_NotAGameManager to EP_Enemy--><g id="link_EP_NotAGameManager_EP_Enemy"><path codeLine="132" d="M119.8892,853.8745 C117.2292,872.1245 116.8322,874.8623 113.8322,895.5223 " fill="none" id="EP_NotAGameManager-EP_Enemy" style="stroke:#181818;stroke-width:1.0;"/><polygon fill="#181818" points="121.62,842,116.7964,847.3603,119.8892,853.8745,124.7128,848.5142,121.62,842" style="stroke:#181818;stroke-width:1.0;"/><polygon fill="#181818" points="112.97,901.46,118.2218,893.1282,113.6885,896.5119,110.3048,891.9786,112.97,901.46" style="stroke:#181818;stroke-width:1.0;"/></g><!--link EP_TowerPlacementPopUp to EP_Tile--><g id="link_EP_TowerPlacementPopUp_EP_Tile"><path codeLine="133" d="M709.29,833.93 C728.11,865.84 749.0129,901.2913 770.3129,937.4213 " fill="none" id="EP_TowerPlacementPopUp-to-EP_Tile" style="stroke:#181818;stroke-width:1.0;"/><polygon fill="#181818" points="773.36,942.59,772.2351,932.8056,770.8207,938.2828,765.3435,936.8684,773.36,942.59" style="stroke:#181818;stroke-width:1.0;"/></g><!--SRC=[ZLPBRzim3BxdL_YOBak1xJWC0v8Yw0OihO5awt5WRIBHOekU9CVD7lzzach7aYodzSNcGoBryIFb2h83x33PF2nk1TNLk_V9dybaakWdAq3AP9N-M1A8NAkJzfahLg3inKTZtx3Vw7lucWPEmOhL4Rdw33mlK3WhgK6H5f1XgSqfLT-gYqOloennfXWKMZUzwhM3S9UDq7uuJXBLDenTLrEmByVF8ZEzIZuaQr22FLdBlm3FhNRou6oM978KDrIG243gnT9k-9KoK8nuhwSigok6ZcT1sS6HPvb0KBWTOkV2K1cBzPc2VJasWIKTM-DLz4WhZkN9FLCEfQPLB-yH2hNlPLcXcxB7ZeeayyzO2Te9bD8dM3hGvamgu1ccA3OA7U98BKcjDT3tsXsKk0Qk4nKlKUZ0YiAL3I2BWlWk1RKV0MKPCii5g0pY1kMsJBefcAcaBeWMHe3FcIAn78aoO_8EdpHrKu57HhLijzByN18L2DnrlUUhV8Tnbp2k9j8f5dN0zI7hmaao2a5VYGUcGGQBvzl4GIDWhd5RIDshKx2lE6ItfkgKUotOC9vJurQ7yUyC6pStfQZqT3FPC9NjjpG5iz-D2U3E0ZZW_T7qqqBiP3oNDVBw4YjcQElR4S4_zIcY_bKpvQjZ8OFZZt1Uzv9GpmGB8niCH_Otp0ZXbVLZgLMNiMbZKkLiRdKxsfANHhm9mg3L7kIBLuCvp1gyIVYQkfaK7ond_EgzXZMG_wobsWI9K8Ny2t_US-IOTwGMj_t8ylZhpiyIdCbN4aV7Lh2ZStNFP0KDjyFRZtc-zT_Cvv-wEyktj8Pbz2gFJh-FV-VpaPdrygB1m8ddQSyIJNGxycFXJeGkMDSZemuzuqPTkZxe7Cvzr-PZvC7YrjRJg_CuTvKBUsTq-1ypdzTUNrz7UDIvXVIAGXgRvn6As5ySBvV9lyb_]--></g></svg>