<?xml version="1.0" encoding="us-ascii" standalone="no"?><svg xmlns="http://www.w3.org/2000/svg" xmlns:xlink="http://www.w3.org/1999/xlink" contentStyleType="text/css" height="1236px" preserveAspectRatio="none" style="width:1194px;height:1236px;background:#FFFFFF;" version="1.1" viewBox="0 0 1194 1236" width="1194px" zoomAndPan="magnify"><defs/><g><!--cluster SWAGroup12--><g id="cluster_SWAGroup12"><path d="M8.5,6 L101.5,6 A3.75,3.75 0 0 1 104,8.5 L111,28.4883 L1184.5,28.4883 A2.5,2.5 0 0 1 1187,30.9883 L1187,1227.01 A2.5,2.5 0 0 1 1184.5,1229.51 L8.5,1229.51 A2.5,2.5 0 0 1 6,1227.01 L6,8.5 A2.5,2.5 0 0 1 8.5,6 " fill="none" style="stroke:#000000;stroke-width:1.5;"/><line style="stroke:#000000;stroke-width:1.5;" x1="6" x2="111" y1="28.4883" y2="28.4883"/><text fill="#000000" font-family="sans-serif" font-size="14" font-weight="bold" lengthAdjust="spacing" textLength="92" x="10" y="21.5352">SWAGroup12</text></g><!--class CommanderCody--><g id="elem_CommanderCody"><rect codeLine="4" fill="#F1F1F1" height="80.9766" id="CommanderCody" rx="2.5" ry="2.5" style="stroke:#181818;stroke-width:0.5;" width="293" x="21.5" y="247.93"/><ellipse cx="103.75" cy="263.93" fill="#ADD1B2" rx="11" ry="11" style="stroke:#181818;stroke-width:1.0;"/><path d="M106.2231,270.0731 Q105.6421,270.3719 105.0029,270.5213 Q104.3638,270.6707 103.6582,270.6707 Q101.1514,270.6707 99.8315,269.0189 Q98.5117,267.367 98.5117,264.2459 Q98.5117,261.1165 99.8315,259.4647 Q101.1514,257.8128 103.6582,257.8128 Q104.3638,257.8128 105.0112,257.9622 Q105.6587,258.1116 106.2231,258.4105 L106.2231,261.1331 Q105.5923,260.5521 104.9988,260.2823 Q104.4053,260.0125 103.7744,260.0125 Q102.4297,260.0125 101.7449,261.0792 Q101.0601,262.1458 101.0601,264.2459 Q101.0601,266.3377 101.7449,267.4044 Q102.4297,268.471 103.7744,268.471 Q104.4053,268.471 104.9988,268.2012 Q105.5923,267.9315 106.2231,267.3504 Z " fill="#000000"/><text fill="#000000" font-family="sans-serif" font-size="14" lengthAdjust="spacing" textLength="120" x="124.25" y="269.221">CommanderCody</text><line style="stroke:#181818;stroke-width:0.5;" x1="22.5" x2="313.5" y1="279.93" y2="279.93"/><line style="stroke:#181818;stroke-width:0.5;" x1="22.5" x2="313.5" y1="287.93" y2="287.93"/><ellipse cx="32.5" cy="301.6741" fill="#84BE84" rx="3" ry="3" style="stroke:#038048;stroke-width:1.0;"/><text fill="#000000" font-family="sans-serif" font-size="14" lengthAdjust="spacing" textLength="267" x="41.5" y="305.4652">TheTimeHasCome() : CommanderCody</text><ellipse cx="32.5" cy="318.1624" fill="#84BE84" rx="3" ry="3" style="stroke:#038048;stroke-width:1.0;"/><text fill="#000000" font-family="sans-serif" font-size="14" lengthAdjust="spacing" textLength="163" x="41.5" y="321.9534">ExecuteOrder66() : void</text></g><!--class EP_Board--><g id="elem_EP_Board"><rect codeLine="9" fill="#F1F1F1" height="245.8594" id="EP_Board" rx="2.5" ry="2.5" style="stroke:#181818;stroke-width:0.5;" width="265" x="261.5" y="405.4"/><ellipse cx="358.25" cy="421.4" fill="#ADD1B2" rx="11" ry="11" style="stroke:#181818;stroke-width:1.0;"/><path d="M360.7231,427.5431 Q360.1421,427.8419 359.5029,427.9913 Q358.8638,428.1407 358.1582,428.1407 Q355.6514,428.1407 354.3315,426.4889 Q353.0117,424.837 353.0117,421.7159 Q353.0117,418.5865 354.3315,416.9347 Q355.6514,415.2828 358.1582,415.2828 Q358.8638,415.2828 359.5112,415.4322 Q360.1587,415.5816 360.7231,415.8805 L360.7231,418.6031 Q360.0923,418.0221 359.4988,417.7523 Q358.9053,417.4825 358.2744,417.4825 Q356.9297,417.4825 356.2449,418.5492 Q355.5601,419.6158 355.5601,421.7159 Q355.5601,423.8077 356.2449,424.8744 Q356.9297,425.941 358.2744,425.941 Q358.9053,425.941 359.4988,425.6712 Q360.0923,425.4015 360.7231,424.8204 Z " fill="#000000"/><text fill="#000000" font-family="sans-serif" font-size="14" lengthAdjust="spacing" textLength="63" x="378.75" y="426.691">EP_Board</text><line style="stroke:#181818;stroke-width:0.5;" x1="262.5" x2="525.5" y1="437.4" y2="437.4"/><rect fill="none" height="6" style="stroke:#C82930;stroke-width:1.0;" width="6" x="269.5" y="448.1441"/><text fill="#000000" font-family="sans-serif" font-size="14" lengthAdjust="spacing" textLength="28" x="281.5" y="454.9352">tiles</text><rect fill="none" height="6" style="stroke:#C82930;stroke-width:1.0;" width="6" x="269.5" y="464.6324"/><text fill="#000000" font-family="sans-serif" font-size="14" lengthAdjust="spacing" textLength="69" x="281.5" y="471.4234">boardSize</text><rect fill="none" height="6" style="stroke:#C82930;stroke-width:1.0;" width="6" x="269.5" y="481.1207"/><text fill="#000000" font-family="sans-serif" font-size="14" lengthAdjust="spacing" textLength="49" x="281.5" y="487.9117">tileSize</text><rect fill="none" height="6" style="stroke:#C82930;stroke-width:1.0;" width="6" x="269.5" y="497.609"/><text fill="#000000" font-family="sans-serif" font-size="14" lengthAdjust="spacing" textLength="26" x="281.5" y="504.4">way</text><rect fill="none" height="6" style="stroke:#C82930;stroke-width:1.0;" width="6" x="269.5" y="514.0973"/><text fill="#000000" font-family="sans-serif" font-size="14" lengthAdjust="spacing" textLength="132" x="281.5" y="520.8883">boardEventHandler</text><rect fill="none" height="6" style="stroke:#C82930;stroke-width:1.0;" width="6" x="269.5" y="530.5855"/><text fill="#000000" font-family="sans-serif" font-size="14" lengthAdjust="spacing" textLength="154" x="281.5" y="537.3766">towerPlacementPopUp</text><rect fill="none" height="6" style="stroke:#C82930;stroke-width:1.0;" width="6" x="269.5" y="547.0738"/><text fill="#000000" font-family="sans-serif" font-size="14" lengthAdjust="spacing" textLength="182" x="281.5" y="553.8648">towerPlacementPopUpSize</text><line style="stroke:#181818;stroke-width:0.5;" x1="262.5" x2="525.5" y1="560.818" y2="560.818"/><ellipse cx="272.5" cy="574.5621" fill="#84BE84" rx="3" ry="3" style="stroke:#038048;stroke-width:1.0;"/><text fill="#000000" font-family="sans-serif" font-size="14" lengthAdjust="spacing" textLength="68" x="281.5" y="578.3531">initialize()</text><ellipse cx="272.5" cy="591.0504" fill="#84BE84" rx="3" ry="3" style="stroke:#038048;stroke-width:1.0;"/><text fill="#000000" font-family="sans-serif" font-size="14" lengthAdjust="spacing" textLength="142" x="281.5" y="594.8414">boardEventHandler()</text><ellipse cx="272.5" cy="607.5387" fill="#84BE84" rx="3" ry="3" style="stroke:#038048;stroke-width:1.0;"/><text fill="#000000" font-family="sans-serif" font-size="14" lengthAdjust="spacing" textLength="204" x="281.5" y="611.3297">boardEventHandler(aHandler)</text><ellipse cx="272.5" cy="624.027" fill="#84BE84" rx="3" ry="3" style="stroke:#038048;stroke-width:1.0;"/><text fill="#000000" font-family="sans-serif" font-size="14" lengthAdjust="spacing" textLength="239" x="281.5" y="627.818">setTowerPlacementPopup(aPopup)</text><ellipse cx="272.5" cy="640.5152" fill="#84BE84" rx="3" ry="3" style="stroke:#038048;stroke-width:1.0;"/><text fill="#000000" font-family="sans-serif" font-size="14" lengthAdjust="spacing" textLength="94" x="281.5" y="644.3063">tiles() : Matrix</text></g><!--class EP_Tile--><g id="elem_EP_Tile"><rect codeLine="24" fill="#F1F1F1" height="179.9063" id="EP_Tile" rx="2.5" ry="2.5" style="stroke:#181818;stroke-width:0.5;" width="236" x="126" y="1033.6"/><ellipse cx="215.75" cy="1049.6" fill="#ADD1B2" rx="11" ry="11" style="stroke:#181818;stroke-width:1.0;"/><path d="M218.2231,1055.7431 Q217.6421,1056.0419 217.0029,1056.1913 Q216.3638,1056.3407 215.6582,1056.3407 Q213.1514,1056.3407 211.8315,1054.6889 Q210.5117,1053.037 210.5117,1049.9159 Q210.5117,1046.7865 211.8315,1045.1347 Q213.1514,1043.4828 215.6582,1043.4828 Q216.3638,1043.4828 217.0112,1043.6322 Q217.6587,1043.7816 218.2231,1044.0805 L218.2231,1046.8031 Q217.5923,1046.2221 216.9988,1045.9523 Q216.4053,1045.6825 215.7744,1045.6825 Q214.4297,1045.6825 213.7449,1046.7492 Q213.0601,1047.8158 213.0601,1049.9159 Q213.0601,1052.0077 213.7449,1053.0744 Q214.4297,1054.141 215.7744,1054.141 Q216.4053,1054.141 216.9988,1053.8712 Q217.5923,1053.6015 218.2231,1053.0204 Z " fill="#000000"/><text fill="#000000" font-family="sans-serif" font-size="14" lengthAdjust="spacing" textLength="48" x="236.25" y="1054.891">EP_Tile</text><line style="stroke:#181818;stroke-width:0.5;" x1="127" x2="361" y1="1065.6" y2="1065.6"/><rect fill="none" height="6" style="stroke:#C82930;stroke-width:1.0;" width="6" x="134" y="1076.3441"/><text fill="#000000" font-family="sans-serif" font-size="14" lengthAdjust="spacing" textLength="100" x="146" y="1083.1352">twBorderColor</text><rect fill="none" height="6" style="stroke:#C82930;stroke-width:1.0;" width="6" x="134" y="1092.8324"/><text fill="#000000" font-family="sans-serif" font-size="14" lengthAdjust="spacing" textLength="41" x="146" y="1099.6234">board</text><rect fill="none" height="6" style="stroke:#C82930;stroke-width:1.0;" width="6" x="134" y="1109.3207"/><text fill="#000000" font-family="sans-serif" font-size="14" lengthAdjust="spacing" textLength="103" x="146" y="1116.1117">matrixLocation</text><rect fill="none" height="6" style="stroke:#C82930;stroke-width:1.0;" width="6" x="134" y="1125.809"/><text fill="#000000" font-family="sans-serif" font-size="14" lengthAdjust="spacing" textLength="62" x="146" y="1132.6">occupied</text><rect fill="none" height="6" style="stroke:#C82930;stroke-width:1.0;" width="6" x="134" y="1142.2973"/><text fill="#000000" font-family="sans-serif" font-size="14" lengthAdjust="spacing" textLength="45" x="146" y="1149.0883">locked</text><line style="stroke:#181818;stroke-width:0.5;" x1="127" x2="361" y1="1156.0414" y2="1156.0414"/><ellipse cx="137" cy="1169.7855" fill="#84BE84" rx="3" ry="3" style="stroke:#038048;stroke-width:1.0;"/><text fill="#000000" font-family="sans-serif" font-size="14" lengthAdjust="spacing" textLength="210" x="146" y="1173.5766">createTowerPlacementPopUp()</text><ellipse cx="137" cy="1186.2738" fill="#84BE84" rx="3" ry="3" style="stroke:#038048;stroke-width:1.0;"/><text fill="#000000" font-family="sans-serif" font-size="14" lengthAdjust="spacing" textLength="140" x="146" y="1190.0648">placeTower(aTower)</text><ellipse cx="137" cy="1202.7621" fill="#84BE84" rx="3" ry="3" style="stroke:#038048;stroke-width:1.0;"/><text fill="#000000" font-family="sans-serif" font-size="14" lengthAdjust="spacing" textLength="104" x="146" y="1206.5531">removeTower()</text></g><!--class EP_Enemy--><g id="elem_EP_Enemy"><rect codeLine="35" fill="#F1F1F1" height="262.3477" id="EP_Enemy" rx="2.5" ry="2.5" style="stroke:#181818;stroke-width:0.5;" width="144" x="763" y="711.26"/><ellipse cx="797.8" cy="727.26" fill="#ADD1B2" rx="11" ry="11" style="stroke:#181818;stroke-width:1.0;"/><path d="M800.2731,733.4031 Q799.6921,733.7019 799.0529,733.8513 Q798.4138,734.0007 797.7082,734.0007 Q795.2014,734.0007 793.8815,732.3489 Q792.5617,730.697 792.5617,727.5759 Q792.5617,724.4465 793.8815,722.7947 Q795.2014,721.1428 797.7082,721.1428 Q798.4138,721.1428 799.0612,721.2922 Q799.7087,721.4416 800.2731,721.7405 L800.2731,724.4631 Q799.6423,723.8821 799.0488,723.6123 Q798.4553,723.3425 797.8244,723.3425 Q796.4797,723.3425 795.7949,724.4092 Q795.1101,725.4758 795.1101,727.5759 Q795.1101,729.6677 795.7949,730.7344 Q796.4797,731.801 797.8244,731.801 Q798.4553,731.801 799.0488,731.5312 Q799.6423,731.2615 800.2731,730.6804 Z " fill="#000000"/><text fill="#000000" font-family="sans-serif" font-size="14" lengthAdjust="spacing" textLength="68" x="816.2" y="732.551">EP_Enemy</text><line style="stroke:#181818;stroke-width:0.5;" x1="764" x2="906" y1="743.26" y2="743.26"/><rect fill="none" height="6" style="stroke:#C82930;stroke-width:1.0;" width="6" x="771" y="754.0041"/><text fill="#000000" font-family="sans-serif" font-size="14" lengthAdjust="spacing" textLength="55" x="783" y="760.7952">damage</text><rect fill="none" height="6" style="stroke:#C82930;stroke-width:1.0;" width="6" x="771" y="770.4924"/><text fill="#000000" font-family="sans-serif" font-size="14" lengthAdjust="spacing" textLength="43" x="783" y="777.2834">health</text><rect fill="none" height="6" style="stroke:#C82930;stroke-width:1.0;" width="6" x="771" y="786.9807"/><text fill="#000000" font-family="sans-serif" font-size="14" lengthAdjust="spacing" textLength="41" x="783" y="793.7717">speed</text><rect fill="none" height="6" style="stroke:#C82930;stroke-width:1.0;" width="6" x="771" y="803.469"/><text fill="#000000" font-family="sans-serif" font-size="14" lengthAdjust="spacing" textLength="26" x="783" y="810.26">way</text><rect fill="none" height="6" style="stroke:#C82930;stroke-width:1.0;" width="6" x="771" y="819.9573"/><text fill="#000000" font-family="sans-serif" font-size="14" lengthAdjust="spacing" textLength="56" x="783" y="826.7483">position</text><rect fill="none" height="6" style="stroke:#C82930;stroke-width:1.0;" width="6" x="771" y="836.4455"/><text fill="#000000" font-family="sans-serif" font-size="14" lengthAdjust="spacing" textLength="61" x="783" y="843.2366">progress</text><rect fill="none" height="6" style="stroke:#C82930;stroke-width:1.0;" width="6" x="771" y="852.9338"/><text fill="#000000" font-family="sans-serif" font-size="14" lengthAdjust="spacing" textLength="81" x="783" y="859.7248">tileProgress</text><rect fill="none" height="6" style="stroke:#C82930;stroke-width:1.0;" width="6" x="771" y="869.4221"/><text fill="#000000" font-family="sans-serif" font-size="14" lengthAdjust="spacing" textLength="109" x="783" y="876.2131">distancePerStep</text><rect fill="none" height="6" style="stroke:#C82930;stroke-width:1.0;" width="6" x="771" y="885.9104"/><text fill="#000000" font-family="sans-serif" font-size="14" lengthAdjust="spacing" textLength="83" x="783" y="892.7014">stepsPerTile</text><rect fill="none" height="6" style="stroke:#C82930;stroke-width:1.0;" width="6" x="771" y="902.3987"/><text fill="#000000" font-family="sans-serif" font-size="14" lengthAdjust="spacing" textLength="98" x="783" y="909.1897">gameManager</text><line style="stroke:#181818;stroke-width:0.5;" x1="764" x2="906" y1="916.1428" y2="916.1428"/><ellipse cx="774" cy="929.887" fill="#84BE84" rx="3" ry="3" style="stroke:#038048;stroke-width:1.0;"/><text fill="#000000" font-family="sans-serif" font-size="14" lengthAdjust="spacing" textLength="68" x="783" y="933.678">initialize()</text><ellipse cx="774" cy="946.3752" fill="#84BE84" rx="3" ry="3" style="stroke:#038048;stroke-width:1.0;"/><text fill="#000000" font-family="sans-serif" font-size="14" lengthAdjust="spacing" textLength="30" x="783" y="950.1663">kill()</text><ellipse cx="774" cy="962.8635" fill="#84BE84" rx="3" ry="3" style="stroke:#038048;stroke-width:1.0;"/><text fill="#000000" font-family="sans-serif" font-size="14" lengthAdjust="spacing" textLength="118" x="783" y="966.6545">moveAlongPath()</text></g><!--class EP_BoardEventHandler--><g id="elem_EP_BoardEventHandler"><rect codeLine="51" fill="#F1F1F1" height="97.4648" id="EP_BoardEventHandler" rx="2.5" ry="2.5" style="stroke:#181818;stroke-width:0.5;" width="186" x="542" y="793.7"/><ellipse cx="557" cy="809.7" fill="#ADD1B2" rx="11" ry="11" style="stroke:#181818;stroke-width:1.0;"/><path d="M559.4731,815.8431 Q558.8921,816.1419 558.2529,816.2913 Q557.6138,816.4407 556.9082,816.4407 Q554.4014,816.4407 553.0815,814.7889 Q551.7617,813.137 551.7617,810.0159 Q551.7617,806.8865 553.0815,805.2347 Q554.4014,803.5828 556.9082,803.5828 Q557.6138,803.5828 558.2612,803.7322 Q558.9087,803.8816 559.4731,804.1805 L559.4731,806.9031 Q558.8423,806.3221 558.2488,806.0523 Q557.6553,805.7825 557.0244,805.7825 Q555.6797,805.7825 554.9949,806.8492 Q554.3101,807.9158 554.3101,810.0159 Q554.3101,812.1077 554.9949,813.1744 Q555.6797,814.241 557.0244,814.241 Q557.6553,814.241 558.2488,813.9712 Q558.8423,813.7015 559.4731,813.1204 Z " fill="#000000"/><text fill="#000000" font-family="sans-serif" font-size="14" lengthAdjust="spacing" textLength="154" x="571" y="814.991">EP_BoardEventHandler</text><line style="stroke:#181818;stroke-width:0.5;" x1="543" x2="727" y1="825.7" y2="825.7"/><rect fill="none" height="6" style="stroke:#C82930;stroke-width:1.0;" width="6" x="550" y="836.4441"/><text fill="#000000" font-family="sans-serif" font-size="14" lengthAdjust="spacing" textLength="61" x="562" y="843.2352">manager</text><rect fill="none" height="6" style="stroke:#C82930;stroke-width:1.0;" width="6" x="550" y="852.9324"/><text fill="#000000" font-family="sans-serif" font-size="14" lengthAdjust="spacing" textLength="41" x="562" y="859.7234">board</text><line style="stroke:#181818;stroke-width:0.5;" x1="543" x2="727" y1="866.6766" y2="866.6766"/><ellipse cx="553" cy="880.4207" fill="#84BE84" rx="3" ry="3" style="stroke:#038048;stroke-width:1.0;"/><text fill="#000000" font-family="sans-serif" font-size="14" lengthAdjust="spacing" textLength="114" x="562" y="884.2117">tileClicked(aTile)</text></g><!--class EP_EditorBEventHandler--><g id="elem_EP_EditorBEventHandler"><rect codeLine="57" fill="#F1F1F1" height="80.9766" id="EP_EditorBEventHandler" rx="2.5" ry="2.5" style="stroke:#181818;stroke-width:0.5;" width="255" x="507.5" y="1083.07"/><ellipse cx="549.5" cy="1099.07" fill="#ADD1B2" rx="11" ry="11" style="stroke:#181818;stroke-width:1.0;"/><path d="M551.9731,1105.2131 Q551.3921,1105.5119 550.7529,1105.6613 Q550.1138,1105.8107 549.4082,1105.8107 Q546.9014,1105.8107 545.5815,1104.1589 Q544.2617,1102.507 544.2617,1099.3859 Q544.2617,1096.2565 545.5815,1094.6047 Q546.9014,1092.9528 549.4082,1092.9528 Q550.1138,1092.9528 550.7612,1093.1022 Q551.4087,1093.2516 551.9731,1093.5505 L551.9731,1096.2731 Q551.3423,1095.6921 550.7488,1095.4223 Q550.1553,1095.1525 549.5244,1095.1525 Q548.1797,1095.1525 547.4949,1096.2192 Q546.8101,1097.2858 546.8101,1099.3859 Q546.8101,1101.4777 547.4949,1102.5444 Q548.1797,1103.611 549.5244,1103.611 Q550.1553,1103.611 550.7488,1103.3412 Q551.3423,1103.0715 551.9731,1102.4904 Z " fill="#000000"/><text fill="#000000" font-family="sans-serif" font-size="14" lengthAdjust="spacing" textLength="163" x="569.5" y="1104.361">EP_EditorBEventHandler</text><line style="stroke:#181818;stroke-width:0.5;" x1="508.5" x2="761.5" y1="1115.07" y2="1115.07"/><line style="stroke:#181818;stroke-width:0.5;" x1="508.5" x2="761.5" y1="1123.07" y2="1123.07"/><ellipse cx="518.5" cy="1136.8141" fill="#84BE84" rx="3" ry="3" style="stroke:#038048;stroke-width:1.0;"/><text fill="#000000" font-family="sans-serif" font-size="14" lengthAdjust="spacing" textLength="229" x="527.5" y="1140.6052">isNextToPrevious(aTile) : Boolean</text><ellipse cx="518.5" cy="1153.3024" fill="#84BE84" rx="3" ry="3" style="stroke:#038048;stroke-width:1.0;"/><text fill="#000000" font-family="sans-serif" font-size="14" lengthAdjust="spacing" textLength="175" x="527.5" y="1157.0934">isOnEdge(aTile) : Boolean</text></g><!--class EP_TowerPlacementPopUp--><g id="elem_EP_TowerPlacementPopUp"><rect codeLine="62" fill="#F1F1F1" height="113.9531" id="EP_TowerPlacementPopUp" rx="2.5" ry="2.5" style="stroke:#181818;stroke-width:0.5;" width="227" x="280.5" y="785.45"/><ellipse cx="301.8" cy="801.45" fill="#ADD1B2" rx="11" ry="11" style="stroke:#181818;stroke-width:1.0;"/><path d="M304.2731,807.5931 Q303.6921,807.8919 303.0529,808.0413 Q302.4138,808.1907 301.7082,808.1907 Q299.2014,808.1907 297.8815,806.5389 Q296.5617,804.887 296.5617,801.7659 Q296.5617,798.6365 297.8815,796.9847 Q299.2014,795.3328 301.7082,795.3328 Q302.4138,795.3328 303.0612,795.4822 Q303.7087,795.6316 304.2731,795.9305 L304.2731,798.6531 Q303.6423,798.0721 303.0488,797.8023 Q302.4553,797.5325 301.8244,797.5325 Q300.4797,797.5325 299.7949,798.5992 Q299.1101,799.6658 299.1101,801.7659 Q299.1101,803.8577 299.7949,804.9244 Q300.4797,805.991 301.8244,805.991 Q302.4553,805.991 303.0488,805.7212 Q303.6423,805.4515 304.2731,804.8704 Z " fill="#000000"/><text fill="#000000" font-family="sans-serif" font-size="14" lengthAdjust="spacing" textLength="181" x="317.2" y="806.741">EP_TowerPlacementPopUp</text><line style="stroke:#181818;stroke-width:0.5;" x1="281.5" x2="506.5" y1="817.45" y2="817.45"/><rect fill="none" height="6" style="stroke:#C82930;stroke-width:1.0;" width="6" x="288.5" y="828.1941"/><text fill="#000000" font-family="sans-serif" font-size="14" lengthAdjust="spacing" textLength="21" x="300.5" y="834.9852">tile</text><rect fill="none" height="6" style="stroke:#C82930;stroke-width:1.0;" width="6" x="288.5" y="844.6824"/><text fill="#000000" font-family="sans-serif" font-size="14" lengthAdjust="spacing" textLength="41" x="300.5" y="851.4734">board</text><line style="stroke:#181818;stroke-width:0.5;" x1="281.5" x2="506.5" y1="858.4266" y2="858.4266"/><ellipse cx="291.5" cy="872.1707" fill="#84BE84" rx="3" ry="3" style="stroke:#038048;stroke-width:1.0;"/><text fill="#000000" font-family="sans-serif" font-size="14" lengthAdjust="spacing" textLength="187" x="300.5" y="875.9617">initializeWith(aBoard, aTile)</text><ellipse cx="291.5" cy="888.659" fill="#84BE84" rx="3" ry="3" style="stroke:#038048;stroke-width:1.0;"/><text fill="#000000" font-family="sans-serif" font-size="14" lengthAdjust="spacing" textLength="201" x="300.5" y="892.45">placeTowerWithAsset(aAsset)</text></g><!--class EP_GameMode--><g id="elem_EP_GameMode"><rect codeLine="69" fill="#F1F1F1" height="130.4414" id="EP_GameMode" rx="2.5" ry="2.5" style="stroke:#181818;stroke-width:0.5;" width="179" x="678.5" y="41"/><ellipse cx="714.65" cy="57" fill="#ADD1B2" rx="11" ry="11" style="stroke:#181818;stroke-width:1.0;"/><path d="M717.1231,63.1431 Q716.5421,63.4419 715.9029,63.5913 Q715.2638,63.7407 714.5582,63.7407 Q712.0514,63.7407 710.7315,62.0889 Q709.4117,60.437 709.4117,57.3159 Q709.4117,54.1865 710.7315,52.5347 Q712.0514,50.8828 714.5582,50.8828 Q715.2638,50.8828 715.9112,51.0322 Q716.5587,51.1816 717.1231,51.4805 L717.1231,54.2031 Q716.4923,53.6221 715.8988,53.3523 Q715.3053,53.0825 714.6744,53.0825 Q713.3297,53.0825 712.6449,54.1492 Q711.9601,55.2158 711.9601,57.3159 Q711.9601,59.4077 712.6449,60.4744 Q713.3297,61.541 714.6744,61.541 Q715.3053,61.541 715.8988,61.2712 Q716.4923,61.0015 717.1231,60.4204 Z " fill="#000000"/><text fill="#000000" font-family="sans-serif" font-size="14" lengthAdjust="spacing" textLength="100" x="733.35" y="62.291">EP_GameMode</text><line style="stroke:#181818;stroke-width:0.5;" x1="679.5" x2="856.5" y1="73" y2="73"/><rect fill="none" height="6" style="stroke:#C82930;stroke-width:1.0;" width="6" x="686.5" y="83.7441"/><text fill="#000000" font-family="sans-serif" font-size="14" lengthAdjust="spacing" textLength="53" x="698.5" y="90.5352">window</text><rect fill="none" height="6" style="stroke:#C82930;stroke-width:1.0;" width="6" x="686.5" y="100.2324"/><text fill="#000000" font-family="sans-serif" font-size="14" lengthAdjust="spacing" textLength="66" x="698.5" y="107.0234">mainView</text><rect fill="none" height="6" style="stroke:#C82930;stroke-width:1.0;" width="6" x="686.5" y="116.7207"/><text fill="#000000" font-family="sans-serif" font-size="14" lengthAdjust="spacing" textLength="82" x="698.5" y="123.5117">bottomView</text><line style="stroke:#181818;stroke-width:0.5;" x1="679.5" x2="856.5" y1="130.4648" y2="130.4648"/><ellipse cx="689.5" cy="144.209" fill="#84BE84" rx="3" ry="3" style="stroke:#038048;stroke-width:1.0;"/><text fill="#000000" font-family="sans-serif" font-size="14" lengthAdjust="spacing" textLength="153" x="698.5" y="148">switchTo(aModeClass)</text><ellipse cx="689.5" cy="160.6973" fill="#84BE84" rx="3" ry="3" style="stroke:#038048;stroke-width:1.0;"/><text fill="#000000" font-family="sans-serif" font-size="14" lengthAdjust="spacing" textLength="111" x="698.5" y="164.4883">takeOver(aArgs)</text></g><!--class EP_Menu--><g id="elem_EP_Menu"><rect codeLine="77" fill="#F1F1F1" height="113.9531" id="EP_Menu" rx="2.5" ry="2.5" style="stroke:#181818;stroke-width:0.5;" width="127" x="1043.5" y="231.44"/><ellipse cx="1073.8" cy="247.44" fill="#ADD1B2" rx="11" ry="11" style="stroke:#181818;stroke-width:1.0;"/><path d="M1076.2731,253.5831 Q1075.6921,253.8819 1075.0529,254.0313 Q1074.4138,254.1807 1073.7082,254.1807 Q1071.2014,254.1807 1069.8815,252.5289 Q1068.5617,250.877 1068.5617,247.7559 Q1068.5617,244.6265 1069.8815,242.9747 Q1071.2014,241.3228 1073.7082,241.3228 Q1074.4138,241.3228 1075.0612,241.4722 Q1075.7087,241.6216 1076.2731,241.9205 L1076.2731,244.6431 Q1075.6423,244.0621 1075.0488,243.7923 Q1074.4553,243.5225 1073.8244,243.5225 Q1072.4797,243.5225 1071.7949,244.5892 Q1071.1101,245.6558 1071.1101,247.7559 Q1071.1101,249.8477 1071.7949,250.9144 Q1072.4797,251.981 1073.8244,251.981 Q1074.4553,251.981 1075.0488,251.7112 Q1075.6423,251.4415 1076.2731,250.8604 Z " fill="#000000"/><text fill="#000000" font-family="sans-serif" font-size="14" lengthAdjust="spacing" textLength="61" x="1091.2" y="252.731">EP_Menu</text><line style="stroke:#181818;stroke-width:0.5;" x1="1044.5" x2="1169.5" y1="263.44" y2="263.44"/><rect fill="none" height="6" style="stroke:#C82930;stroke-width:1.0;" width="6" x="1051.5" y="274.1841"/><text fill="#000000" font-family="sans-serif" font-size="14" lengthAdjust="spacing" textLength="61" x="1063.5" y="280.9752">manager</text><line style="stroke:#181818;stroke-width:0.5;" x1="1044.5" x2="1169.5" y1="287.9283" y2="287.9283"/><ellipse cx="1054.5" cy="301.6724" fill="#84BE84" rx="3" ry="3" style="stroke:#038048;stroke-width:1.0;"/><text fill="#000000" font-family="sans-serif" font-size="14" lengthAdjust="spacing" textLength="101" x="1063.5" y="305.4634">editorClicked()</text><ellipse cx="1054.5" cy="318.1607" fill="#84BE84" rx="3" ry="3" style="stroke:#038048;stroke-width:1.0;"/><text fill="#000000" font-family="sans-serif" font-size="14" lengthAdjust="spacing" textLength="88" x="1063.5" y="321.9517">playClicked()</text><ellipse cx="1054.5" cy="334.649" fill="#84BE84" rx="3" ry="3" style="stroke:#038048;stroke-width:1.0;"/><text fill="#000000" font-family="sans-serif" font-size="14" lengthAdjust="spacing" textLength="87" x="1063.5" y="338.44">quitClicked()</text></g><!--class EP_MenuMode--><g id="elem_EP_MenuMode"><rect codeLine="84" fill="#F1F1F1" height="97.4648" id="EP_MenuMode" rx="2.5" ry="2.5" style="stroke:#181818;stroke-width:0.5;" width="131" x="349.5" y="239.69"/><ellipse cx="364.5" cy="255.69" fill="#ADD1B2" rx="11" ry="11" style="stroke:#181818;stroke-width:1.0;"/><path d="M366.9731,261.8331 Q366.3921,262.1319 365.7529,262.2813 Q365.1138,262.4307 364.4082,262.4307 Q361.9014,262.4307 360.5815,260.7789 Q359.2617,259.127 359.2617,256.0059 Q359.2617,252.8765 360.5815,251.2247 Q361.9014,249.5728 364.4082,249.5728 Q365.1138,249.5728 365.7612,249.7222 Q366.4087,249.8716 366.9731,250.1705 L366.9731,252.8931 Q366.3423,252.3121 365.7488,252.0423 Q365.1553,251.7725 364.5244,251.7725 Q363.1797,251.7725 362.4949,252.8392 Q361.8101,253.9058 361.8101,256.0059 Q361.8101,258.0977 362.4949,259.1644 Q363.1797,260.231 364.5244,260.231 Q365.1553,260.231 365.7488,259.9612 Q366.3423,259.6915 366.9731,259.1104 Z " fill="#000000"/><text fill="#000000" font-family="sans-serif" font-size="14" lengthAdjust="spacing" textLength="99" x="378.5" y="260.981">EP_MenuMode</text><line style="stroke:#181818;stroke-width:0.5;" x1="350.5" x2="479.5" y1="271.69" y2="271.69"/><line style="stroke:#181818;stroke-width:0.5;" x1="350.5" x2="479.5" y1="279.69" y2="279.69"/><ellipse cx="360.5" cy="293.4341" fill="#84BE84" rx="3" ry="3" style="stroke:#038048;stroke-width:1.0;"/><text fill="#000000" font-family="sans-serif" font-size="14" lengthAdjust="spacing" textLength="68" x="369.5" y="297.2252">initialize()</text><ellipse cx="360.5" cy="309.9224" fill="#84BE84" rx="3" ry="3" style="stroke:#038048;stroke-width:1.0;"/><text fill="#000000" font-family="sans-serif" font-size="14" lengthAdjust="spacing" textLength="82" x="369.5" y="313.7134">startEditor()</text><ellipse cx="360.5" cy="326.4107" fill="#84BE84" rx="3" ry="3" style="stroke:#038048;stroke-width:1.0;"/><text fill="#000000" font-family="sans-serif" font-size="14" lengthAdjust="spacing" textLength="77" x="369.5" y="330.2017">playGame()</text></g><!--class EP_PlayMode--><g id="elem_EP_PlayMode"><rect codeLine="90" fill="#F1F1F1" height="113.9531" id="EP_PlayMode" rx="2.5" ry="2.5" style="stroke:#181818;stroke-width:0.5;" width="137" x="871.5" y="231.44"/><ellipse cx="894.15" cy="247.44" fill="#ADD1B2" rx="11" ry="11" style="stroke:#181818;stroke-width:1.0;"/><path d="M896.6231,253.5831 Q896.0421,253.8819 895.4029,254.0313 Q894.7638,254.1807 894.0582,254.1807 Q891.5514,254.1807 890.2315,252.5289 Q888.9117,250.877 888.9117,247.7559 Q888.9117,244.6265 890.2315,242.9747 Q891.5514,241.3228 894.0582,241.3228 Q894.7638,241.3228 895.4112,241.4722 Q896.0587,241.6216 896.6231,241.9205 L896.6231,244.6431 Q895.9923,244.0621 895.3988,243.7923 Q894.8053,243.5225 894.1744,243.5225 Q892.8297,243.5225 892.1449,244.5892 Q891.4601,245.6558 891.4601,247.7559 Q891.4601,249.8477 892.1449,250.9144 Q892.8297,251.981 894.1744,251.981 Q894.8053,251.981 895.3988,251.7112 Q895.9923,251.4415 896.6231,250.8604 Z " fill="#000000"/><text fill="#000000" font-family="sans-serif" font-size="14" lengthAdjust="spacing" textLength="88" x="909.85" y="252.731">EP_PlayMode</text><line style="stroke:#181818;stroke-width:0.5;" x1="872.5" x2="1007.5" y1="263.44" y2="263.44"/><rect fill="none" height="6" style="stroke:#C82930;stroke-width:1.0;" width="6" x="879.5" y="274.1841"/><text fill="#000000" font-family="sans-serif" font-size="14" lengthAdjust="spacing" textLength="64" x="891.5" y="280.9752">submode</text><line style="stroke:#181818;stroke-width:0.5;" x1="872.5" x2="1007.5" y1="287.9283" y2="287.9283"/><ellipse cx="882.5" cy="301.6724" fill="#84BE84" rx="3" ry="3" style="stroke:#038048;stroke-width:1.0;"/><text fill="#000000" font-family="sans-serif" font-size="14" lengthAdjust="spacing" textLength="111" x="891.5" y="305.4634">takeOver(aArgs)</text><ellipse cx="882.5" cy="318.1607" fill="#84BE84" rx="3" ry="3" style="stroke:#038048;stroke-width:1.0;"/><text fill="#000000" font-family="sans-serif" font-size="14" lengthAdjust="spacing" textLength="79" x="891.5" y="321.9517">stopGame()</text><ellipse cx="882.5" cy="334.649" fill="#84BE84" rx="3" ry="3" style="stroke:#038048;stroke-width:1.0;"/><text fill="#000000" font-family="sans-serif" font-size="14" lengthAdjust="spacing" textLength="87" x="891.5" y="338.44">goToEditor()</text></g><!--class EP_EditorMode--><g id="elem_EP_EditorMode"><rect codeLine="97" fill="#F1F1F1" height="113.9531" id="EP_EditorMode" rx="2.5" ry="2.5" style="stroke:#181818;stroke-width:0.5;" width="137" x="699.5" y="231.44"/><ellipse cx="715.85" cy="247.44" fill="#ADD1B2" rx="11" ry="11" style="stroke:#181818;stroke-width:1.0;"/><path d="M718.3231,253.5831 Q717.7421,253.8819 717.1029,254.0313 Q716.4638,254.1807 715.7582,254.1807 Q713.2514,254.1807 711.9315,252.5289 Q710.6117,250.877 710.6117,247.7559 Q710.6117,244.6265 711.9315,242.9747 Q713.2514,241.3228 715.7582,241.3228 Q716.4638,241.3228 717.1112,241.4722 Q717.7587,241.6216 718.3231,241.9205 L718.3231,244.6431 Q717.6923,244.0621 717.0988,243.7923 Q716.5053,243.5225 715.8744,243.5225 Q714.5297,243.5225 713.8449,244.5892 Q713.1601,245.6558 713.1601,247.7559 Q713.1601,249.8477 713.8449,250.9144 Q714.5297,251.981 715.8744,251.981 Q716.5053,251.981 717.0988,251.7112 Q717.6923,251.4415 718.3231,250.8604 Z " fill="#000000"/><text fill="#000000" font-family="sans-serif" font-size="14" lengthAdjust="spacing" textLength="102" x="730.15" y="252.731">EP_EditorMode</text><line style="stroke:#181818;stroke-width:0.5;" x1="700.5" x2="835.5" y1="263.44" y2="263.44"/><rect fill="none" height="6" style="stroke:#C82930;stroke-width:1.0;" width="6" x="707.5" y="274.1841"/><text fill="#000000" font-family="sans-serif" font-size="14" lengthAdjust="spacing" textLength="41" x="719.5" y="280.9752">phase</text><line style="stroke:#181818;stroke-width:0.5;" x1="700.5" x2="835.5" y1="287.9283" y2="287.9283"/><ellipse cx="710.5" cy="301.6724" fill="#84BE84" rx="3" ry="3" style="stroke:#038048;stroke-width:1.0;"/><text fill="#000000" font-family="sans-serif" font-size="14" lengthAdjust="spacing" textLength="68" x="719.5" y="305.4634">initialize()</text><ellipse cx="710.5" cy="318.1607" fill="#84BE84" rx="3" ry="3" style="stroke:#038048;stroke-width:1.0;"/><text fill="#000000" font-family="sans-serif" font-size="14" lengthAdjust="spacing" textLength="67" x="719.5" y="321.9517">playMap()</text><ellipse cx="710.5" cy="334.649" fill="#84BE84" rx="3" ry="3" style="stroke:#038048;stroke-width:1.0;"/><text fill="#000000" font-family="sans-serif" font-size="14" lengthAdjust="spacing" textLength="111" x="719.5" y="338.44">takeOver(aArgs)</text></g><!--class EP_GameWindow--><g id="elem_EP_GameWindow"><rect codeLine="104" fill="#F1F1F1" height="113.9531" id="EP_GameWindow" rx="2.5" ry="2.5" style="stroke:#181818;stroke-width:0.5;" width="148" x="516" y="231.44"/><ellipse cx="531" cy="247.44" fill="#ADD1B2" rx="11" ry="11" style="stroke:#181818;stroke-width:1.0;"/><path d="M533.4731,253.5831 Q532.8921,253.8819 532.2529,254.0313 Q531.6138,254.1807 530.9082,254.1807 Q528.4014,254.1807 527.0815,252.5289 Q525.7617,250.877 525.7617,247.7559 Q525.7617,244.6265 527.0815,242.9747 Q528.4014,241.3228 530.9082,241.3228 Q531.6138,241.3228 532.2612,241.4722 Q532.9087,241.6216 533.4731,241.9205 L533.4731,244.6431 Q532.8423,244.0621 532.2488,243.7923 Q531.6553,243.5225 531.0244,243.5225 Q529.6797,243.5225 528.9949,244.5892 Q528.3101,245.6558 528.3101,247.7559 Q528.3101,249.8477 528.9949,250.9144 Q529.6797,251.981 531.0244,251.981 Q531.6553,251.981 532.2488,251.7112 Q532.8423,251.4415 533.4731,250.8604 Z " fill="#000000"/><text fill="#000000" font-family="sans-serif" font-size="14" lengthAdjust="spacing" textLength="116" x="545" y="252.731">EP_GameWindow</text><line style="stroke:#181818;stroke-width:0.5;" x1="517" x2="663" y1="263.44" y2="263.44"/><rect fill="none" height="6" style="stroke:#C82930;stroke-width:1.0;" width="6" x="524" y="274.1841"/><text fill="#000000" font-family="sans-serif" font-size="14" lengthAdjust="spacing" textLength="66" x="536" y="280.9752">mainView</text><rect fill="none" height="6" style="stroke:#C82930;stroke-width:1.0;" width="6" x="524" y="290.6724"/><text fill="#000000" font-family="sans-serif" font-size="14" lengthAdjust="spacing" textLength="82" x="536" y="297.4634">bottomView</text><line style="stroke:#181818;stroke-width:0.5;" x1="517" x2="663" y1="304.4166" y2="304.4166"/><ellipse cx="527" cy="318.1607" fill="#84BE84" rx="3" ry="3" style="stroke:#038048;stroke-width:1.0;"/><text fill="#000000" font-family="sans-serif" font-size="14" lengthAdjust="spacing" textLength="80" x="536" y="321.9517">adjustSize()</text><ellipse cx="527" cy="334.649" fill="#84BE84" rx="3" ry="3" style="stroke:#038048;stroke-width:1.0;"/><text fill="#000000" font-family="sans-serif" font-size="14" lengthAdjust="spacing" textLength="112" x="536" y="338.44">openInWindow()</text></g><!--class EP_NotAGameManager--><g id="elem_EP_NotAGameManager"><rect codeLine="111" fill="#F1F1F1" height="130.4414" id="EP_NotAGameManager" rx="2.5" ry="2.5" style="stroke:#181818;stroke-width:0.5;" width="188" x="741" y="463.11"/><ellipse cx="756" cy="479.11" fill="#ADD1B2" rx="11" ry="11" style="stroke:#181818;stroke-width:1.0;"/><path d="M758.4731,485.2531 Q757.8921,485.5519 757.2529,485.7013 Q756.6138,485.8507 755.9082,485.8507 Q753.4014,485.8507 752.0815,484.1989 Q750.7617,482.547 750.7617,479.4259 Q750.7617,476.2965 752.0815,474.6447 Q753.4014,472.9928 755.9082,472.9928 Q756.6138,472.9928 757.2612,473.1422 Q757.9087,473.2916 758.4731,473.5905 L758.4731,476.3131 Q757.8423,475.7321 757.2488,475.4623 Q756.6553,475.1925 756.0244,475.1925 Q754.6797,475.1925 753.9949,476.2592 Q753.3101,477.3258 753.3101,479.4259 Q753.3101,481.5177 753.9949,482.5844 Q754.6797,483.651 756.0244,483.651 Q756.6553,483.651 757.2488,483.3812 Q757.8423,483.1115 758.4731,482.5304 Z " fill="#000000"/><text fill="#000000" font-family="sans-serif" font-size="14" lengthAdjust="spacing" textLength="156" x="770" y="484.401">EP_NotAGameManager</text><line style="stroke:#181818;stroke-width:0.5;" x1="742" x2="928" y1="495.11" y2="495.11"/><rect fill="none" height="6" style="stroke:#C82930;stroke-width:1.0;" width="6" x="749" y="505.8541"/><text fill="#000000" font-family="sans-serif" font-size="14" lengthAdjust="spacing" textLength="26" x="761" y="512.6452">way</text><rect fill="none" height="6" style="stroke:#C82930;stroke-width:1.0;" width="6" x="749" y="522.3424"/><text fill="#000000" font-family="sans-serif" font-size="14" lengthAdjust="spacing" textLength="30" x="761" y="529.1334">map</text><rect fill="none" height="6" style="stroke:#C82930;stroke-width:1.0;" width="6" x="749" y="538.8307"/><text fill="#000000" font-family="sans-serif" font-size="14" lengthAdjust="spacing" textLength="46" x="761" y="545.6217">money</text><rect fill="none" height="6" style="stroke:#C82930;stroke-width:1.0;" width="6" x="749" y="555.319"/><text fill="#000000" font-family="sans-serif" font-size="14" lengthAdjust="spacing" textLength="30" x="761" y="562.11">lives</text><line style="stroke:#181818;stroke-width:0.5;" x1="742" x2="928" y1="569.0631" y2="569.0631"/><ellipse cx="752" cy="582.8073" fill="#84BE84" rx="3" ry="3" style="stroke:#038048;stroke-width:1.0;"/><text fill="#000000" font-family="sans-serif" font-size="14" lengthAdjust="spacing" textLength="99" x="761" y="586.5983">spawnEnemy()</text></g><!--link CommanderCody to EP_Board--><g id="link_CommanderCody_EP_Board"><path codeLine="119" d="M205.83,329.24 C225.87,350.34 247.5583,373.1693 273.5983,400.5893 " fill="none" id="CommanderCody-to-EP_Board" style="stroke:#181818;stroke-width:1.0;"/><polygon fill="#181818" points="277.73,404.94,274.4329,395.6594,274.2869,401.3144,268.6319,401.1684,277.73,404.94" style="stroke:#181818;stroke-width:1.0;"/></g><!--link EP_Board to EP_Tile--><g id="link_EP_Board_EP_Tile"><path codeLine="120" d="M268.3818,661.7058 C256.5518,680.7658 252.64,690.76 245.5,711.26 C208.59,817.24 209.0771,941.9649 219.5671,1027.1949 " fill="none" id="EP_Board-EP_Tile" style="stroke:#181818;stroke-width:1.0;"/><polygon fill="#181818" points="274.71,651.51,268.1473,654.4985,268.3818,661.7058,274.9445,658.7173,274.71,651.51" style="stroke:#181818;stroke-width:1.0;"/><polygon fill="#181818" points="220.3,1033.15,223.1706,1023.7288,219.6892,1028.1874,215.2305,1024.706,220.3,1033.15" style="stroke:#181818;stroke-width:1.0;"/></g><!--link EP_Tile to EP_Board--><g id="link_EP_Tile_EP_Board"><path codeLine="135" d="M247.23,1033.15 C244.81,947.92 243.59,817.24 280.5,711.26 C287.64,690.76 294.7863,675.7109 306.2563,656.6509 " fill="none" id="EP_Tile-to-EP_Board" style="stroke:#181818;stroke-width:1.0;"/><polygon fill="#181818" points="309.35,651.51,301.2822,657.1589,306.7719,655.7941,308.1367,661.2838,309.35,651.51" style="stroke:#181818;stroke-width:1.0;"/></g><!--link EP_Board to EP_BoardEventHandler--><g id="link_EP_Board_EP_BoardEventHandler"><path codeLine="121" d="M488.21,651.33 C526.63,701.09 565.1223,750.9415 594.3723,788.8115 " fill="none" id="EP_Board-to-EP_BoardEventHandler" style="stroke:#181818;stroke-width:1.0;"/><polygon fill="#181818" points="598.04,793.56,595.7042,783.9921,594.9836,789.6029,589.3729,788.8823,598.04,793.56" style="stroke:#181818;stroke-width:1.0;"/></g><!--reverse link EP_BoardEventHandler to EP_EditorBEventHandler--><g id="link_EP_BoardEventHandler_EP_EditorBEventHandler"><path codeLine="122" d="M635,909.41 C635,963.5 635,1032.44 635,1082.86 " fill="none" id="EP_BoardEventHandler-backto-EP_EditorBEventHandler" style="stroke:#181818;stroke-width:1.0;"/><polygon fill="none" points="635,891.41,629,909.41,641,909.41,635,891.41" style="stroke:#181818;stroke-width:1.0;"/></g><!--link EP_Board to EP_Enemy--><g id="link_EP_Board_EP_Enemy"><path codeLine="123" d="M537.7597,584.5321 C607.7597,615.4021 681.13,655.01 745,711.26 C751.08,716.61 752.9122,718.0311 758.5422,724.1911 " fill="none" id="EP_Board-EP_Enemy" style="stroke:#181818;stroke-width:1.0;"/><polygon fill="#181818" points="526.78,579.69,530.6558,585.7709,537.7597,584.5321,533.8839,578.4511,526.78,579.69" style="stroke:#181818;stroke-width:1.0;"/><polygon fill="#181818" points="762.59,728.62,759.4708,719.2781,759.2168,724.9293,753.5657,724.6752,762.59,728.62" style="stroke:#181818;stroke-width:1.0;"/></g><!--link EP_Board to EP_TowerPlacementPopUp--><g id="link_EP_Board_EP_TowerPlacementPopUp"><path codeLine="124" d="M394,651.33 C394,697.5 394,741.84 394,779.11 " fill="none" id="EP_Board-to-EP_TowerPlacementPopUp" style="stroke:#181818;stroke-width:1.0;"/><polygon fill="#181818" points="394,785.11,398,776.11,394,780.11,390,776.11,394,785.11" style="stroke:#181818;stroke-width:1.0;"/></g><!--reverse link EP_GameMode to EP_MenuMode--><g id="link_EP_GameMode_EP_MenuMode"><path codeLine="125" d="M661.5132,151.382 C608.1232,174.422 556.24,198.69 498,231.44 C492.39,234.6 486.68,238.01 480.99,241.53 " fill="none" id="EP_GameMode-backto-EP_MenuMode" style="stroke:#181818;stroke-width:1.0;"/><polygon fill="none" points="678.04,144.25,659.1359,145.8731,663.8905,156.8909,678.04,144.25" style="stroke:#181818;stroke-width:1.0;"/></g><!--reverse link EP_GameMode to EP_EditorMode--><g id="link_EP_GameMode_EP_EditorMode"><path codeLine="126" d="M768,189.77 C768,209.16 768,212.27 768,231.08 " fill="none" id="EP_GameMode-backto-EP_EditorMode" style="stroke:#181818;stroke-width:1.0;"/><polygon fill="none" points="768,171.77,762,189.77,774,189.77,768,171.77" style="stroke:#181818;stroke-width:1.0;"/></g><!--reverse link EP_GameMode to EP_PlayMode--><g id="link_EP_GameMode_EP_PlayMode"><path codeLine="127" d="M842.039,184.7899 C860.549,204.1799 868.27,212.27 886.23,231.08 " fill="none" id="EP_GameMode-backto-EP_PlayMode" style="stroke:#181818;stroke-width:1.0;"/><polygon fill="none" points="829.61,171.77,837.6991,188.933,846.379,180.6469,829.61,171.77" style="stroke:#181818;stroke-width:1.0;"/></g><!--link EP_GameMode to EP_Menu--><g id="link_EP_GameMode_EP_Menu"><path codeLine="128" d="M857.83,146.29 C908.25,169.25 971.74,199.89 1026,231.44 C1031.62,234.71 1032.2957,235.0067 1037.9857,238.6467 " fill="none" id="EP_GameMode-to-EP_Menu" style="stroke:#181818;stroke-width:1.0;"/><polygon fill="#181818" points="1043.04,241.88,1037.6141,233.6605,1038.8281,239.1856,1033.303,240.3995,1043.04,241.88" style="stroke:#181818;stroke-width:1.0;"/></g><!--link EP_GameMode to EP_GameWindow--><g id="link_EP_GameMode_EP_GameWindow"><path codeLine="129" d="M704.24,171.77 C685.09,191.16 668.4465,208.0013 649.8665,226.8113 " fill="none" id="EP_GameMode-to-EP_GameWindow" style="stroke:#181818;stroke-width:1.0;"/><polygon fill="#181818" points="645.65,231.08,654.8205,227.488,649.1637,227.5228,649.1289,221.866,645.65,231.08" style="stroke:#181818;stroke-width:1.0;"/></g><!--link EP_GameWindow to EP_Board--><g id="link_EP_GameWindow_EP_Board"><path codeLine="130" d="M543.55,345.8 C528.72,363.8 515.5056,379.8396 498.3656,400.6396 " fill="none" id="EP_GameWindow-to-EP_Board" style="stroke:#181818;stroke-width:1.0;"/><polygon fill="#181818" points="494.55,405.27,503.3604,400.8681,497.7297,401.4113,497.1865,395.7806,494.55,405.27" style="stroke:#181818;stroke-width:1.0;"/></g><!--link EP_GameWindow to EP_NotAGameManager--><g id="link_EP_GameWindow_EP_NotAGameManager"><path codeLine="131" d="M648.06,345.8 C684.29,380.98 726.7156,422.1801 764.3956,458.7701 " fill="none" id="EP_GameWindow-to-EP_NotAGameManager" style="stroke:#181818;stroke-width:1.0;"/><polygon fill="#181818" points="768.7,462.95,765.03,453.8105,765.113,459.4667,759.4567,459.5497,768.7,462.95" style="stroke:#181818;stroke-width:1.0;"/></g><!--link EP_PlayMode to EP_NotAGameManager--><g id="link_EP_PlayMode_EP_NotAGameManager"><path codeLine="132" d="M915.12,345.8 C899.59,380.98 881.9828,420.8709 865.8328,457.4609 " fill="none" id="EP_PlayMode-to-EP_NotAGameManager" style="stroke:#181818;stroke-width:1.0;"/><polygon fill="#181818" points="863.41,462.95,870.7035,456.3315,865.429,458.3758,863.3847,453.1012,863.41,462.95" style="stroke:#181818;stroke-width:1.0;"/></g><!--link EP_NotAGameManager to EP_Enemy--><g id="link_EP_NotAGameManager_EP_Enemy"><path codeLine="133" d="M835,605.99 C835,639.83 835,664.51 835,704.86 " fill="none" id="EP_NotAGameManager-EP_Enemy" style="stroke:#181818;stroke-width:1.0;"/><polygon fill="#181818" points="835,593.99,831,599.99,835,605.99,839,599.99,835,593.99" style="stroke:#181818;stroke-width:1.0;"/><polygon fill="#181818" points="835,710.86,839,701.86,835,705.86,831,701.86,835,710.86" style="stroke:#181818;stroke-width:1.0;"/></g><!--link EP_TowerPlacementPopUp to EP_Tile--><g id="link_EP_TowerPlacementPopUp_EP_Tile"><path codeLine="134" d="M363.83,899.58 C343.25,937.87 318.4106,984.095 294.8306,1027.965 " fill="none" id="EP_TowerPlacementPopUp-to-EP_Tile" style="stroke:#181818;stroke-width:1.0;"/><polygon fill="#181818" points="291.99,1033.25,299.7743,1027.2163,294.3572,1028.8459,292.7277,1023.4288,291.99,1033.25" style="stroke:#181818;stroke-width:1.0;"/></g><!--SRC=[ZLR1Rjim3BtdAtnCv-Mm7NeOXW594BG3bjP0lFKui3QHQB55JvBZPbl_VRBgn98if_N59laiKezFj2l8zh35QFCmln5KLny-HdydaqXVMG5IHaigI-0vYYNbHnsAkYjETvYo4cz1QWXEhw9FBhP7hfumgnNU2nsvlZR80x7S09xjNAlavu90v5QQcM85ojvyRECRzWTTXEjfuEYziJeWLxUwjWA5zIOrA982CYnrEA7gUtKnw6I96MUAGQ5zqwlUEqXtEGZTWmMIg58_TrrDmTmid676iBa69TXJaCzKWnmwcmK9qw62X4TIRvPcmM-KWMB4UpzbMLqnj905PNlBZZE1e30TScVJKBKHWvc2kLanWIKTkk1LS4ihZgMjn5aEfLPmR-yG2hNhRLcXNRAZZeeaS_TO2TeAbD8LM3Bmvamgu1acA3OABU58RKdjRQdllLieSGrS5ofUaz2U5OLjjuJC2-BR1DHkX9I5hooReDBBwxNRA6bPiBQJkY7Q624-Puh4OYHBpEGTFcdf9W8FZ6hPBQNrkI0g4BWDlUUhV8jXo433GpNv4s9qQpt33qoJ1uQdzv6rIq-HBMmkzHcSWhc5gRXfkqcvSxGQndDgRDOP_y6miMjJYah75yk6gMoNqXJQzPPj0lkCmnxl3-qvcOkj3DUoHbvVwdQCfc-d1hkxFWRSlskcN7SefRVz4IthCoBKYt3yp2s78-lhPXzzUcNzM6hNPMwwd5HPYnlVbb9ooWYBsqzQxK2-ElBRpQp1cN1lwLjRueFHZDkzjwW6yb-rL1kl4AgGV-KlQuviyuxK_AOVHOv-xRbOWZNHIk9enGfsi3x9iQoWuMOekpdTFuVPxCjvJfdm-MF_hWkTv-KvOhyp-887XzxdVxFPoAWA9pLr1xEc8py7zka_fJkTXr50hwvHo4dp0q1NJvjZBDPBoKPquWenFmnxmZW1poVnCioNLP3Uq1mFzDxyiZX5Jvud_m40]--></g></svg>